G04 ================== begin FILE IDENTIFICATION RECORD ==================*
G04 Layout Name:  CustomKeyboard.brd*
G04 Film Name:    GND*
G04 File Format:  Gerber RS274X*
G04 File Origin:  Cadence Allegro 25.1-P001*
G04 Origin Date:  Sun Feb  8 22:26:50 2026*
G04 *
G04 Layer:  VIA CLASS/GND*
G04 Layer:  PIN/GND*
G04 Layer:  ETCH/GND*
G04 *
G04 Offset:    (0.0000 0.0000)*
G04 Mirror:    No*
G04 Mode:      Positive*
G04 Rotation:  0*
G04 FullContactRelief:  No*
G04 UndefLineWidth:     0.1524*
G04 ================== end FILE IDENTIFICATION RECORD ====================*
%FSLAX35Y35*MOMM*%
%IR0*IPPOS*OFA0.00000B0.00000*MIA0B0*SFA1.00000B1.00000*%
%ADD23C,.22*%
%ADD16C,.4*%
%ADD22C,.65*%
%ADD14C,.762*%
%ADD20O,.8999X2.4*%
%ADD21O,.8999X1.7*%
%ADD15C,1.3*%
%ADD10C,4.*%
%ADD19C,1.4*%
%ADD18C,2.5001*%
%ADD11C,1.7018*%
%ADD13C,2.286*%
%ADD17C,1.5199*%
%ADD12C,3.9878*%
%ADD24C,.2032*%
%ADD25C,.127*%
%ADD32C,.4744*%
%ADD30C,.6544*%
%ADD29C,1.0164*%
%ADD28C,2.5404*%
%ADD26C,2.1086*%
%ADD31C,2.907*%
%ADD33C,1.5544*%
%ADD34C,1.6544*%
%ADD27C,4.3946*%
G75*
%LPD*%
G75*
G36*
G01X38794710Y13716000D02*
X39274750D01*
Y13483380D01*
G02X39257190Y13476420I-10159J-1D01*
G03X39151260Y13522240I-105930J-99538D01*
G03Y13231540I0J-145350D01*
G03X39257190Y13277360I0J145358D01*
G02X39274750Y13270400I7401J-6959D01*
G01Y12736170D01*
X38814380D01*
Y11350620D01*
X39274750D01*
Y10383380D01*
G02X39257190Y10376420I-10159J-1D01*
G03X39151260Y10422240I-105930J-99538D01*
G03Y10131540I0J-145350D01*
G03X39257190Y10177360I0J145358D01*
G02X39274750Y10170400I7401J-6959D01*
G01Y8180350D01*
G03Y7377150I95238J-401600D01*
G01Y4687850D01*
G03Y3884650I95238J-401600D01*
G01Y465390D01*
G02X39254920Y462260I-10161J-8D01*
G03X39052500Y609600I-202420J-65375D01*
G03X38839780Y396880I0J-212720D01*
G03X38881610Y270210I212707J0D01*
G02X38873450Y254000I-8163J-6049D01*
G01X31516600D01*
G03X30713400I-401600J-95238D01*
G01X22150350D01*
G03X21347150I-401600J-95238D01*
G01X11831600D01*
G03X11028400I-401600J-95238D01*
G01X8592800D01*
G02X8584640Y270210I3J10161D01*
G03X8626470Y396880I-170877J126670D01*
G03X8201030I-212720J0D01*
G03X8242860Y270210I212707J0D01*
G02X8234700Y254000I-8163J-6049D01*
G01X2941600D01*
G03X2138400I-401600J-95238D01*
G01X95250D01*
Y2138400D01*
G03Y2941600I-95238J401600D01*
G01Y7218400D01*
G03Y8021600I-95238J401600D01*
G01Y9758400D01*
G03Y10561600I-95238J401600D01*
G01Y13394060D01*
G02X111460Y13402220I10160J-2D01*
G03X238120Y13360400I126660J170897D01*
G03X450840Y13573120I0J212720D01*
G03X409010Y13699790I-212707J0D01*
G02X417170Y13716000I8163J6049D01*
G01X2297150D01*
G03X3100350I401600J95238D01*
G01X11663400D01*
G03X12466600I401600J95238D01*
G01X20077150D01*
G03X20880350I401600J95238D01*
G01X29054680D01*
G02X29062720Y13699630I0J-10159D01*
G03X29018290Y13569520I168294J-130110D01*
G03X29443730I212720J0D01*
G03X29399300Y13699630I-212724J0D01*
G02X29407340Y13716000I8040J6211D01*
G01X29443400D01*
G03X30246600I401600J95238D01*
G01X37807770D01*
G02X37816890Y13701370I-2J-10159D01*
G03X37811020Y13676000I51844J-25360D01*
G01Y13595980D01*
G03X37926440I57710J5D01*
G01Y13676000D01*
G03X37920570Y13701370I-57714J10D01*
G02X37929690Y13716000I9122J4471D01*
G01X38672790D01*
G02X38681910Y13701370I-2J-10159D01*
G03X38676040Y13676000I51844J-25360D01*
G01Y13595980D01*
G03X38791460I57710J5D01*
G01Y13676000D01*
G03X38785590Y13701370I-57714J10D01*
G02X38794710Y13716000I9122J4471D01*
G37*
%LPC*%
G75*
G36*
G01X38676040Y13222980D02*
Y13373000D01*
G02X38791460I57710J-5D01*
G01Y13222980D01*
G02X38676040I-57710J5D01*
G37*
G36*
G01X37811020D02*
Y13373000D01*
G02X37926440I57710J-5D01*
G01Y13222980D01*
G02X37811020I-57710J5D01*
G37*
G36*
G01X29252620Y11098610D02*
G03X29249660Y11114200I-7718J6611D01*
G02X29202500Y11192580I41554J78380D01*
G02X29379940I88720J0D01*
G02X29332780Y11114200I-88714J0D01*
G03X29329820Y11098610I4758J-8979D01*
G02X29342040Y11065560I-38598J-33055D01*
G02X29240400I-50820J0D01*
G02X29252620Y11098610I50818J-5D01*
G37*
G36*
G01X38463450Y13229000D02*
G03X38479040I7795J6512D01*
G02X38513740Y13245220I34700J-29007D01*
G02X38548450Y13228990I0J-45231D01*
G03X38564040I7795J6510D01*
G02X38598750Y13245220I34710J-29001D01*
G02Y13154780I0J-45220D01*
G02X38564040Y13171010I0J45231D01*
G03X38548450I-7795J-6510D01*
G02X38513740Y13154780I-34710J29001D01*
G02X38479040Y13171000I0J45227D01*
G03X38463450I-7795J-6512D01*
G02X38428750Y13154780I-34700J29007D01*
G02X38394040Y13171020I0J45213D01*
G03X38378440I-7800J-6514D01*
G02X38343730Y13154780I-34710J28973D01*
G02X38309040Y13171000I0J45206D01*
G03X38293440I-7800J-6518D01*
G02X38258750Y13154780I-34690J28986D01*
G02X38224040Y13171020I0J45213D01*
G03X38208440I-7800J-6514D01*
G02X38173730Y13154780I-34710J28973D01*
G02X38139030Y13171000I0J45227D01*
G03X38123440I-7795J-6512D01*
G02X38088740Y13154780I-34700J29007D01*
G02X38054030Y13171010I0J45231D01*
G03X38038440I-7795J-6510D01*
G02X38003730Y13154780I-34710J29001D01*
G02Y13245220I0J45220D01*
G02X38038440Y13228990I0J-45231D01*
G03X38054030I7795J6510D01*
G02X38088740Y13245220I34710J-29001D01*
G02X38123440Y13229000I0J-45227D01*
G03X38139030I7795J6512D01*
G02X38173730Y13245220I34700J-29007D01*
G02X38208440Y13228980I0J-45213D01*
G03X38224040I7800J6514D01*
G02X38258750Y13245220I34710J-28973D01*
G02X38293440Y13229000I0J-45206D01*
G03X38309040I7800J6518D01*
G02X38343730Y13245220I34690J-28986D01*
G02X38378440Y13228980I0J-45213D01*
G03X38394040I7800J6514D01*
G02X38428750Y13245220I34710J-28973D01*
G02X38463450Y13229000I0J-45227D01*
G37*
G36*
G01Y13364000D02*
G03X38479040I7795J6512D01*
G02X38513740Y13380220I34700J-29007D01*
G02X38548450Y13363990I0J-45231D01*
G03X38564040I7795J6510D01*
G02X38598750Y13380220I34710J-29001D01*
G02Y13289780I0J-45220D01*
G02X38564040Y13306010I0J45231D01*
G03X38548450I-7795J-6510D01*
G02X38513740Y13289780I-34710J29001D01*
G02X38479040Y13306000I0J45227D01*
G03X38463450I-7795J-6512D01*
G02X38428750Y13289780I-34700J29007D01*
G02X38394040Y13306020I0J45213D01*
G03X38378440I-7800J-6514D01*
G02X38343730Y13289780I-34710J28973D01*
G02X38309040Y13306000I0J45206D01*
G03X38293440I-7800J-6518D01*
G02X38258750Y13289780I-34690J28986D01*
G02X38224040Y13306020I0J45213D01*
G03X38208440I-7800J-6514D01*
G02X38173730Y13289780I-34710J28973D01*
G02X38139030Y13306000I0J45227D01*
G03X38123440I-7795J-6512D01*
G02X38088740Y13289780I-34700J29007D01*
G02X38054030Y13306010I0J45231D01*
G03X38038440I-7795J-6510D01*
G02X38003730Y13289780I-34710J29001D01*
G02Y13380220I0J45220D01*
G02X38038440Y13363990I0J-45231D01*
G03X38054030I7795J6510D01*
G02X38088740Y13380220I34710J-29001D01*
G02X38123440Y13364000I0J-45227D01*
G03X38139030I7795J6512D01*
G02X38173730Y13380220I34700J-29007D01*
G02X38208440Y13363980I0J-45213D01*
G03X38224040I7800J6514D01*
G02X38258750Y13380220I34710J-28973D01*
G02X38293440Y13364000I0J-45206D01*
G03X38309040I7800J6518D01*
G02X38343730Y13380220I34690J-28986D01*
G02X38378440Y13363980I0J-45213D01*
G03X38394040I7800J6514D01*
G02X38428750Y13380220I34710J-28973D01*
G02X38463450Y13364000I0J-45227D01*
G37*
G36*
G01X27247240Y12971450D02*
X27244220Y12970390D01*
G02X27227340Y12967500I-16893J47928D01*
G02X27278160Y13018320I0J50820D01*
G02X27275270Y13001440I-50818J13D01*
G01X27274210Y12998420D01*
X27394000Y12878630D01*
X29218840D01*
G02X29232320Y12873040I-8J-19067D01*
G01X29941160Y12164210D01*
X32704560D01*
G02X32718040Y12158620I-8J-19067D01*
G01X33478460Y11398210D01*
X33481480Y11399270D01*
G02X33498360Y11402160I16893J-47928D01*
G02X33545470Y11370410I0J-50825D01*
G01X33615970D01*
G02X33629450Y11364820I-8J-19067D01*
G01X33642150Y11352120D01*
G02X33647740Y11338640I-13477J-13488D01*
G01Y11046700D01*
X33676370Y11018070D01*
X33959220D01*
G02X33972700Y11012480I-8J-19067D01*
G01X34146880Y10838300D01*
G02X34152470Y10824820I-13477J-13488D01*
G01Y10274710D01*
G03X34170990Y10268930I10161J-2D01*
G02X34212780Y10290840I41790J-28899D01*
G02X34263600Y10240020I0J-50820D01*
G02X34241690Y10198230I-50809J0D01*
G03X34247470Y10179710I5778J-8359D01*
G01X34350940D01*
X34352470Y10181240D01*
Y10192910D01*
G02X34320720Y10240020I19075J47110D01*
G02X34422360I50820J0D01*
G02X34390610Y10192910I-50825J0D01*
G01Y10173340D01*
G02X34385020Y10159860I-19067J8D01*
G01X34372320Y10147160D01*
G02X34358840Y10141570I-13488J13477D01*
G01X34146100D01*
G02X34132620Y10147160I8J19067D01*
G01X34119920Y10159860D01*
G02X34114330Y10173340I13477J13488D01*
G01Y10816920D01*
X33951320Y10979930D01*
X33668470D01*
G02X33654990Y10985520I8J19067D01*
G01X33615190Y11025320D01*
G02X33609600Y11038800I13477J13488D01*
G01Y11330740D01*
X33608070Y11332270D01*
X33545470D01*
G02X33498360Y11300520I-47110J19075D01*
G02X33447540Y11351340I0J50820D01*
G02X33450430Y11368220I50818J-13D01*
G01X33451490Y11371240D01*
X32696660Y12126070D01*
X29933260D01*
G02X29919780Y12131660I8J19067D01*
G01X29210940Y12840490D01*
X27386100D01*
G02X27372620Y12846080I8J19067D01*
G01X27247240Y12971450D01*
G37*
G36*
G01X35750770Y13356400D02*
X35747420Y13354550D01*
G02X35707270Y13344150I-40155J72319D01*
G02X35789990Y13426870I0J82720D01*
G02X35777670Y13383440I-82709J0D01*
G01X35972620Y13188480D01*
G02X35978210Y13175000I-13477J-13488D01*
G01Y12814870D01*
G03X35996730Y12809090I10161J-2D01*
G02X36038520Y12831000I41790J-28899D01*
G02Y12729360I0J-50820D01*
G02X35996730Y12751270I0J50809D01*
G03X35978210Y12745490I-8359J-5778D01*
G01Y12054310D01*
G02X35972620Y12040830I-19067J8D01*
G01X35263790Y11331990D01*
Y11113200D01*
G02X35258200Y11099720I-19067J8D01*
G01X34781920Y10623440D01*
G02X34768440Y10617850I-13488J13477D01*
G01X34418650D01*
G02X34371540Y10586100I-47110J19075D01*
G02Y10687740I0J50820D01*
G02X34418650Y10655990I0J-50825D01*
G01X34760540D01*
X35225650Y11121100D01*
Y11339890D01*
G02X35231240Y11353370I19067J-8D01*
G01X35940070Y12062210D01*
Y13167100D01*
X35750770Y13356400D01*
G37*
G54D32*
X38465660Y12339380D03*
X38749360Y11981880D03*
Y12176880D03*
Y11851880D03*
Y11916880D03*
X38529360Y12306880D03*
X38465660Y12274380D03*
X38529360Y12241880D03*
X38465660Y12209380D03*
X38529360Y12176880D03*
X38465660Y12144380D03*
Y12079380D03*
X38749360Y12046880D03*
X38529360D03*
X38465660Y12014380D03*
X38529360Y11981880D03*
X38606860Y12306880D03*
X38529360Y12111880D03*
X38704360Y11710680D03*
X38465660Y11949380D03*
X38529360Y11916880D03*
X38465660Y11884380D03*
Y11819380D03*
X38529360Y11851880D03*
X38606860Y12111880D03*
Y12176880D03*
Y12241880D03*
X38749360Y12111880D03*
X38574360Y12448080D03*
X38639360D03*
G54D30*
X29688120Y10064440D03*
X28656180Y10827420D03*
G54D29*
X36181740Y2604000D03*
X37927990Y4747150D03*
X35959140Y6271020D03*
X37864260Y8255520D03*
X27147960Y9446220D03*
X33736500Y9763740D03*
X28418040Y10240020D03*
X32942700Y10795680D03*
X34026940Y10456400D03*
X37467360Y10240020D03*
X37387980Y10875060D03*
X37229220D03*
X37864260Y10319400D03*
X39051850Y10685660D03*
X28894320Y11033820D03*
X30720060Y11430720D03*
X33811680Y11330610D03*
X35085960Y11192580D03*
X35244720Y11589480D03*
X35721000Y11033820D03*
X35641620Y11113200D03*
X38658060D03*
X1555210Y12112740D03*
X3364230D03*
X5366640D03*
X7192290D03*
X9281230D03*
X11690220D03*
X13861330D03*
X15759680Y12134320D03*
X17430270Y12138090D03*
X19249010Y12136140D03*
X20977090Y12112740D03*
X22662350Y12132200D03*
X24211530Y12136420D03*
X25902230Y12135130D03*
X27442030Y12134060D03*
X29099130Y12137380D03*
X35085960Y12145140D03*
X38102400Y12141420D03*
X26433540Y13018320D03*
X30479040Y12856680D03*
X37308600Y12859560D03*
G54D28*
X889000Y1524000D03*
X1524000Y1778000D03*
X2794000Y1524000D03*
X3429000Y1778000D03*
X4699000Y1524000D03*
X5334000Y1778000D03*
X6604000Y1524000D03*
X7239000Y1778000D03*
X13509620Y1524000D03*
X14144620Y1778000D03*
X20415250Y1524000D03*
X21050250Y1778000D03*
X22320250Y1524000D03*
X22955250Y1778000D03*
X26130250Y1524000D03*
X26765250Y1778000D03*
X28035250Y1524000D03*
X28670250Y1778000D03*
X29940250Y1524000D03*
X30575250Y1778000D03*
X33115250Y1524000D03*
X33750250Y1778000D03*
X35972750Y1524000D03*
X36607750Y1778000D03*
X37877750Y2476500D03*
X1841500Y3429000D03*
X4699000D03*
X6604000D03*
X8509000D03*
X10414000D03*
X12319000D03*
X14224000D03*
X16129000D03*
X18034000D03*
X19939000D03*
X21844000D03*
X24939620D03*
X28035250D03*
X32142480D03*
X34067750D03*
X35972750D03*
X38512750Y2730500D03*
X2476500Y3683000D03*
X5334000D03*
X7239000D03*
X9144000D03*
X11049000D03*
X12954000D03*
X14859000D03*
X16764000D03*
X18669000D03*
X20574000D03*
X22479000D03*
X25574620D03*
X28670250D03*
X32777480D03*
X34702750D03*
X36607750D03*
X1603380Y5334000D03*
X2238380Y5588000D03*
X4222750Y5334000D03*
X4857750Y5588000D03*
X6127750Y5334000D03*
X6762750Y5588000D03*
X8032750Y5334000D03*
X8667750Y5588000D03*
X9937750Y5334000D03*
X10572750Y5588000D03*
X11842750Y5334000D03*
X12477750Y5588000D03*
X13747750Y5334000D03*
X14382750Y5588000D03*
X15652750Y5334000D03*
X16287750Y5588000D03*
X17557750Y5334000D03*
X18192750Y5588000D03*
X19462750Y5334000D03*
X20097750Y5588000D03*
X21367750Y5334000D03*
X22002750Y5588000D03*
X23272750Y5334000D03*
X23907750Y5588000D03*
X25892120Y5334000D03*
X26527120Y5588000D03*
X32142480Y5334000D03*
X32777480Y5588000D03*
X34067750Y5334000D03*
X34702750Y5588000D03*
X35972750Y5334000D03*
X36607750Y5588000D03*
X37877750Y6286500D03*
X38512750Y6540500D03*
X1365250Y7239000D03*
X2000250Y7493000D03*
X3746500Y7239000D03*
X4381500Y7493000D03*
X5651500Y7239000D03*
X6286500Y7493000D03*
X7556500Y7239000D03*
X8191500Y7493000D03*
X9461500Y7239000D03*
X10096500Y7493000D03*
X11366500Y7239000D03*
X12001500Y7493000D03*
X13271500Y7239000D03*
X13906500Y7493000D03*
X15176500Y7239000D03*
X15811500Y7493000D03*
X17081500Y7239000D03*
X17716500Y7493000D03*
X18986500Y7239000D03*
X19621500Y7493000D03*
X20891500Y7239000D03*
X21526500Y7493000D03*
X22796500Y7239000D03*
X23431500Y7493000D03*
X24701500Y7239000D03*
X25336500Y7493000D03*
X26606500Y7239000D03*
X27241500Y7493000D03*
X32142480Y7239000D03*
X32777480Y7493000D03*
X34067750Y7239000D03*
X34702750Y7493000D03*
X35972750Y7239000D03*
X36607750Y7493000D03*
X889000Y9144000D03*
X1524000Y9398000D03*
X2794000Y9144000D03*
X3429000Y9398000D03*
X4699000Y9144000D03*
X5334000Y9398000D03*
X6604000Y9144000D03*
X7239000Y9398000D03*
X8509000Y9144000D03*
X9144000Y9398000D03*
X10414000Y9144000D03*
X11049000Y9398000D03*
X12319000Y9144000D03*
X12954000Y9398000D03*
X14224000Y9144000D03*
X14859000Y9398000D03*
X16129000Y9144000D03*
X16764000Y9398000D03*
X18034000Y9144000D03*
X18669000Y9398000D03*
X19939000Y9144000D03*
X20574000Y9398000D03*
X21844000Y9144000D03*
X22479000Y9398000D03*
X23749000Y9144000D03*
X24384000Y9398000D03*
X26130250Y9144000D03*
X26765250Y9398000D03*
X32142480Y9144000D03*
X32777480Y9398000D03*
X34067750Y9144000D03*
X34702750Y9398000D03*
X35972750Y9144000D03*
X36607750Y9398000D03*
X37877750Y9144000D03*
X38512750Y9398000D03*
X889000Y11049000D03*
X1524000Y11303000D03*
X2794000Y11049000D03*
X3429000Y11303000D03*
X4699000Y11049000D03*
X5334000Y11303000D03*
X6604000Y11049000D03*
X7239000Y11303000D03*
X8509000Y11049000D03*
X9144000Y11303000D03*
X10414000Y11049000D03*
X11049000Y11303000D03*
X12319000Y11049000D03*
X12954000Y11303000D03*
X14224000Y11049000D03*
X14859000Y11303000D03*
X16129000Y11049000D03*
X16764000Y11303000D03*
X18034000Y11049000D03*
X18669000Y11303000D03*
X19939000Y11049000D03*
X20574000Y11303000D03*
X21844000Y11049000D03*
X22479000Y11303000D03*
X23749000Y11049000D03*
X24384000Y11303000D03*
X26130250Y11049000D03*
X26765250Y11303000D03*
G54D26*
X762000Y1270000D03*
X1778000D03*
X2667000D03*
X3683000D03*
X4572000D03*
X5588000D03*
X6477000D03*
X7493000D03*
X13382620D03*
X14398620D03*
X20288250D03*
X21304250D03*
X22193250D03*
X23209250D03*
X26003250D03*
X27019250D03*
X27908250D03*
X28924250D03*
X29813250D03*
X30829250D03*
X32988250D03*
X34004250D03*
X35845750D03*
X36861750D03*
X37750750Y2222500D03*
X38766750D03*
X1714500Y3175000D03*
X2730500D03*
X4572000D03*
X5588000D03*
X6477000D03*
X7493000D03*
X8382000D03*
X9398000D03*
X10287000D03*
X11303000D03*
X12192000D03*
X13208000D03*
X14097000D03*
X15113000D03*
X16002000D03*
X17018000D03*
X17907000D03*
X18923000D03*
X19812000D03*
X20828000D03*
X21717000D03*
X22733000D03*
X24812620D03*
X25828620D03*
X27908250D03*
X28924250D03*
X32015480D03*
X33031480D03*
X33940750D03*
X34956750D03*
X35845750D03*
X36861750D03*
X1476380Y5080000D03*
X2492380D03*
X4095750D03*
X5111750D03*
X6000750D03*
X7016750D03*
X7905750D03*
X8921750D03*
X9810750D03*
X10826750D03*
X11715750D03*
X12731750D03*
X13620750D03*
X14636750D03*
X15525750D03*
X16541750D03*
X17430750D03*
X18446750D03*
X19335750D03*
X20351750D03*
X21240750D03*
X22256750D03*
X23145750D03*
X24161750D03*
X25765120D03*
X26781120D03*
X32015480D03*
X33031480D03*
X33940750D03*
X34956750D03*
X35845750D03*
X36861750D03*
X37750750Y6032500D03*
X38766750D03*
X1238250Y6985000D03*
X2254250D03*
X3619500D03*
X4635500D03*
X5524500D03*
X6540500D03*
X7429500D03*
X8445500D03*
X9334500D03*
X10350500D03*
X11239500D03*
X12255500D03*
X13144500D03*
X14160500D03*
X15049500D03*
X16065500D03*
X16954500D03*
X17970500D03*
X18859500D03*
X19875500D03*
X20764500D03*
X21780500D03*
X22669500D03*
X23685500D03*
X24574500D03*
X25590500D03*
X26479500D03*
X27495500D03*
X32015480D03*
X33031480D03*
X33940750D03*
X34956750D03*
X35845750D03*
X36861750D03*
X762000Y8890000D03*
X1778000D03*
X2667000D03*
X3683000D03*
X4572000D03*
X5588000D03*
X6477000D03*
X7493000D03*
X8382000D03*
X9398000D03*
X10287000D03*
X11303000D03*
X12192000D03*
X13208000D03*
X14097000D03*
X15113000D03*
X16002000D03*
X17018000D03*
X17907000D03*
X18923000D03*
X19812000D03*
X20828000D03*
X21717000D03*
X22733000D03*
X23622000D03*
X24638000D03*
X26003250D03*
X27019250D03*
X32015480D03*
X33031480D03*
X33940750D03*
X34956750D03*
X35845750D03*
X36861750D03*
X37750750D03*
X38766750D03*
X762000Y10795000D03*
X1778000D03*
X2667000D03*
X3683000D03*
X4572000D03*
X5588000D03*
X6477000D03*
X7493000D03*
X8382000D03*
X9398000D03*
X10287000D03*
X11303000D03*
X12192000D03*
X13208000D03*
X14097000D03*
X15113000D03*
X16002000D03*
X17018000D03*
X17907000D03*
X18923000D03*
X19812000D03*
X20828000D03*
X21717000D03*
X22733000D03*
X23622000D03*
X24638000D03*
X26003250D03*
X27019250D03*
G54D31*
X31651270Y10276890D03*
Y13376890D03*
G54D33*
X27654250Y13493750D03*
X27908250D03*
X28162250D03*
X28416250D03*
X28670250D03*
G54D34*
X32151270Y13426870D03*
X32405270D03*
X32659270D03*
X32913270D03*
X33167270D03*
X33421270D03*
X33675270D03*
X33929270D03*
X34183270D03*
X34437270D03*
X34691270D03*
X34945270D03*
X35199270D03*
X35453270D03*
X35961270D03*
G54D27*
X1270000Y1270000D03*
X3175000D03*
X5080000D03*
X6985000D03*
X13890620D03*
X20796250D03*
X22701250D03*
X26511250D03*
X28416250D03*
X30321250D03*
X33496250D03*
X36353750D03*
X38258750Y2222500D03*
X2222500Y3175000D03*
X5080000D03*
X6985000D03*
X8890000D03*
X10795000D03*
X12700000D03*
X14605000D03*
X16510000D03*
X18415000D03*
X20320000D03*
X22225000D03*
X25320620D03*
X28416250D03*
X32523480D03*
X34448750D03*
X36353750D03*
X1984380Y5080000D03*
X4603750D03*
X6508750D03*
X8413750D03*
X10318750D03*
X12223750D03*
X14128750D03*
X16033750D03*
X17938750D03*
X19843750D03*
X21748750D03*
X23653750D03*
X26273120D03*
X32523480D03*
X34448750D03*
X36353750D03*
X38258750Y6032500D03*
X1746250Y6985000D03*
X4127500D03*
X6032500D03*
X7937500D03*
X9842500D03*
X11747500D03*
X13652500D03*
X15557500D03*
X17462500D03*
X19367500D03*
X21272500D03*
X23177500D03*
X25082500D03*
X26987500D03*
X32523480D03*
X34448750D03*
X36353750D03*
X1270000Y8890000D03*
X3175000D03*
X5080000D03*
X6985000D03*
X8890000D03*
X10795000D03*
X12700000D03*
X14605000D03*
X16510000D03*
X18415000D03*
X20320000D03*
X22225000D03*
X24130000D03*
X26511250D03*
X32523480D03*
X34448750D03*
X36353750D03*
X38258750D03*
X1270000Y10795000D03*
X3175000D03*
X5080000D03*
X6985000D03*
X8890000D03*
X10795000D03*
X12700000D03*
X14605000D03*
X16510000D03*
X18415000D03*
X20320000D03*
X22225000D03*
X24130000D03*
X26511250D03*
%LPD*%
G75*
G54D10*
X238120Y13573120D03*
X8413750Y396880D03*
X29231010Y13569520D03*
X39052500Y396880D03*
G54D11*
X762000Y1270000D03*
X1238250Y6985000D03*
X762000Y8890000D03*
Y10795000D03*
X1778000Y1270000D03*
X1714500Y3175000D03*
X1476380Y5080000D03*
X1778000Y8890000D03*
Y10795000D03*
X2667000Y1270000D03*
X2730500Y3175000D03*
X2492380Y5080000D03*
X2254250Y6985000D03*
X2667000Y8890000D03*
Y10795000D03*
X3683000Y1270000D03*
X4095750Y5080000D03*
X3619500Y6985000D03*
X3683000Y8890000D03*
Y10795000D03*
X4572000Y1270000D03*
Y3175000D03*
X4635500Y6985000D03*
X4572000Y8890000D03*
Y10795000D03*
X5588000Y1270000D03*
Y3175000D03*
X5111750Y5080000D03*
X5524500Y6985000D03*
X5588000Y8890000D03*
Y10795000D03*
X6477000Y1270000D03*
Y3175000D03*
X6000750Y5080000D03*
X6540500Y6985000D03*
X6477000Y8890000D03*
Y10795000D03*
X7016750Y5080000D03*
X7493000Y1270000D03*
Y3175000D03*
X7905750Y5080000D03*
X7429500Y6985000D03*
X7493000Y8890000D03*
Y10795000D03*
X8382000Y3175000D03*
X8445500Y6985000D03*
X8382000Y8890000D03*
Y10795000D03*
X9398000Y3175000D03*
X8921750Y5080000D03*
X9334500Y6985000D03*
X9398000Y8890000D03*
Y10795000D03*
X10287000Y3175000D03*
X9810750Y5080000D03*
X10350500Y6985000D03*
X10287000Y8890000D03*
Y10795000D03*
X10826750Y5080000D03*
X11303000Y3175000D03*
X11715750Y5080000D03*
X11239500Y6985000D03*
X11303000Y8890000D03*
Y10795000D03*
X12192000Y3175000D03*
X12255500Y6985000D03*
X12192000Y8890000D03*
Y10795000D03*
X13382620Y1270000D03*
X13208000Y3175000D03*
X12731750Y5080000D03*
X13144500Y6985000D03*
X13208000Y8890000D03*
Y10795000D03*
X14097000Y3175000D03*
X13620750Y5080000D03*
X14160500Y6985000D03*
X14097000Y8890000D03*
Y10795000D03*
X14398620Y1270000D03*
X14636750Y5080000D03*
X15113000Y3175000D03*
X15525750Y5080000D03*
X15049500Y6985000D03*
X15113000Y8890000D03*
Y10795000D03*
X16002000Y3175000D03*
X16065500Y6985000D03*
X16002000Y8890000D03*
Y10795000D03*
X17018000Y3175000D03*
X16541750Y5080000D03*
X16954500Y6985000D03*
X17018000Y8890000D03*
Y10795000D03*
X17907000Y3175000D03*
X17430750Y5080000D03*
X17907000Y8890000D03*
Y10795000D03*
X18446750Y5080000D03*
X17970500Y6985000D03*
X18923000Y3175000D03*
X19335750Y5080000D03*
X18859500Y6985000D03*
X18923000Y8890000D03*
Y10795000D03*
X19812000Y3175000D03*
X19875500Y6985000D03*
X19812000Y8890000D03*
Y10795000D03*
X20288250Y1270000D03*
X20828000Y3175000D03*
X20351750Y5080000D03*
X20764500Y6985000D03*
X20828000Y8890000D03*
Y10795000D03*
X21304250Y1270000D03*
X21240750Y5080000D03*
X22193250Y1270000D03*
X21717000Y3175000D03*
X22256750Y5080000D03*
X21780500Y6985000D03*
X21717000Y8890000D03*
Y10795000D03*
X23209250Y1270000D03*
X22733000Y3175000D03*
X23145750Y5080000D03*
X22669500Y6985000D03*
X22733000Y8890000D03*
Y10795000D03*
X23685500Y6985000D03*
X23622000Y8890000D03*
Y10795000D03*
X24161750Y5080000D03*
X24574500Y6985000D03*
X24638000Y8890000D03*
Y10795000D03*
X24812620Y3175000D03*
X26003250Y1270000D03*
X25828620Y3175000D03*
X25765120Y5080000D03*
X25590500Y6985000D03*
X26003250Y8890000D03*
Y10795000D03*
X26781120Y5080000D03*
X26479500Y6985000D03*
X27019250Y1270000D03*
X27495500Y6985000D03*
X27019250Y8890000D03*
Y10795000D03*
X27908250Y1270000D03*
Y3175000D03*
X28924250Y1270000D03*
Y3175000D03*
X29813250Y1270000D03*
X30829250D03*
X32015480Y3175000D03*
Y5080000D03*
Y6985000D03*
Y8890000D03*
X32988250Y1270000D03*
X33031480Y3175000D03*
Y5080000D03*
Y6985000D03*
Y8890000D03*
X34004250Y1270000D03*
X33940750Y3175000D03*
Y5080000D03*
Y6985000D03*
Y8890000D03*
X34956750Y3175000D03*
Y5080000D03*
Y6985000D03*
Y8890000D03*
X35845750Y1270000D03*
Y3175000D03*
Y5080000D03*
Y6985000D03*
Y8890000D03*
X36861750Y1270000D03*
Y3175000D03*
Y5080000D03*
Y6985000D03*
Y8890000D03*
X37750750Y2222500D03*
Y6032500D03*
Y8890000D03*
X38766750Y2222500D03*
Y6032500D03*
Y8890000D03*
G54D20*
X37868730Y13297990D03*
X38733750D03*
G54D12*
X1270000Y1270000D03*
Y8890000D03*
Y10795000D03*
X1984380Y5080000D03*
X1746250Y6985000D03*
X2222500Y3175000D03*
X3175000Y1270000D03*
Y8890000D03*
Y10795000D03*
X4127500Y6985000D03*
X5080000Y1270000D03*
Y3175000D03*
X4603750Y5080000D03*
X5080000Y8890000D03*
Y10795000D03*
X6508750Y5080000D03*
X6032500Y6985000D03*
X6985000Y1270000D03*
Y3175000D03*
Y8890000D03*
Y10795000D03*
X7937500Y6985000D03*
X8890000Y3175000D03*
X8413750Y5080000D03*
X8890000Y8890000D03*
Y10795000D03*
X10318750Y5080000D03*
X9842500Y6985000D03*
X10795000Y3175000D03*
Y8890000D03*
Y10795000D03*
X11747500Y6985000D03*
X12700000Y3175000D03*
X12223750Y5080000D03*
X12700000Y8890000D03*
Y10795000D03*
X13890620Y1270000D03*
X14128750Y5080000D03*
X13652500Y6985000D03*
X14605000Y3175000D03*
Y8890000D03*
Y10795000D03*
X15557500Y6985000D03*
X16510000Y3175000D03*
X16033750Y5080000D03*
X16510000Y8890000D03*
Y10795000D03*
X17938750Y5080000D03*
X17462500Y6985000D03*
X18415000Y3175000D03*
Y8890000D03*
Y10795000D03*
X19367500Y6985000D03*
X19843750Y5080000D03*
X20796250Y1270000D03*
X20320000Y3175000D03*
Y8890000D03*
Y10795000D03*
X21748750Y5080000D03*
X21272500Y6985000D03*
X22225000Y3175000D03*
Y8890000D03*
Y10795000D03*
X22701250Y1270000D03*
X23177500Y6985000D03*
X23653750Y5080000D03*
X24130000Y8890000D03*
Y10795000D03*
X25320620Y3175000D03*
X25082500Y6985000D03*
X26273120Y5080000D03*
X26511250Y1270000D03*
X26987500Y6985000D03*
X26511250Y8890000D03*
Y10795000D03*
X28416250Y1270000D03*
Y3175000D03*
X30321250Y1270000D03*
X32523480Y3175000D03*
Y5080000D03*
Y6985000D03*
Y8890000D03*
X33496250Y1270000D03*
X34448750Y3175000D03*
Y5080000D03*
Y6985000D03*
Y8890000D03*
X36353750Y1270000D03*
Y3175000D03*
Y5080000D03*
Y6985000D03*
Y8890000D03*
X38258750Y2222500D03*
Y6032500D03*
Y8890000D03*
G54D21*
X37868730Y13635990D03*
X38733750D03*
G54D13*
X889000Y1524000D03*
X1365250Y7239000D03*
X889000Y9144000D03*
Y11049000D03*
X1524000Y1778000D03*
X1841500Y3429000D03*
X1603380Y5334000D03*
X2000250Y7493000D03*
X1524000Y9398000D03*
Y11303000D03*
X2794000Y1524000D03*
X2476500Y3683000D03*
X2238380Y5588000D03*
X2794000Y9144000D03*
Y11049000D03*
X3429000Y1778000D03*
Y9398000D03*
Y11303000D03*
X4222750Y5334000D03*
X3746500Y7239000D03*
X4381500Y7493000D03*
X4699000Y1524000D03*
Y3429000D03*
X4857750Y5588000D03*
X4699000Y9144000D03*
Y11049000D03*
X5334000Y1778000D03*
Y3683000D03*
X5651500Y7239000D03*
X5334000Y9398000D03*
Y11303000D03*
X6604000Y1524000D03*
Y3429000D03*
X6127750Y5334000D03*
X6286500Y7493000D03*
X6604000Y9144000D03*
Y11049000D03*
X7239000Y1778000D03*
Y3683000D03*
X6762750Y5588000D03*
X7239000Y9398000D03*
Y11303000D03*
X8032750Y5334000D03*
X7556500Y7239000D03*
X8509000Y3429000D03*
X8667750Y5588000D03*
X8191500Y7493000D03*
X8509000Y9144000D03*
Y11049000D03*
X9144000Y3683000D03*
X9461500Y7239000D03*
X9144000Y9398000D03*
Y11303000D03*
X10414000Y3429000D03*
X9937750Y5334000D03*
X10096500Y7493000D03*
X10414000Y9144000D03*
Y11049000D03*
X11049000Y3683000D03*
X10572750Y5588000D03*
X11049000Y9398000D03*
Y11303000D03*
X11842750Y5334000D03*
X11366500Y7239000D03*
X12319000Y3429000D03*
X12477750Y5588000D03*
X12001500Y7493000D03*
X12319000Y9144000D03*
Y11049000D03*
X12954000Y3683000D03*
X13271500Y7239000D03*
X12954000Y9398000D03*
Y11303000D03*
X13509620Y1524000D03*
X14144620Y1778000D03*
X13747750Y5334000D03*
X13906500Y7493000D03*
X14224000Y3429000D03*
X14859000Y3683000D03*
X14382750Y5588000D03*
X14224000Y9144000D03*
X14859000Y9398000D03*
X14224000Y11049000D03*
X14859000Y11303000D03*
X15652750Y5334000D03*
X15176500Y7239000D03*
X16129000Y3429000D03*
X16287750Y5588000D03*
X15811500Y7493000D03*
X16129000Y9144000D03*
Y11049000D03*
X16764000Y3683000D03*
X17081500Y7239000D03*
X16764000Y9398000D03*
Y11303000D03*
X17557750Y5334000D03*
X17716500Y7493000D03*
X18034000Y3429000D03*
X18669000Y3683000D03*
X18192750Y5588000D03*
X18034000Y9144000D03*
X18669000Y9398000D03*
X18034000Y11049000D03*
X18669000Y11303000D03*
X19462750Y5334000D03*
X18986500Y7239000D03*
X19939000Y3429000D03*
X20097750Y5588000D03*
X19621500Y7493000D03*
X19939000Y9144000D03*
Y11049000D03*
X20415250Y1524000D03*
X20574000Y3683000D03*
X20891500Y7239000D03*
X20574000Y9398000D03*
Y11303000D03*
X21050250Y1778000D03*
X21367750Y5334000D03*
X21526500Y7493000D03*
X22320250Y1524000D03*
X21844000Y3429000D03*
X22479000Y3683000D03*
X22002750Y5588000D03*
X21844000Y9144000D03*
X22479000Y9398000D03*
X21844000Y11049000D03*
X22479000Y11303000D03*
X22955250Y1778000D03*
X22796500Y7239000D03*
X23272750Y5334000D03*
X23907750Y5588000D03*
X23431500Y7493000D03*
X23749000Y9144000D03*
Y11049000D03*
X24701500Y7239000D03*
X24384000Y9398000D03*
Y11303000D03*
X24939620Y3429000D03*
X25336500Y7493000D03*
X26130250Y1524000D03*
X25574620Y3683000D03*
X25892120Y5334000D03*
X26130250Y9144000D03*
Y11049000D03*
X26765250Y1778000D03*
X26527120Y5588000D03*
X26606500Y7239000D03*
X26765250Y9398000D03*
Y11303000D03*
X27241500Y7493000D03*
X28035250Y1524000D03*
Y3429000D03*
X28670250Y1778000D03*
Y3683000D03*
X29940250Y1524000D03*
X30575250Y1778000D03*
X32142480Y3429000D03*
Y5334000D03*
Y7239000D03*
Y9144000D03*
X32777480Y3683000D03*
Y5588000D03*
Y7493000D03*
Y9398000D03*
X33115250Y1524000D03*
X33750250Y1778000D03*
X34067750Y3429000D03*
Y5334000D03*
Y7239000D03*
Y9144000D03*
X34702750Y3683000D03*
Y5588000D03*
Y7493000D03*
Y9398000D03*
X35972750Y1524000D03*
Y3429000D03*
Y5334000D03*
Y7239000D03*
Y9144000D03*
X36607750Y1778000D03*
Y3683000D03*
Y5588000D03*
Y7493000D03*
Y9398000D03*
X37877750Y2476500D03*
Y6286500D03*
Y9144000D03*
X38512750Y2730500D03*
Y6540500D03*
Y9398000D03*
G54D22*
X38173730Y13335000D03*
X38088740D03*
X38003730D03*
X38088740Y13200000D03*
X38173730D03*
X38003730D03*
X38513740Y13335000D03*
X38428750D03*
X38343730D03*
X38258750D03*
X38598750D03*
X38258750Y13200000D03*
X38343730D03*
X38428750D03*
X38513740D03*
X38598750D03*
G54D14*
X1094360Y12710290D03*
X1555210Y12112740D03*
X2080250Y12449920D03*
X3364230Y12112740D03*
X2901620Y12710290D03*
X4018460Y12449920D03*
X4904360Y12710290D03*
X5366640Y12112740D03*
X5839470Y12385590D03*
X7192290Y12112740D03*
X6729980Y12710290D03*
X7665090Y12385590D03*
X8818950Y12710290D03*
X9281230Y12112740D03*
X9935790Y12308510D03*
X11690220Y12112740D03*
X11227940Y12710290D03*
X12163060Y12385580D03*
X13861330Y12112740D03*
X13399050Y12710290D03*
X14315680Y12472580D03*
X15297400Y12710290D03*
X15759680Y12134320D03*
X16203040Y12472580D03*
X16967990Y12710290D03*
X17430270Y12138090D03*
X17867230Y12462660D03*
X19249010Y12136140D03*
X18786730Y12710290D03*
X19778720Y12462660D03*
X20514810Y12710290D03*
X20977090Y12112740D03*
X21439330Y12462660D03*
X22200070Y12710290D03*
X22662350Y12132200D03*
X23214930Y12462660D03*
X23749250Y12710290D03*
X24211530Y12136420D03*
X24684370Y12462660D03*
X25439950Y12710290D03*
X25902230Y12135130D03*
X26375070Y12385580D03*
X26433540Y13018320D03*
X26798970Y12508160D03*
X27147960Y9446220D03*
X27442030Y12134060D03*
X27227340Y13018320D03*
X28418040Y10240020D03*
X27974820Y12383280D03*
X28894320Y11033820D03*
X29099130Y12137380D03*
X28636850Y12710290D03*
X29291220Y11065560D03*
X29571970Y12385590D03*
X30720060Y11430720D03*
X30402540Y11202890D03*
X30300560Y11063710D03*
X30306350Y10911330D03*
X30479040Y12856680D03*
X30704200Y13683180D03*
X32942700Y10795680D03*
X33736500Y9763740D03*
X33230620Y10300240D03*
X33498360Y11351340D03*
X33101460Y12145140D03*
X33548070Y12747620D03*
X34212780Y10240020D03*
X34371540D03*
X34026940Y10456400D03*
X34371540Y10636920D03*
X33863520Y10169530D03*
X33811680Y11330610D03*
X33928670Y10937390D03*
X34133400Y11351340D03*
X34307290Y11108870D03*
X35085960Y11192580D03*
X35244720Y11589480D03*
X35085960Y12145140D03*
Y12859560D03*
X35959140Y6271020D03*
X35721000Y11033820D03*
X35641620Y11113200D03*
X36181740Y2604000D03*
X36038520Y12780180D03*
X37467360Y10240020D03*
X37387980Y10875060D03*
X37229220D03*
X37308600Y12859560D03*
X37927990Y4747150D03*
X37864260Y8255520D03*
Y10319400D03*
X38102400Y12141420D03*
X37943640Y12780180D03*
X38658060Y11113200D03*
X39051850Y10685660D03*
X39183750Y10785360D03*
X39293100Y11510100D03*
X39054960Y12938940D03*
G54D23*
X38465660Y12339380D03*
X38749360Y11981880D03*
Y12176880D03*
Y11851880D03*
Y11916880D03*
X38529360Y12306880D03*
X38465660Y12274380D03*
X38529360Y12241880D03*
X38465660Y12209380D03*
X38529360Y12176880D03*
X38465660Y12144380D03*
Y12079380D03*
X38749360Y12046880D03*
X38529360D03*
X38465660Y12014380D03*
X38529360Y11981880D03*
X38606860Y12306880D03*
X38814360Y12339380D03*
X38749360Y12306880D03*
Y12241880D03*
X38814360Y12014380D03*
Y12079380D03*
Y12144380D03*
X38485660Y11730680D03*
X38794360D03*
X38889360Y11710680D03*
X38529360Y12111880D03*
X38704360Y11710680D03*
X38465660Y11949380D03*
X38529360Y11916880D03*
X38465660Y11884380D03*
Y11819380D03*
X38529360Y11851880D03*
X38606860Y12111880D03*
Y12176880D03*
Y12241880D03*
X38749360Y12111880D03*
X38574360Y12448080D03*
X38639360D03*
X38485660Y12428080D03*
X38794360D03*
X38889360Y12448080D03*
X38989360Y11710680D03*
X39089360D03*
X39183060Y11730680D03*
X39203060Y11829380D03*
Y11929380D03*
Y12029380D03*
Y12129380D03*
Y12229380D03*
Y12329380D03*
X39183060Y12428080D03*
X39089360Y12448080D03*
X38989360D03*
G54D24*
G01X238120Y13355320D02*
Y13573120D01*
G01D02*
X455920D01*
G01X8413750Y396880D02*
Y614680D01*
G01X8195950Y396880D02*
X8413750D01*
G01D02*
X8631550D01*
G01X27571450Y13493750D02*
X27654250D01*
G01Y13410950D02*
Y13493750D01*
G01D02*
Y13576550D01*
G01Y13493750D02*
X27737050D01*
G01X29013210Y13569520D02*
X29231010D01*
G01Y13351720D02*
Y13569520D01*
G01D02*
X29448810D01*
G01X32151270Y13339070D02*
Y13426870D01*
G01D02*
Y13514670D01*
G01X32063470Y13426870D02*
X32151270D01*
G01D02*
X32239070D01*
G01X37868730Y13160190D02*
Y13297990D01*
G01D02*
Y13435790D01*
G01X37805930Y13297990D02*
X37868730D01*
G01D02*
X37931530D01*
G01X37868730Y13533190D02*
Y13635990D01*
G01X37805930D02*
X37868730D01*
G01D02*
X37931530D01*
G01X38003730Y13284700D02*
Y13335000D01*
G01D02*
Y13385300D01*
G01X37953430Y13335000D02*
X38003730D01*
G01Y13149700D02*
Y13200000D01*
G01D02*
Y13250300D01*
G01X37953430Y13200000D02*
X38003730D01*
G01X38834700Y396880D02*
X39052500D01*
G01X38733750Y13533190D02*
Y13635990D01*
G01X38670950D02*
X38733750D01*
G01D02*
X38796550D01*
G01X38733750Y13160190D02*
Y13297990D01*
G01D02*
Y13435790D01*
G01X38670950Y13297990D02*
X38733750D01*
G01D02*
X38796550D01*
G01X38598750Y13284700D02*
Y13335000D01*
G01D02*
Y13385300D01*
G01Y13335000D02*
X38649050D01*
G01X38598750Y13149700D02*
Y13200000D01*
G01D02*
Y13250300D01*
G01Y13200000D02*
X38649050D01*
G01X39052500Y396880D02*
Y614680D01*
G54D15*
X27654250Y13493750D03*
X27908250D03*
X28162250D03*
X28416250D03*
X28670250D03*
G54D25*
G01X27227340Y13018320D02*
X27386100Y12859560D01*
X29218840D01*
X29933260Y12145140D01*
X32704560D01*
X33498360Y11351340D01*
G01X34371540Y10240020D02*
Y10173340D01*
X34358840Y10160640D01*
X34146100D01*
X34133400Y10173340D01*
Y10824820D01*
X33959220Y10999000D01*
X33668470D01*
X33628670Y11038800D01*
Y11338640D01*
X33615970Y11351340D01*
X33498360D01*
G01X35707270Y13426870D02*
X35959140Y13175000D01*
Y12054310D01*
X35244720Y11339890D01*
Y11113200D01*
X34768440Y10636920D01*
X34371540D01*
G01X38737440Y11589480D02*
X38975580D01*
X38989360Y11603260D01*
Y11710680D01*
G01X38737440Y11510100D02*
X39054960D01*
X39089360Y11544500D01*
Y11710680D01*
G01X38737440Y11430720D02*
X39134340D01*
X39183060Y11479440D01*
Y11730680D01*
G01X38783850Y11621450D02*
X38873420D01*
X38889360Y11637390D01*
Y11710680D01*
G01X38775540Y12689330D02*
X38898350Y12566520D01*
Y12544190D01*
X38889360Y12535200D01*
Y12448080D01*
G01X39230610Y11829380D02*
X39239030D01*
X39251730Y11816680D01*
Y11743380D01*
X39239030Y11730680D01*
X39183060D01*
G01X39230610Y11829380D02*
X39203060D01*
G01X39230610D02*
X39252820Y11851590D01*
Y11916680D01*
X39240120Y11929380D01*
X39226480D01*
G01D02*
X39203060D01*
G01X39226480D02*
X39254720Y11957620D01*
Y12008680D01*
X39234020Y12029380D01*
G01D02*
X39203060D01*
G01X39234020D02*
X39245900D01*
X39258600Y12042080D01*
Y12092180D01*
X39245900Y12104880D01*
X39227560D01*
X39203060Y12129380D01*
G01D02*
X39236400D01*
X39258250Y12151230D01*
Y12211680D01*
X39240550Y12229380D01*
X39216850D01*
G01D02*
X39203060D01*
G01X39216850D02*
X39248830Y12261360D01*
Y12320390D01*
X39239840Y12329380D01*
X39220010D01*
G01D02*
X39203060D01*
G01X39220010D02*
X39241950Y12351320D01*
Y12416640D01*
X39230510Y12428080D01*
X39183060D01*
G01X39089360Y12448080D02*
Y12759580D01*
G01X38975580Y12780180D02*
X38989360Y12766400D01*
G01D02*
Y12448080D01*
G54D16*
X28656180Y10827420D03*
X29132460Y10636920D03*
X28494250Y11036990D03*
X29688120Y10064440D03*
X38914110Y11992700D03*
G54D17*
X29291220Y11192580D03*
G54D18*
X31651270Y10276890D03*
Y13376890D03*
X39151260Y10276890D03*
Y13376890D03*
G54D19*
X32151270Y13426870D03*
X32405270D03*
X32659270D03*
X32913270D03*
X33167270D03*
X33421270D03*
X33675270D03*
X33929270D03*
X34183270D03*
X34437270D03*
X34691270D03*
X34945270D03*
X35199270D03*
X35453270D03*
X35707270D03*
X35961270D03*
M02*
