G04 ================== begin FILE IDENTIFICATION RECORD ==================*
G04 Layout Name:  CustomKeyboard.brd*
G04 Film Name:    POWER*
G04 File Format:  Gerber RS274X*
G04 File Origin:  Cadence Allegro 25.1-P001*
G04 Origin Date:  Sun Feb  8 22:26:49 2026*
G04 *
G04 Layer:  VIA CLASS/POWER*
G04 Layer:  PIN/POWER*
G04 Layer:  ETCH/POWER*
G04 *
G04 Offset:    (0.0000 0.0000)*
G04 Mirror:    No*
G04 Mode:      Positive*
G04 Rotation:  0*
G04 FullContactRelief:  No*
G04 UndefLineWidth:     0.1524*
G04 ================== end FILE IDENTIFICATION RECORD ====================*
%FSLAX35Y35*MOMM*%
%IR0*IPPOS*OFA0.00000B0.00000*MIA0B0*SFA1.00000B1.00000*%
%ADD23C,.22*%
%ADD16C,.4*%
%ADD22C,.65*%
%ADD14C,.762*%
%ADD20O,.8999X2.4*%
%ADD21O,.8999X1.7*%
%ADD15C,1.3*%
%ADD10C,4.*%
%ADD19C,1.4*%
%ADD18C,2.5001*%
%ADD11C,1.7018*%
%ADD13C,2.286*%
%ADD17C,1.5199*%
%ADD12C,3.9878*%
%ADD24C,.2032*%
%ADD25C,.127*%
%ADD32C,.4744*%
%ADD30C,.6544*%
%ADD29C,1.0164*%
%ADD28C,2.5404*%
%ADD26C,2.1086*%
%ADD31C,2.907*%
%ADD33C,1.5544*%
%ADD34C,1.6544*%
%ADD27C,4.3946*%
G75*
%LPD*%
G75*
G36*
G01X30204240Y13766800D02*
X39325550D01*
Y8137990D01*
X39321160Y8137390D01*
G03Y7420110I48847J-358640D01*
G01X39325550Y7419510D01*
Y4645490D01*
X39321160Y4644890D01*
G03Y3927610I48847J-358640D01*
G01X39325550Y3927010D01*
Y203200D01*
X39178970D01*
G02X39173210Y221730I2J10161D01*
G03X39265220Y396880I-120703J175150D01*
G03X38839780I-212720J0D01*
G03X38931790Y221730I212713J0D01*
G02X38926030Y203200I-5762J-8369D01*
G01X31474240D01*
X31473640Y207590D01*
G03X30756360I-358640J-48847D01*
G01X30755760Y203200D01*
X22107990D01*
X22107390Y207590D01*
G03X21390110I-358640J-48847D01*
G01X21389510Y203200D01*
X11789240D01*
X11788640Y207590D01*
G03X11071360I-358640J-48847D01*
G01X11070760Y203200D01*
X8540220D01*
G02X8534460Y221730I2J10161D01*
G03X8626470Y396880I-120703J175150D01*
G03X8201030I-212720J0D01*
G03X8293040Y221730I212713J0D01*
G02X8287280Y203200I-5762J-8369D01*
G01X2899240D01*
X2898640Y207590D01*
G03X2181360I-358640J-48847D01*
G01X2180760Y203200D01*
X44450D01*
Y2180760D01*
X48840Y2181360D01*
G03Y2898640I-48847J358640D01*
G01X44450Y2899240D01*
Y7260760D01*
X48840Y7261360D01*
G03Y7978640I-48847J358640D01*
G01X44450Y7979240D01*
Y9800760D01*
X48840Y9801360D01*
G03Y10518640I-48847J358640D01*
G01X44450Y10519240D01*
Y13446630D01*
G02X62970Y13452400I10159J0D01*
G03X238120Y13360400I175150J120726D01*
G03X450840Y13573120I0J212720D01*
G03X358830Y13748270I-212713J0D01*
G02X364590Y13766800I5762J8369D01*
G01X2339510D01*
X2340110Y13762410D01*
G03X3057390I358640J48847D01*
G01X3057990Y13766800D01*
X11705760D01*
X11706360Y13762410D01*
G03X12423640I358640J48847D01*
G01X12424240Y13766800D01*
X20119510D01*
X20120110Y13762410D01*
G03X20837390I358640J48847D01*
G01X20837990Y13766800D01*
X29109930D01*
G02X29115450Y13748110I-2J-10161D01*
G03X29018290Y13569520I115553J-178590D01*
G03X29443730I212720J0D01*
G03X29346570Y13748110I-212713J0D01*
G02X29352090Y13766800I5522J8529D01*
G01X29485760D01*
X29486360Y13762410D01*
G03X30203640I358640J48847D01*
G01X30204240Y13766800D01*
G37*
%LPC*%
G75*
G36*
G01X38676040Y13595980D02*
Y13676000D01*
G02X38791460I57710J-5D01*
G01Y13595980D01*
G02X38676040I-57710J5D01*
G37*
G36*
G01Y13222980D02*
Y13373000D01*
G02X38791460I57710J-5D01*
G01Y13222980D01*
G02X38676040I-57710J5D01*
G37*
G36*
G01X37811020Y13595980D02*
Y13676000D01*
G02X37926440I57710J-5D01*
G01Y13595980D01*
G02X37811020I-57710J5D01*
G37*
G36*
G01Y13222980D02*
Y13373000D01*
G02X37926440I57710J-5D01*
G01Y13222980D01*
G02X37811020I-57710J5D01*
G37*
G36*
G01X29252620Y11098610D02*
G03X29249660Y11114200I-7718J6611D01*
G02X29202500Y11192580I41554J78380D01*
G02X29379940I88720J0D01*
G02X29332780Y11114200I-88714J0D01*
G03X29329820Y11098610I4758J-8979D01*
G02X29342040Y11065560I-38598J-33055D01*
G02X29240400I-50820J0D01*
G02X29252620Y11098610I50818J-5D01*
G37*
G36*
G01X26414470Y12439090D02*
Y12971210D01*
G02X26382720Y13018320I19075J47110D01*
G02X26484360I50820J0D01*
G02X26452610Y12971210I-50825J0D01*
G01Y12391180D01*
X26716670Y12127120D01*
X27105670D01*
G02X27119150Y12121530I-8J-19067D01*
G01X27320200Y11920480D01*
G02X27325790Y11907000I-13477J-13488D01*
G01Y10486060D01*
X27552760Y10259090D01*
X28370930D01*
G02X28418040Y10290840I47110J-19075D01*
G02X28468860Y10240020I0J-50820D01*
G02X28465970Y10223140I-50818J13D01*
G01X28464910Y10220120D01*
X28505320Y10179710D01*
X29203940D01*
X29277740Y10253500D01*
G02X29291220Y10259090I13488J-13477D01*
G01X29505500D01*
X29658680Y10412260D01*
G02X29672160Y10417850I13488J-13477D01*
G01X31347200D01*
X31500380Y10571020D01*
G02X31513860Y10576610I13488J-13477D01*
G01X32696660D01*
X32895830Y10775780D01*
X32894770Y10778800D01*
G02X32891880Y10795680I47928J16893D01*
G02X32942700Y10744860I50820J0D01*
G02X32925820Y10747750I13J50818D01*
G01X32922800Y10748810D01*
X32718040Y10544060D01*
G02X32704560Y10538470I-13488J13477D01*
G01X31521760D01*
X31368580Y10385300D01*
G02X31355100Y10379710I-13488J13477D01*
G01X29680060D01*
X29526880Y10226540D01*
G02X29513400Y10220950I-13488J13477D01*
G01X29299120D01*
X29225320Y10147160D01*
G02X29211840Y10141570I-13488J13477D01*
G01X28497420D01*
G02X28483940Y10147160I8J19067D01*
G01X28437940Y10193150D01*
X28434920Y10192090D01*
G02X28418040Y10189200I-16893J47928D01*
G02X28370930Y10220950I0J50825D01*
G01X27544860D01*
G02X27531380Y10226540I8J19067D01*
G01X27293240Y10464680D01*
G02X27287650Y10478160I13477J13488D01*
G01Y11899100D01*
X27097770Y12088980D01*
X26708770D01*
G02X26695290Y12094570I8J19067D01*
G01X26432150Y12357700D01*
G03X26416650Y12356360I-7187J-7180D01*
G02X26375070Y12334760I-41580J29221D01*
G02Y12436400I0J50820D01*
G02X26399440Y12430180I7J-50822D01*
G03X26414470Y12439090I4872J8914D01*
G37*
G36*
G01X38463450Y13229000D02*
G03X38479040I7795J6512D01*
G02X38513740Y13245220I34700J-29007D01*
G02X38548450Y13228990I0J-45231D01*
G03X38564040I7795J6510D01*
G02X38598750Y13245220I34710J-29001D01*
G02Y13154780I0J-45220D01*
G02X38564040Y13171010I0J45231D01*
G03X38548450I-7795J-6510D01*
G02X38513740Y13154780I-34710J29001D01*
G02X38479040Y13171000I0J45227D01*
G03X38463450I-7795J-6512D01*
G02X38428750Y13154780I-34700J29007D01*
G02X38394040Y13171020I0J45213D01*
G03X38378440I-7800J-6514D01*
G02X38343730Y13154780I-34710J28973D01*
G02X38309040Y13171000I0J45206D01*
G03X38293440I-7800J-6518D01*
G02X38258750Y13154780I-34690J28986D01*
G02X38224040Y13171020I0J45213D01*
G03X38208440I-7800J-6514D01*
G02X38173730Y13154780I-34710J28973D01*
G02X38139030Y13171000I0J45227D01*
G03X38123440I-7795J-6512D01*
G02X38088740Y13154780I-34700J29007D01*
G02X38054030Y13171010I0J45231D01*
G03X38038440I-7795J-6510D01*
G02X38003730Y13154780I-34710J29001D01*
G02Y13245220I0J45220D01*
G02X38038440Y13228990I0J-45231D01*
G03X38054030I7795J6510D01*
G02X38088740Y13245220I34710J-29001D01*
G02X38123440Y13229000I0J-45227D01*
G03X38139030I7795J6512D01*
G02X38173730Y13245220I34700J-29007D01*
G02X38208440Y13228980I0J-45213D01*
G03X38224040I7800J6514D01*
G02X38258750Y13245220I34710J-28973D01*
G02X38293440Y13229000I0J-45206D01*
G03X38309040I7800J6518D01*
G02X38343730Y13245220I34690J-28986D01*
G02X38378440Y13228980I0J-45213D01*
G03X38394040I7800J6514D01*
G02X38428750Y13245220I34710J-28973D01*
G02X38463450Y13229000I0J-45227D01*
G37*
G36*
G01Y13364000D02*
G03X38479040I7795J6512D01*
G02X38513740Y13380220I34700J-29007D01*
G02X38548450Y13363990I0J-45231D01*
G03X38564040I7795J6510D01*
G02X38598750Y13380220I34710J-29001D01*
G02Y13289780I0J-45220D01*
G02X38564040Y13306010I0J45231D01*
G03X38548450I-7795J-6510D01*
G02X38513740Y13289780I-34710J29001D01*
G02X38479040Y13306000I0J45227D01*
G03X38463450I-7795J-6512D01*
G02X38428750Y13289780I-34700J29007D01*
G02X38394040Y13306020I0J45213D01*
G03X38378440I-7800J-6514D01*
G02X38343730Y13289780I-34710J28973D01*
G02X38309040Y13306000I0J45206D01*
G03X38293440I-7800J-6518D01*
G02X38258750Y13289780I-34690J28986D01*
G02X38224040Y13306020I0J45213D01*
G03X38208440I-7800J-6514D01*
G02X38173730Y13289780I-34710J28973D01*
G02X38139030Y13306000I0J45227D01*
G03X38123440I-7795J-6512D01*
G02X38088740Y13289780I-34700J29007D01*
G02X38054030Y13306010I0J45231D01*
G03X38038440I-7795J-6510D01*
G02X38003730Y13289780I-34710J29001D01*
G02Y13380220I0J45220D01*
G02X38038440Y13363990I0J-45231D01*
G03X38054030I7795J6510D01*
G02X38088740Y13380220I34710J-29001D01*
G02X38123440Y13364000I0J-45227D01*
G03X38139030I7795J6512D01*
G02X38173730Y13380220I34700J-29007D01*
G02X38208440Y13363980I0J-45213D01*
G03X38224040I7800J6514D01*
G02X38258750Y13380220I34710J-28973D01*
G02X38293440Y13364000I0J-45206D01*
G03X38309040I7800J6518D01*
G02X38343730Y13380220I34690J-28986D01*
G02X38378440Y13363980I0J-45213D01*
G03X38394040I7800J6514D01*
G02X38428750Y13380220I34710J-28973D01*
G02X38463450Y13364000I0J-45227D01*
G37*
G54D32*
X38465660Y12339380D03*
X38749360Y11981880D03*
Y12176880D03*
Y11851880D03*
Y11916880D03*
X38529360Y12306880D03*
X38465660Y12274380D03*
X38529360Y12241880D03*
X38465660Y12209380D03*
X38529360Y12176880D03*
X38465660Y12144380D03*
Y12079380D03*
X38749360Y12046880D03*
X38529360D03*
X38465660Y12014380D03*
X38529360Y11981880D03*
X38606860Y12306880D03*
X38814360Y12339380D03*
X38749360Y12306880D03*
Y12241880D03*
X38814360Y12014380D03*
Y12079380D03*
Y12144380D03*
X38485660Y11730680D03*
X38794360D03*
X38889360Y11710680D03*
X38529360Y12111880D03*
X38704360Y11710680D03*
X38465660Y11949380D03*
X38529360Y11916880D03*
X38465660Y11884380D03*
Y11819380D03*
X38529360Y11851880D03*
X38606860Y12111880D03*
Y12176880D03*
Y12241880D03*
X38749360Y12111880D03*
X38989360Y11710680D03*
X39089360D03*
X39183060Y11730680D03*
X39203060Y11829380D03*
Y11929380D03*
Y12029380D03*
Y12129380D03*
Y12229380D03*
Y12329380D03*
X38574360Y12448080D03*
X38639360D03*
X38485660Y12428080D03*
X38794360D03*
X38889360Y12448080D03*
X39183060Y12428080D03*
X39089360Y12448080D03*
X38989360D03*
G54D30*
X29132460Y10636920D03*
X28494250Y11036990D03*
G54D29*
X36181740Y2604000D03*
X37927990Y4747150D03*
X35959140Y6271020D03*
X37864260Y8255520D03*
X27147960Y9446220D03*
X33736500Y9763740D03*
X33230620Y10300240D03*
X34212780Y10240020D03*
X34371540D03*
X34026940Y10456400D03*
X34371540Y10636920D03*
X33863520Y10169530D03*
X37467360Y10240020D03*
X37387980Y10875060D03*
X37229220D03*
X37864260Y10319400D03*
X39183750Y10785360D03*
X28894320Y11033820D03*
X30306350Y10911330D03*
X30300560Y11063710D03*
X30402540Y11202890D03*
X33498360Y11351340D03*
X33811680Y11330610D03*
X33928670Y10937390D03*
X34133400Y11351340D03*
X34307290Y11108870D03*
X35085960Y11192580D03*
X35244720Y11589480D03*
X35721000Y11033820D03*
X35641620Y11113200D03*
X38658060D03*
X5839470Y12385590D03*
X7665090D03*
X9281230Y12112740D03*
X9935790Y12308510D03*
X12163060Y12385580D03*
X13861330Y12112740D03*
X15759680Y12134320D03*
X17430270Y12138090D03*
X19249010Y12136140D03*
X20977090Y12112740D03*
X22662350Y12132200D03*
X24211530Y12136420D03*
X25902230Y12135130D03*
X27442030Y12134060D03*
X27974820Y12383280D03*
X29099130Y12137380D03*
X29571970Y12385590D03*
X33101460Y12145140D03*
X35085960D03*
X38102400Y12141420D03*
X1094360Y12710290D03*
X2080250Y12449920D03*
X2901620Y12710290D03*
X4018460Y12449920D03*
X4904360Y12710290D03*
X6729980D03*
X8818950D03*
X11227940D03*
X13399050D03*
X14315680Y12472580D03*
X15297400Y12710290D03*
X16203040Y12472580D03*
X16967990Y12710290D03*
X17867230Y12462660D03*
X18786730Y12710290D03*
X19778720Y12462660D03*
X20514810Y12710290D03*
X21439330Y12462660D03*
X22200070Y12710290D03*
X23214930Y12462660D03*
X23749250Y12710290D03*
X24684370Y12462660D03*
X25439950Y12710290D03*
X26798970Y12508160D03*
X27227340Y13018320D03*
X28636850Y12710290D03*
X30479040Y12856680D03*
X33548070Y12747620D03*
X35085960Y12859560D03*
X36038520Y12780180D03*
X37943640D03*
X39054960Y12938940D03*
X30704200Y13683180D03*
G54D28*
X889000Y1524000D03*
X1524000Y1778000D03*
X2794000Y1524000D03*
X3429000Y1778000D03*
X4699000Y1524000D03*
X5334000Y1778000D03*
X6604000Y1524000D03*
X7239000Y1778000D03*
X13509620Y1524000D03*
X14144620Y1778000D03*
X20415250Y1524000D03*
X21050250Y1778000D03*
X22320250Y1524000D03*
X22955250Y1778000D03*
X26130250Y1524000D03*
X26765250Y1778000D03*
X28035250Y1524000D03*
X28670250Y1778000D03*
X29940250Y1524000D03*
X30575250Y1778000D03*
X33115250Y1524000D03*
X33750250Y1778000D03*
X35972750Y1524000D03*
X36607750Y1778000D03*
X37877750Y2476500D03*
X1841500Y3429000D03*
X4699000D03*
X6604000D03*
X8509000D03*
X10414000D03*
X12319000D03*
X14224000D03*
X16129000D03*
X18034000D03*
X19939000D03*
X21844000D03*
X24939620D03*
X28035250D03*
X32142480D03*
X34067750D03*
X35972750D03*
X38512750Y2730500D03*
X2476500Y3683000D03*
X5334000D03*
X7239000D03*
X9144000D03*
X11049000D03*
X12954000D03*
X14859000D03*
X16764000D03*
X18669000D03*
X20574000D03*
X22479000D03*
X25574620D03*
X28670250D03*
X32777480D03*
X34702750D03*
X36607750D03*
X1603380Y5334000D03*
X2238380Y5588000D03*
X4222750Y5334000D03*
X4857750Y5588000D03*
X6127750Y5334000D03*
X6762750Y5588000D03*
X8032750Y5334000D03*
X8667750Y5588000D03*
X9937750Y5334000D03*
X10572750Y5588000D03*
X11842750Y5334000D03*
X12477750Y5588000D03*
X13747750Y5334000D03*
X14382750Y5588000D03*
X15652750Y5334000D03*
X16287750Y5588000D03*
X17557750Y5334000D03*
X18192750Y5588000D03*
X19462750Y5334000D03*
X20097750Y5588000D03*
X21367750Y5334000D03*
X22002750Y5588000D03*
X23272750Y5334000D03*
X23907750Y5588000D03*
X25892120Y5334000D03*
X26527120Y5588000D03*
X32142480Y5334000D03*
X32777480Y5588000D03*
X34067750Y5334000D03*
X34702750Y5588000D03*
X35972750Y5334000D03*
X36607750Y5588000D03*
X37877750Y6286500D03*
X38512750Y6540500D03*
X1365250Y7239000D03*
X2000250Y7493000D03*
X3746500Y7239000D03*
X4381500Y7493000D03*
X5651500Y7239000D03*
X6286500Y7493000D03*
X7556500Y7239000D03*
X8191500Y7493000D03*
X9461500Y7239000D03*
X10096500Y7493000D03*
X11366500Y7239000D03*
X12001500Y7493000D03*
X13271500Y7239000D03*
X13906500Y7493000D03*
X15176500Y7239000D03*
X15811500Y7493000D03*
X17081500Y7239000D03*
X17716500Y7493000D03*
X18986500Y7239000D03*
X19621500Y7493000D03*
X20891500Y7239000D03*
X21526500Y7493000D03*
X22796500Y7239000D03*
X23431500Y7493000D03*
X24701500Y7239000D03*
X25336500Y7493000D03*
X26606500Y7239000D03*
X27241500Y7493000D03*
X32142480Y7239000D03*
X32777480Y7493000D03*
X34067750Y7239000D03*
X34702750Y7493000D03*
X35972750Y7239000D03*
X36607750Y7493000D03*
X889000Y9144000D03*
X1524000Y9398000D03*
X2794000Y9144000D03*
X3429000Y9398000D03*
X4699000Y9144000D03*
X5334000Y9398000D03*
X6604000Y9144000D03*
X7239000Y9398000D03*
X8509000Y9144000D03*
X9144000Y9398000D03*
X10414000Y9144000D03*
X11049000Y9398000D03*
X12319000Y9144000D03*
X12954000Y9398000D03*
X14224000Y9144000D03*
X14859000Y9398000D03*
X16129000Y9144000D03*
X16764000Y9398000D03*
X18034000Y9144000D03*
X18669000Y9398000D03*
X19939000Y9144000D03*
X20574000Y9398000D03*
X21844000Y9144000D03*
X22479000Y9398000D03*
X23749000Y9144000D03*
X24384000Y9398000D03*
X26130250Y9144000D03*
X26765250Y9398000D03*
X32142480Y9144000D03*
X32777480Y9398000D03*
X34067750Y9144000D03*
X34702750Y9398000D03*
X35972750Y9144000D03*
X36607750Y9398000D03*
X37877750Y9144000D03*
X38512750Y9398000D03*
X889000Y11049000D03*
X1524000Y11303000D03*
X2794000Y11049000D03*
X3429000Y11303000D03*
X4699000Y11049000D03*
X5334000Y11303000D03*
X6604000Y11049000D03*
X7239000Y11303000D03*
X8509000Y11049000D03*
X9144000Y11303000D03*
X10414000Y11049000D03*
X11049000Y11303000D03*
X12319000Y11049000D03*
X12954000Y11303000D03*
X14224000Y11049000D03*
X14859000Y11303000D03*
X16129000Y11049000D03*
X16764000Y11303000D03*
X18034000Y11049000D03*
X18669000Y11303000D03*
X19939000Y11049000D03*
X20574000Y11303000D03*
X21844000Y11049000D03*
X22479000Y11303000D03*
X23749000Y11049000D03*
X24384000Y11303000D03*
X26130250Y11049000D03*
X26765250Y11303000D03*
G54D26*
X762000Y1270000D03*
X1778000D03*
X2667000D03*
X3683000D03*
X4572000D03*
X5588000D03*
X6477000D03*
X7493000D03*
X13382620D03*
X14398620D03*
X20288250D03*
X21304250D03*
X22193250D03*
X23209250D03*
X26003250D03*
X27019250D03*
X27908250D03*
X28924250D03*
X29813250D03*
X30829250D03*
X32988250D03*
X34004250D03*
X35845750D03*
X36861750D03*
X37750750Y2222500D03*
X38766750D03*
X1714500Y3175000D03*
X2730500D03*
X4572000D03*
X5588000D03*
X6477000D03*
X7493000D03*
X8382000D03*
X9398000D03*
X10287000D03*
X11303000D03*
X12192000D03*
X13208000D03*
X14097000D03*
X15113000D03*
X16002000D03*
X17018000D03*
X17907000D03*
X18923000D03*
X19812000D03*
X20828000D03*
X21717000D03*
X22733000D03*
X24812620D03*
X25828620D03*
X27908250D03*
X28924250D03*
X32015480D03*
X33031480D03*
X33940750D03*
X34956750D03*
X35845750D03*
X36861750D03*
X1476380Y5080000D03*
X2492380D03*
X4095750D03*
X5111750D03*
X6000750D03*
X7016750D03*
X7905750D03*
X8921750D03*
X9810750D03*
X10826750D03*
X11715750D03*
X12731750D03*
X13620750D03*
X14636750D03*
X15525750D03*
X16541750D03*
X17430750D03*
X18446750D03*
X19335750D03*
X20351750D03*
X21240750D03*
X22256750D03*
X23145750D03*
X24161750D03*
X25765120D03*
X26781120D03*
X32015480D03*
X33031480D03*
X33940750D03*
X34956750D03*
X35845750D03*
X36861750D03*
X37750750Y6032500D03*
X38766750D03*
X1238250Y6985000D03*
X2254250D03*
X3619500D03*
X4635500D03*
X5524500D03*
X6540500D03*
X7429500D03*
X8445500D03*
X9334500D03*
X10350500D03*
X11239500D03*
X12255500D03*
X13144500D03*
X14160500D03*
X15049500D03*
X16065500D03*
X16954500D03*
X17970500D03*
X18859500D03*
X19875500D03*
X20764500D03*
X21780500D03*
X22669500D03*
X23685500D03*
X24574500D03*
X25590500D03*
X26479500D03*
X27495500D03*
X32015480D03*
X33031480D03*
X33940750D03*
X34956750D03*
X35845750D03*
X36861750D03*
X762000Y8890000D03*
X1778000D03*
X2667000D03*
X3683000D03*
X4572000D03*
X5588000D03*
X6477000D03*
X7493000D03*
X8382000D03*
X9398000D03*
X10287000D03*
X11303000D03*
X12192000D03*
X13208000D03*
X14097000D03*
X15113000D03*
X16002000D03*
X17018000D03*
X17907000D03*
X18923000D03*
X19812000D03*
X20828000D03*
X21717000D03*
X22733000D03*
X23622000D03*
X24638000D03*
X26003250D03*
X27019250D03*
X32015480D03*
X33031480D03*
X33940750D03*
X34956750D03*
X35845750D03*
X36861750D03*
X37750750D03*
X38766750D03*
X762000Y10795000D03*
X1778000D03*
X2667000D03*
X3683000D03*
X4572000D03*
X5588000D03*
X6477000D03*
X7493000D03*
X8382000D03*
X9398000D03*
X10287000D03*
X11303000D03*
X12192000D03*
X13208000D03*
X14097000D03*
X15113000D03*
X16002000D03*
X17018000D03*
X17907000D03*
X18923000D03*
X19812000D03*
X20828000D03*
X21717000D03*
X22733000D03*
X23622000D03*
X24638000D03*
X26003250D03*
X27019250D03*
G54D31*
X31651270Y10276890D03*
X39151260D03*
X31651270Y13376890D03*
X39151260D03*
G54D33*
X27654250Y13493750D03*
X27908250D03*
X28162250D03*
X28416250D03*
X28670250D03*
G54D34*
X32151270Y13426870D03*
X32405270D03*
X32659270D03*
X32913270D03*
X33167270D03*
X33421270D03*
X33675270D03*
X33929270D03*
X34183270D03*
X34437270D03*
X34691270D03*
X34945270D03*
X35199270D03*
X35453270D03*
X35707270D03*
X35961270D03*
G54D27*
X1270000Y1270000D03*
X3175000D03*
X5080000D03*
X6985000D03*
X13890620D03*
X20796250D03*
X22701250D03*
X26511250D03*
X28416250D03*
X30321250D03*
X33496250D03*
X36353750D03*
X38258750Y2222500D03*
X2222500Y3175000D03*
X5080000D03*
X6985000D03*
X8890000D03*
X10795000D03*
X12700000D03*
X14605000D03*
X16510000D03*
X18415000D03*
X20320000D03*
X22225000D03*
X25320620D03*
X28416250D03*
X32523480D03*
X34448750D03*
X36353750D03*
X1984380Y5080000D03*
X4603750D03*
X6508750D03*
X8413750D03*
X10318750D03*
X12223750D03*
X14128750D03*
X16033750D03*
X17938750D03*
X19843750D03*
X21748750D03*
X23653750D03*
X26273120D03*
X32523480D03*
X34448750D03*
X36353750D03*
X38258750Y6032500D03*
X1746250Y6985000D03*
X4127500D03*
X6032500D03*
X7937500D03*
X9842500D03*
X11747500D03*
X13652500D03*
X15557500D03*
X17462500D03*
X19367500D03*
X21272500D03*
X23177500D03*
X25082500D03*
X26987500D03*
X32523480D03*
X34448750D03*
X36353750D03*
X1270000Y8890000D03*
X3175000D03*
X5080000D03*
X6985000D03*
X8890000D03*
X10795000D03*
X12700000D03*
X14605000D03*
X16510000D03*
X18415000D03*
X20320000D03*
X22225000D03*
X24130000D03*
X26511250D03*
X32523480D03*
X34448750D03*
X36353750D03*
X38258750D03*
X1270000Y10795000D03*
X3175000D03*
X5080000D03*
X6985000D03*
X8890000D03*
X10795000D03*
X12700000D03*
X14605000D03*
X16510000D03*
X18415000D03*
X20320000D03*
X22225000D03*
X24130000D03*
X26511250D03*
%LPD*%
G75*
G54D10*
X238120Y13573120D03*
X8413750Y396880D03*
X29231010Y13569520D03*
X39052500Y396880D03*
G54D11*
X762000Y1270000D03*
X1238250Y6985000D03*
X762000Y8890000D03*
Y10795000D03*
X1778000Y1270000D03*
X1714500Y3175000D03*
X1476380Y5080000D03*
X1778000Y8890000D03*
Y10795000D03*
X2667000Y1270000D03*
X2730500Y3175000D03*
X2492380Y5080000D03*
X2254250Y6985000D03*
X2667000Y8890000D03*
Y10795000D03*
X3683000Y1270000D03*
X4095750Y5080000D03*
X3619500Y6985000D03*
X3683000Y8890000D03*
Y10795000D03*
X4572000Y1270000D03*
Y3175000D03*
X4635500Y6985000D03*
X4572000Y8890000D03*
Y10795000D03*
X5588000Y1270000D03*
Y3175000D03*
X5111750Y5080000D03*
X5524500Y6985000D03*
X5588000Y8890000D03*
Y10795000D03*
X6477000Y1270000D03*
Y3175000D03*
X6000750Y5080000D03*
X6540500Y6985000D03*
X6477000Y8890000D03*
Y10795000D03*
X7016750Y5080000D03*
X7493000Y1270000D03*
Y3175000D03*
X7905750Y5080000D03*
X7429500Y6985000D03*
X7493000Y8890000D03*
Y10795000D03*
X8382000Y3175000D03*
X8445500Y6985000D03*
X8382000Y8890000D03*
Y10795000D03*
X9398000Y3175000D03*
X8921750Y5080000D03*
X9334500Y6985000D03*
X9398000Y8890000D03*
Y10795000D03*
X10287000Y3175000D03*
X9810750Y5080000D03*
X10350500Y6985000D03*
X10287000Y8890000D03*
Y10795000D03*
X10826750Y5080000D03*
X11303000Y3175000D03*
X11715750Y5080000D03*
X11239500Y6985000D03*
X11303000Y8890000D03*
Y10795000D03*
X12192000Y3175000D03*
X12255500Y6985000D03*
X12192000Y8890000D03*
Y10795000D03*
X13382620Y1270000D03*
X13208000Y3175000D03*
X12731750Y5080000D03*
X13144500Y6985000D03*
X13208000Y8890000D03*
Y10795000D03*
X14097000Y3175000D03*
X13620750Y5080000D03*
X14160500Y6985000D03*
X14097000Y8890000D03*
Y10795000D03*
X14398620Y1270000D03*
X14636750Y5080000D03*
X15113000Y3175000D03*
X15525750Y5080000D03*
X15049500Y6985000D03*
X15113000Y8890000D03*
Y10795000D03*
X16002000Y3175000D03*
X16065500Y6985000D03*
X16002000Y8890000D03*
Y10795000D03*
X17018000Y3175000D03*
X16541750Y5080000D03*
X16954500Y6985000D03*
X17018000Y8890000D03*
Y10795000D03*
X17907000Y3175000D03*
X17430750Y5080000D03*
X17907000Y8890000D03*
Y10795000D03*
X18446750Y5080000D03*
X17970500Y6985000D03*
X18923000Y3175000D03*
X19335750Y5080000D03*
X18859500Y6985000D03*
X18923000Y8890000D03*
Y10795000D03*
X19812000Y3175000D03*
X19875500Y6985000D03*
X19812000Y8890000D03*
Y10795000D03*
X20288250Y1270000D03*
X20828000Y3175000D03*
X20351750Y5080000D03*
X20764500Y6985000D03*
X20828000Y8890000D03*
Y10795000D03*
X21304250Y1270000D03*
X21240750Y5080000D03*
X22193250Y1270000D03*
X21717000Y3175000D03*
X22256750Y5080000D03*
X21780500Y6985000D03*
X21717000Y8890000D03*
Y10795000D03*
X23209250Y1270000D03*
X22733000Y3175000D03*
X23145750Y5080000D03*
X22669500Y6985000D03*
X22733000Y8890000D03*
Y10795000D03*
X23685500Y6985000D03*
X23622000Y8890000D03*
Y10795000D03*
X24161750Y5080000D03*
X24574500Y6985000D03*
X24638000Y8890000D03*
Y10795000D03*
X24812620Y3175000D03*
X26003250Y1270000D03*
X25828620Y3175000D03*
X25765120Y5080000D03*
X25590500Y6985000D03*
X26003250Y8890000D03*
Y10795000D03*
X26781120Y5080000D03*
X26479500Y6985000D03*
X27019250Y1270000D03*
X27495500Y6985000D03*
X27019250Y8890000D03*
Y10795000D03*
X27908250Y1270000D03*
Y3175000D03*
X28924250Y1270000D03*
Y3175000D03*
X29813250Y1270000D03*
X30829250D03*
X32015480Y3175000D03*
Y5080000D03*
Y6985000D03*
Y8890000D03*
X32988250Y1270000D03*
X33031480Y3175000D03*
Y5080000D03*
Y6985000D03*
Y8890000D03*
X34004250Y1270000D03*
X33940750Y3175000D03*
Y5080000D03*
Y6985000D03*
Y8890000D03*
X34956750Y3175000D03*
Y5080000D03*
Y6985000D03*
Y8890000D03*
X35845750Y1270000D03*
Y3175000D03*
Y5080000D03*
Y6985000D03*
Y8890000D03*
X36861750Y1270000D03*
Y3175000D03*
Y5080000D03*
Y6985000D03*
Y8890000D03*
X37750750Y2222500D03*
Y6032500D03*
Y8890000D03*
X38766750Y2222500D03*
Y6032500D03*
Y8890000D03*
G54D20*
X37868730Y13297990D03*
X38733750D03*
G54D12*
X1270000Y1270000D03*
Y8890000D03*
Y10795000D03*
X1984380Y5080000D03*
X1746250Y6985000D03*
X2222500Y3175000D03*
X3175000Y1270000D03*
Y8890000D03*
Y10795000D03*
X4127500Y6985000D03*
X5080000Y1270000D03*
Y3175000D03*
X4603750Y5080000D03*
X5080000Y8890000D03*
Y10795000D03*
X6508750Y5080000D03*
X6032500Y6985000D03*
X6985000Y1270000D03*
Y3175000D03*
Y8890000D03*
Y10795000D03*
X7937500Y6985000D03*
X8890000Y3175000D03*
X8413750Y5080000D03*
X8890000Y8890000D03*
Y10795000D03*
X10318750Y5080000D03*
X9842500Y6985000D03*
X10795000Y3175000D03*
Y8890000D03*
Y10795000D03*
X11747500Y6985000D03*
X12700000Y3175000D03*
X12223750Y5080000D03*
X12700000Y8890000D03*
Y10795000D03*
X13890620Y1270000D03*
X14128750Y5080000D03*
X13652500Y6985000D03*
X14605000Y3175000D03*
Y8890000D03*
Y10795000D03*
X15557500Y6985000D03*
X16510000Y3175000D03*
X16033750Y5080000D03*
X16510000Y8890000D03*
Y10795000D03*
X17938750Y5080000D03*
X17462500Y6985000D03*
X18415000Y3175000D03*
Y8890000D03*
Y10795000D03*
X19367500Y6985000D03*
X19843750Y5080000D03*
X20796250Y1270000D03*
X20320000Y3175000D03*
Y8890000D03*
Y10795000D03*
X21748750Y5080000D03*
X21272500Y6985000D03*
X22225000Y3175000D03*
Y8890000D03*
Y10795000D03*
X22701250Y1270000D03*
X23177500Y6985000D03*
X23653750Y5080000D03*
X24130000Y8890000D03*
Y10795000D03*
X25320620Y3175000D03*
X25082500Y6985000D03*
X26273120Y5080000D03*
X26511250Y1270000D03*
X26987500Y6985000D03*
X26511250Y8890000D03*
Y10795000D03*
X28416250Y1270000D03*
Y3175000D03*
X30321250Y1270000D03*
X32523480Y3175000D03*
Y5080000D03*
Y6985000D03*
Y8890000D03*
X33496250Y1270000D03*
X34448750Y3175000D03*
Y5080000D03*
Y6985000D03*
Y8890000D03*
X36353750Y1270000D03*
Y3175000D03*
Y5080000D03*
Y6985000D03*
Y8890000D03*
X38258750Y2222500D03*
Y6032500D03*
Y8890000D03*
G54D21*
X37868730Y13635990D03*
X38733750D03*
G54D13*
X889000Y1524000D03*
X1365250Y7239000D03*
X889000Y9144000D03*
Y11049000D03*
X1524000Y1778000D03*
X1841500Y3429000D03*
X1603380Y5334000D03*
X2000250Y7493000D03*
X1524000Y9398000D03*
Y11303000D03*
X2794000Y1524000D03*
X2476500Y3683000D03*
X2238380Y5588000D03*
X2794000Y9144000D03*
Y11049000D03*
X3429000Y1778000D03*
Y9398000D03*
Y11303000D03*
X4222750Y5334000D03*
X3746500Y7239000D03*
X4381500Y7493000D03*
X4699000Y1524000D03*
Y3429000D03*
X4857750Y5588000D03*
X4699000Y9144000D03*
Y11049000D03*
X5334000Y1778000D03*
Y3683000D03*
X5651500Y7239000D03*
X5334000Y9398000D03*
Y11303000D03*
X6604000Y1524000D03*
Y3429000D03*
X6127750Y5334000D03*
X6286500Y7493000D03*
X6604000Y9144000D03*
Y11049000D03*
X7239000Y1778000D03*
Y3683000D03*
X6762750Y5588000D03*
X7239000Y9398000D03*
Y11303000D03*
X8032750Y5334000D03*
X7556500Y7239000D03*
X8509000Y3429000D03*
X8667750Y5588000D03*
X8191500Y7493000D03*
X8509000Y9144000D03*
Y11049000D03*
X9144000Y3683000D03*
X9461500Y7239000D03*
X9144000Y9398000D03*
Y11303000D03*
X10414000Y3429000D03*
X9937750Y5334000D03*
X10096500Y7493000D03*
X10414000Y9144000D03*
Y11049000D03*
X11049000Y3683000D03*
X10572750Y5588000D03*
X11049000Y9398000D03*
Y11303000D03*
X11842750Y5334000D03*
X11366500Y7239000D03*
X12319000Y3429000D03*
X12477750Y5588000D03*
X12001500Y7493000D03*
X12319000Y9144000D03*
Y11049000D03*
X12954000Y3683000D03*
X13271500Y7239000D03*
X12954000Y9398000D03*
Y11303000D03*
X13509620Y1524000D03*
X14144620Y1778000D03*
X13747750Y5334000D03*
X13906500Y7493000D03*
X14224000Y3429000D03*
X14859000Y3683000D03*
X14382750Y5588000D03*
X14224000Y9144000D03*
X14859000Y9398000D03*
X14224000Y11049000D03*
X14859000Y11303000D03*
X15652750Y5334000D03*
X15176500Y7239000D03*
X16129000Y3429000D03*
X16287750Y5588000D03*
X15811500Y7493000D03*
X16129000Y9144000D03*
Y11049000D03*
X16764000Y3683000D03*
X17081500Y7239000D03*
X16764000Y9398000D03*
Y11303000D03*
X17557750Y5334000D03*
X17716500Y7493000D03*
X18034000Y3429000D03*
X18669000Y3683000D03*
X18192750Y5588000D03*
X18034000Y9144000D03*
X18669000Y9398000D03*
X18034000Y11049000D03*
X18669000Y11303000D03*
X19462750Y5334000D03*
X18986500Y7239000D03*
X19939000Y3429000D03*
X20097750Y5588000D03*
X19621500Y7493000D03*
X19939000Y9144000D03*
Y11049000D03*
X20415250Y1524000D03*
X20574000Y3683000D03*
X20891500Y7239000D03*
X20574000Y9398000D03*
Y11303000D03*
X21050250Y1778000D03*
X21367750Y5334000D03*
X21526500Y7493000D03*
X22320250Y1524000D03*
X21844000Y3429000D03*
X22479000Y3683000D03*
X22002750Y5588000D03*
X21844000Y9144000D03*
X22479000Y9398000D03*
X21844000Y11049000D03*
X22479000Y11303000D03*
X22955250Y1778000D03*
X22796500Y7239000D03*
X23272750Y5334000D03*
X23907750Y5588000D03*
X23431500Y7493000D03*
X23749000Y9144000D03*
Y11049000D03*
X24701500Y7239000D03*
X24384000Y9398000D03*
Y11303000D03*
X24939620Y3429000D03*
X25336500Y7493000D03*
X26130250Y1524000D03*
X25574620Y3683000D03*
X25892120Y5334000D03*
X26130250Y9144000D03*
Y11049000D03*
X26765250Y1778000D03*
X26527120Y5588000D03*
X26606500Y7239000D03*
X26765250Y9398000D03*
Y11303000D03*
X27241500Y7493000D03*
X28035250Y1524000D03*
Y3429000D03*
X28670250Y1778000D03*
Y3683000D03*
X29940250Y1524000D03*
X30575250Y1778000D03*
X32142480Y3429000D03*
Y5334000D03*
Y7239000D03*
Y9144000D03*
X32777480Y3683000D03*
Y5588000D03*
Y7493000D03*
Y9398000D03*
X33115250Y1524000D03*
X33750250Y1778000D03*
X34067750Y3429000D03*
Y5334000D03*
Y7239000D03*
Y9144000D03*
X34702750Y3683000D03*
Y5588000D03*
Y7493000D03*
Y9398000D03*
X35972750Y1524000D03*
Y3429000D03*
Y5334000D03*
Y7239000D03*
Y9144000D03*
X36607750Y1778000D03*
Y3683000D03*
Y5588000D03*
Y7493000D03*
Y9398000D03*
X37877750Y2476500D03*
Y6286500D03*
Y9144000D03*
X38512750Y2730500D03*
Y6540500D03*
Y9398000D03*
G54D22*
X38173730Y13335000D03*
X38088740D03*
X38003730D03*
X38088740Y13200000D03*
X38173730D03*
X38003730D03*
X38513740Y13335000D03*
X38428750D03*
X38343730D03*
X38258750D03*
X38598750D03*
X38258750Y13200000D03*
X38343730D03*
X38428750D03*
X38513740D03*
X38598750D03*
G54D14*
X1094360Y12710290D03*
X1555210Y12112740D03*
X2080250Y12449920D03*
X3364230Y12112740D03*
X2901620Y12710290D03*
X4018460Y12449920D03*
X4904360Y12710290D03*
X5366640Y12112740D03*
X5839470Y12385590D03*
X7192290Y12112740D03*
X6729980Y12710290D03*
X7665090Y12385590D03*
X8818950Y12710290D03*
X9281230Y12112740D03*
X9935790Y12308510D03*
X11690220Y12112740D03*
X11227940Y12710290D03*
X12163060Y12385580D03*
X13861330Y12112740D03*
X13399050Y12710290D03*
X14315680Y12472580D03*
X15297400Y12710290D03*
X15759680Y12134320D03*
X16203040Y12472580D03*
X16967990Y12710290D03*
X17430270Y12138090D03*
X17867230Y12462660D03*
X19249010Y12136140D03*
X18786730Y12710290D03*
X19778720Y12462660D03*
X20514810Y12710290D03*
X20977090Y12112740D03*
X21439330Y12462660D03*
X22200070Y12710290D03*
X22662350Y12132200D03*
X23214930Y12462660D03*
X23749250Y12710290D03*
X24211530Y12136420D03*
X24684370Y12462660D03*
X25439950Y12710290D03*
X25902230Y12135130D03*
X26375070Y12385580D03*
X26433540Y13018320D03*
X26798970Y12508160D03*
X27147960Y9446220D03*
X27442030Y12134060D03*
X27227340Y13018320D03*
X28418040Y10240020D03*
X27974820Y12383280D03*
X28894320Y11033820D03*
X29099130Y12137380D03*
X28636850Y12710290D03*
X29291220Y11065560D03*
X29571970Y12385590D03*
X30720060Y11430720D03*
X30402540Y11202890D03*
X30300560Y11063710D03*
X30306350Y10911330D03*
X30479040Y12856680D03*
X30704200Y13683180D03*
X32942700Y10795680D03*
X33736500Y9763740D03*
X33230620Y10300240D03*
X33498360Y11351340D03*
X33101460Y12145140D03*
X33548070Y12747620D03*
X34212780Y10240020D03*
X34371540D03*
X34026940Y10456400D03*
X34371540Y10636920D03*
X33863520Y10169530D03*
X33811680Y11330610D03*
X33928670Y10937390D03*
X34133400Y11351340D03*
X34307290Y11108870D03*
X35085960Y11192580D03*
X35244720Y11589480D03*
X35085960Y12145140D03*
Y12859560D03*
X35959140Y6271020D03*
X35721000Y11033820D03*
X35641620Y11113200D03*
X36181740Y2604000D03*
X36038520Y12780180D03*
X37467360Y10240020D03*
X37387980Y10875060D03*
X37229220D03*
X37308600Y12859560D03*
X37927990Y4747150D03*
X37864260Y8255520D03*
Y10319400D03*
X38102400Y12141420D03*
X37943640Y12780180D03*
X38658060Y11113200D03*
X39051850Y10685660D03*
X39183750Y10785360D03*
X39293100Y11510100D03*
X39054960Y12938940D03*
G54D23*
X38465660Y12339380D03*
X38749360Y11981880D03*
Y12176880D03*
Y11851880D03*
Y11916880D03*
X38529360Y12306880D03*
X38465660Y12274380D03*
X38529360Y12241880D03*
X38465660Y12209380D03*
X38529360Y12176880D03*
X38465660Y12144380D03*
Y12079380D03*
X38749360Y12046880D03*
X38529360D03*
X38465660Y12014380D03*
X38529360Y11981880D03*
X38606860Y12306880D03*
X38814360Y12339380D03*
X38749360Y12306880D03*
Y12241880D03*
X38814360Y12014380D03*
Y12079380D03*
Y12144380D03*
X38485660Y11730680D03*
X38794360D03*
X38889360Y11710680D03*
X38529360Y12111880D03*
X38704360Y11710680D03*
X38465660Y11949380D03*
X38529360Y11916880D03*
X38465660Y11884380D03*
Y11819380D03*
X38529360Y11851880D03*
X38606860Y12111880D03*
Y12176880D03*
Y12241880D03*
X38749360Y12111880D03*
X38574360Y12448080D03*
X38639360D03*
X38485660Y12428080D03*
X38794360D03*
X38889360Y12448080D03*
X38989360Y11710680D03*
X39089360D03*
X39183060Y11730680D03*
X39203060Y11829380D03*
Y11929380D03*
Y12029380D03*
Y12129380D03*
Y12229380D03*
Y12329380D03*
X39183060Y12428080D03*
X39089360Y12448080D03*
X38989360D03*
G54D24*
G01X9281230Y12056840D02*
Y12112740D01*
G01D02*
Y12168640D01*
G01X9225330Y12112740D02*
X9281230D01*
G01D02*
X9337130D01*
G01X13861330Y12056840D02*
Y12112740D01*
G01D02*
Y12168640D01*
G01X13805430Y12112740D02*
X13861330D01*
G01D02*
X13917230D01*
G01X15759680Y12078420D02*
Y12134320D01*
G01D02*
Y12190220D01*
G01X15703780Y12134320D02*
X15759680D01*
G01D02*
X15815580D01*
G01X17430270Y12082190D02*
Y12138090D01*
G01D02*
Y12193990D01*
G01X17374370Y12138090D02*
X17430270D01*
G01D02*
X17486170D01*
G01X19249010Y12080240D02*
Y12136140D01*
G01D02*
Y12192040D01*
G01X19193110Y12136140D02*
X19249010D01*
G01D02*
X19304910D01*
G01X20977090Y12056840D02*
Y12112740D01*
G01D02*
Y12168640D01*
G01X20921190Y12112740D02*
X20977090D01*
G01D02*
X21032990D01*
G01X22662350Y12076300D02*
Y12132200D01*
G01D02*
Y12188100D01*
G01X22606450Y12132200D02*
X22662350D01*
G01D02*
X22718250D01*
G01X24211530Y12080520D02*
Y12136420D01*
G01D02*
Y12192320D01*
G01X24155630Y12136420D02*
X24211530D01*
G01D02*
X24267430D01*
G01X25902230Y12079230D02*
Y12135130D01*
G01D02*
Y12191030D01*
G01X25846330Y12135130D02*
X25902230D01*
G01D02*
X25958130D01*
G01X27397420Y12089450D02*
X27442030Y12134060D01*
G01D02*
X27486640Y12178670D01*
G01X27397420D02*
X27442030Y12134060D01*
G01D02*
X27486640Y12089450D01*
G01X29099130Y12081480D02*
Y12137380D01*
G01D02*
Y12193280D01*
G01X29043230Y12137380D02*
X29099130D01*
G01D02*
X29155030D01*
G01X32405270Y13339070D02*
Y13426870D01*
G01D02*
Y13514670D01*
G01X32317470Y13426870D02*
X32405270D01*
G01D02*
X32493070D01*
G54D15*
X27654250Y13493750D03*
X27908250D03*
X28162250D03*
X28416250D03*
X28670250D03*
G54D25*
G01X28418040Y10240020D02*
X27544860D01*
X27306720Y10478160D01*
Y11907000D01*
X27105670Y12108050D01*
X26708770D01*
X26433540Y12383280D01*
Y13018320D01*
G01X32942700Y10795680D02*
X32704560Y10557540D01*
X31513860D01*
X31355100Y10398780D01*
X29672160D01*
X29513400Y10240020D01*
X29291220D01*
X29211840Y10160640D01*
X28497420D01*
X28418040Y10240020D01*
G54D16*
X28656180Y10827420D03*
X29132460Y10636920D03*
X28494250Y11036990D03*
X29688120Y10064440D03*
X38914110Y11992700D03*
G54D17*
X29291220Y11192580D03*
G54D18*
X31651270Y10276890D03*
Y13376890D03*
X39151260Y10276890D03*
Y13376890D03*
G54D19*
X32151270Y13426870D03*
X32405270D03*
X32659270D03*
X32913270D03*
X33167270D03*
X33421270D03*
X33675270D03*
X33929270D03*
X34183270D03*
X34437270D03*
X34691270D03*
X34945270D03*
X35199270D03*
X35453270D03*
X35707270D03*
X35961270D03*
M02*
