G04 ================== begin FILE IDENTIFICATION RECORD ==================*
G04 Layout Name:  CustomKeyboard.brd*
G04 Film Name:    SMTP*
G04 File Format:  Gerber RS274X*
G04 File Origin:  Cadence Allegro 25.1-P001*
G04 Origin Date:  Sun Feb  8 22:26:49 2026*
G04 *
G04 Layer:  PACKAGE GEOMETRY/SOLDERMASK_TOP*
G04 Layer:  BOARD GEOMETRY/SOLDERMASK_TOP*
G04 Layer:  VIA CLASS/SOLDERMASK_TOP*
G04 Layer:  PIN/SOLDERMASK_TOP*
G04 *
G04 Offset:    (0.0000 0.0000)*
G04 Mirror:    No*
G04 Mode:      Positive*
G04 Rotation:  0*
G04 FullContactRelief:  No*
G04 UndefLineWidth:     0.1524*
G04 ================== end FILE IDENTIFICATION RECORD ====================*
%FSLAX35Y35*MOMM*%
%IR0*IPPOS*OFA0.00000B0.00000*MIA0B0*SFA1.00000B1.00000*%
%ADD40C,.22*%
%ADD19C,.4*%
%ADD34C,.7*%
%ADD36R,.4X.4*%
%ADD16C,.4572*%
%ADD39R,.775X.775*%
%AMMACRO28*
4,1,40,.955,-.3,
-.955,-.3,
-.968042,-.298839,
-.980683,-.295432,
-.992541,-.28988,
-1.003255,-.282354,
-1.012499,-.273082,
-1.019993,-.262346,
-1.025509,-.250471,
-1.028878,-.237819,
-1.03,-.225,
-1.03,.225,
-1.028839,.238042,
-1.025432,.250683,
-1.01988,.262541,
-1.012354,.273255,
-1.003082,.282499,
-.992346,.289993,
-.980471,.295509,
-.967819,.298878,
-.955,.3,
.955,.3,
.968042,.298839,
.980683,.295432,
.992541,.28988,
1.003255,.282354,
1.012499,.273082,
1.019993,.262346,
1.025509,.250471,
1.028878,.237819,
1.03,.225,
1.03,-.225,
1.028839,-.238042,
1.025432,-.250683,
1.01988,-.262541,
1.012354,-.273255,
1.003082,-.282499,
.992346,-.289993,
.980471,-.295509,
.967819,-.298878,
.955,-.3,
0.0*
%
%ADD28MACRO28*%
%ADD15R,1.1938X.8382*%
%ADD14R,1.1699X.9299*%
%ADD18C,1.3*%
%ADD26C,2.7*%
%ADD10C,4.5001*%
%ADD20R,1.3X1.3*%
%ADD13C,2.54*%
%ADD35R,.4X.3749*%
%ADD38R,.8001X.775*%
%ADD37R,.3749X.4*%
%ADD12C,4.2418*%
%ADD32O,1.1001X2.5999*%
%ADD23R,1.1801X1.0599*%
%ADD33O,1.1001X1.8999*%
%ADD30R,1.0599X1.1801*%
%ADD29R,.2791X.3317*%
%ADD25R,1.3899X3.5001*%
%ADD21C,1.5199*%
%ADD17R,.3317X.2791*%
%ADD11C,1.9558*%
%ADD27C,1.5999*%
%ADD24R,.8992X.8024*%
%ADD31R,.8024X.8992*%
%AMMACRO22*
4,1,40,-.4826,.2949,
.4826,.2949,
.508199,.292638,
.533015,.285965,
.556297,.275085,
.577335,.260327,
.59549,.24214,
.610212,.221076,
.621053,.197776,
.627682,.172948,
.6299,.1476,
.6299,-.1476,
.627638,-.173199,
.620965,-.198015,
.610085,-.221297,
.595327,-.242335,
.57714,-.26049,
.556076,-.275212,
.532776,-.286053,
.507948,-.292682,
.4826,-.2949,
-.4826,-.2949,
-.508199,-.292638,
-.533015,-.285965,
-.556297,-.275085,
-.577335,-.260327,
-.59549,-.24214,
-.610212,-.221076,
-.621053,-.197776,
-.627682,-.172948,
-.6299,-.1476,
-.6299,.1476,
-.627638,.173199,
-.620965,.198015,
-.610085,.221297,
-.595327,.242335,
-.57714,.26049,
-.556076,.275212,
-.532776,.286053,
-.507948,.292682,
-.4826,.2949,
0.0*
%
%ADD22MACRO22*%
%LPD*%
G75*
G54D10*
X238120Y13573120D03*
X8413750Y396880D03*
X29231010Y13569520D03*
X39052500Y396880D03*
G54D11*
X762000Y1270000D03*
X1238250Y6985000D03*
X762000Y8890000D03*
Y10795000D03*
X1778000Y1270000D03*
X1714500Y3175000D03*
X1476380Y5080000D03*
X1778000Y8890000D03*
Y10795000D03*
X2667000Y1270000D03*
X2730500Y3175000D03*
X2492380Y5080000D03*
X2254250Y6985000D03*
X2667000Y8890000D03*
Y10795000D03*
X3683000Y1270000D03*
X4095750Y5080000D03*
X3619500Y6985000D03*
X3683000Y8890000D03*
Y10795000D03*
X4572000Y1270000D03*
Y3175000D03*
X4635500Y6985000D03*
X4572000Y8890000D03*
Y10795000D03*
X5588000Y1270000D03*
Y3175000D03*
X5111750Y5080000D03*
X5524500Y6985000D03*
X5588000Y8890000D03*
Y10795000D03*
X6477000Y1270000D03*
Y3175000D03*
X6000750Y5080000D03*
X6540500Y6985000D03*
X6477000Y8890000D03*
Y10795000D03*
X7016750Y5080000D03*
X7493000Y1270000D03*
Y3175000D03*
X7905750Y5080000D03*
X7429500Y6985000D03*
X7493000Y8890000D03*
Y10795000D03*
X8382000Y3175000D03*
X8445500Y6985000D03*
X8382000Y8890000D03*
Y10795000D03*
X9398000Y3175000D03*
X8921750Y5080000D03*
X9334500Y6985000D03*
X9398000Y8890000D03*
Y10795000D03*
X10287000Y3175000D03*
X9810750Y5080000D03*
X10350500Y6985000D03*
X10287000Y8890000D03*
Y10795000D03*
X10826750Y5080000D03*
X11303000Y3175000D03*
X11715750Y5080000D03*
X11239500Y6985000D03*
X11303000Y8890000D03*
Y10795000D03*
X12192000Y3175000D03*
X12255500Y6985000D03*
X12192000Y8890000D03*
Y10795000D03*
X13382620Y1270000D03*
X13208000Y3175000D03*
X12731750Y5080000D03*
X13144500Y6985000D03*
X13208000Y8890000D03*
Y10795000D03*
X14097000Y3175000D03*
X13620750Y5080000D03*
X14160500Y6985000D03*
X14097000Y8890000D03*
Y10795000D03*
X14398620Y1270000D03*
X14636750Y5080000D03*
X15113000Y3175000D03*
X15525750Y5080000D03*
X15049500Y6985000D03*
X15113000Y8890000D03*
Y10795000D03*
X16002000Y3175000D03*
X16065500Y6985000D03*
X16002000Y8890000D03*
Y10795000D03*
X17018000Y3175000D03*
X16541750Y5080000D03*
X16954500Y6985000D03*
X17018000Y8890000D03*
Y10795000D03*
X17907000Y3175000D03*
X17430750Y5080000D03*
X17907000Y8890000D03*
Y10795000D03*
X18446750Y5080000D03*
X17970500Y6985000D03*
X18923000Y3175000D03*
X19335750Y5080000D03*
X18859500Y6985000D03*
X18923000Y8890000D03*
Y10795000D03*
X19812000Y3175000D03*
X19875500Y6985000D03*
X19812000Y8890000D03*
Y10795000D03*
X20288250Y1270000D03*
X20828000Y3175000D03*
X20351750Y5080000D03*
X20764500Y6985000D03*
X20828000Y8890000D03*
Y10795000D03*
X21304250Y1270000D03*
X21240750Y5080000D03*
X22193250Y1270000D03*
X21717000Y3175000D03*
X22256750Y5080000D03*
X21780500Y6985000D03*
X21717000Y8890000D03*
Y10795000D03*
X23209250Y1270000D03*
X22733000Y3175000D03*
X23145750Y5080000D03*
X22669500Y6985000D03*
X22733000Y8890000D03*
Y10795000D03*
X23685500Y6985000D03*
X23622000Y8890000D03*
Y10795000D03*
X24161750Y5080000D03*
X24574500Y6985000D03*
X24638000Y8890000D03*
Y10795000D03*
X24812620Y3175000D03*
X26003250Y1270000D03*
X25828620Y3175000D03*
X25765120Y5080000D03*
X25590500Y6985000D03*
X26003250Y8890000D03*
Y10795000D03*
X26781120Y5080000D03*
X26479500Y6985000D03*
X27019250Y1270000D03*
X27495500Y6985000D03*
X27019250Y8890000D03*
Y10795000D03*
X27908250Y1270000D03*
Y3175000D03*
X28924250Y1270000D03*
Y3175000D03*
X29813250Y1270000D03*
X30829250D03*
X32015480Y3175000D03*
Y5080000D03*
Y6985000D03*
Y8890000D03*
X32988250Y1270000D03*
X33031480Y3175000D03*
Y5080000D03*
Y6985000D03*
Y8890000D03*
X34004250Y1270000D03*
X33940750Y3175000D03*
Y5080000D03*
Y6985000D03*
Y8890000D03*
X34956750Y3175000D03*
Y5080000D03*
Y6985000D03*
Y8890000D03*
X35845750Y1270000D03*
Y3175000D03*
Y5080000D03*
Y6985000D03*
Y8890000D03*
X36861750Y1270000D03*
Y3175000D03*
Y5080000D03*
Y6985000D03*
Y8890000D03*
X37750750Y2222500D03*
Y6032500D03*
Y8890000D03*
X38766750Y2222500D03*
Y6032500D03*
Y8890000D03*
G54D20*
X28670250Y13493750D03*
G54D21*
X29291220Y11192580D03*
G54D30*
X35168220Y12462660D03*
Y12621420D03*
X35321220Y12462660D03*
Y12621420D03*
X36591300Y12938940D03*
X36438300D03*
X37497140Y13469660D03*
X37650140D03*
G54D12*
X1270000Y1270000D03*
Y8890000D03*
Y10795000D03*
X1984380Y5080000D03*
X1746250Y6985000D03*
X2222500Y3175000D03*
X3175000Y1270000D03*
Y8890000D03*
Y10795000D03*
X4127500Y6985000D03*
X5080000Y1270000D03*
Y3175000D03*
X4603750Y5080000D03*
X5080000Y8890000D03*
Y10795000D03*
X6508750Y5080000D03*
X6032500Y6985000D03*
X6985000Y1270000D03*
Y3175000D03*
Y8890000D03*
Y10795000D03*
X7937500Y6985000D03*
X8890000Y3175000D03*
X8413750Y5080000D03*
X8890000Y8890000D03*
Y10795000D03*
X10318750Y5080000D03*
X9842500Y6985000D03*
X10795000Y3175000D03*
Y8890000D03*
Y10795000D03*
X11747500Y6985000D03*
X12700000Y3175000D03*
X12223750Y5080000D03*
X12700000Y8890000D03*
Y10795000D03*
X13890620Y1270000D03*
X14128750Y5080000D03*
X13652500Y6985000D03*
X14605000Y3175000D03*
Y8890000D03*
Y10795000D03*
X15557500Y6985000D03*
X16510000Y3175000D03*
X16033750Y5080000D03*
X16510000Y8890000D03*
Y10795000D03*
X17938750Y5080000D03*
X17462500Y6985000D03*
X18415000Y3175000D03*
Y8890000D03*
Y10795000D03*
X19367500Y6985000D03*
X19843750Y5080000D03*
X20796250Y1270000D03*
X20320000Y3175000D03*
Y8890000D03*
Y10795000D03*
X21748750Y5080000D03*
X21272500Y6985000D03*
X22225000Y3175000D03*
Y8890000D03*
Y10795000D03*
X22701250Y1270000D03*
X23177500Y6985000D03*
X23653750Y5080000D03*
X24130000Y8890000D03*
Y10795000D03*
X25320620Y3175000D03*
X25082500Y6985000D03*
X26273120Y5080000D03*
X26511250Y1270000D03*
X26987500Y6985000D03*
X26511250Y8890000D03*
Y10795000D03*
X28416250Y1270000D03*
Y3175000D03*
X30321250Y1270000D03*
X32523480Y3175000D03*
Y5080000D03*
Y6985000D03*
Y8890000D03*
X33496250Y1270000D03*
X34448750Y3175000D03*
Y5080000D03*
Y6985000D03*
Y8890000D03*
X36353750Y1270000D03*
Y3175000D03*
Y5080000D03*
Y6985000D03*
Y8890000D03*
X38258750Y2222500D03*
Y6032500D03*
Y8890000D03*
G54D22*
X29820590Y12716420D03*
X30016570Y12811420D03*
Y12621420D03*
X36339730Y13106410D03*
X36143750Y13201410D03*
X36339730Y13296410D03*
G54D31*
X38215320Y12700800D03*
X38340540D03*
G54D13*
X889000Y1524000D03*
X1365250Y7239000D03*
X889000Y9144000D03*
Y11049000D03*
X1524000Y1778000D03*
X1841500Y3429000D03*
X1603380Y5334000D03*
X2000250Y7493000D03*
X1524000Y9398000D03*
Y11303000D03*
X2794000Y1524000D03*
X2476500Y3683000D03*
X2238380Y5588000D03*
X2794000Y9144000D03*
Y11049000D03*
X3429000Y1778000D03*
Y9398000D03*
Y11303000D03*
X4222750Y5334000D03*
X3746500Y7239000D03*
X4381500Y7493000D03*
X4699000Y1524000D03*
Y3429000D03*
X4857750Y5588000D03*
X4699000Y9144000D03*
Y11049000D03*
X5334000Y1778000D03*
Y3683000D03*
X5651500Y7239000D03*
X5334000Y9398000D03*
Y11303000D03*
X6604000Y1524000D03*
Y3429000D03*
X6127750Y5334000D03*
X6286500Y7493000D03*
X6604000Y9144000D03*
Y11049000D03*
X7239000Y1778000D03*
Y3683000D03*
X6762750Y5588000D03*
X7239000Y9398000D03*
Y11303000D03*
X8032750Y5334000D03*
X7556500Y7239000D03*
X8509000Y3429000D03*
X8667750Y5588000D03*
X8191500Y7493000D03*
X8509000Y9144000D03*
Y11049000D03*
X9144000Y3683000D03*
X9461500Y7239000D03*
X9144000Y9398000D03*
Y11303000D03*
X10414000Y3429000D03*
X9937750Y5334000D03*
X10096500Y7493000D03*
X10414000Y9144000D03*
Y11049000D03*
X11049000Y3683000D03*
X10572750Y5588000D03*
X11049000Y9398000D03*
Y11303000D03*
X11842750Y5334000D03*
X11366500Y7239000D03*
X12319000Y3429000D03*
X12477750Y5588000D03*
X12001500Y7493000D03*
X12319000Y9144000D03*
Y11049000D03*
X12954000Y3683000D03*
X13271500Y7239000D03*
X12954000Y9398000D03*
Y11303000D03*
X13509620Y1524000D03*
X14144620Y1778000D03*
X13747750Y5334000D03*
X13906500Y7493000D03*
X14224000Y3429000D03*
X14859000Y3683000D03*
X14382750Y5588000D03*
X14224000Y9144000D03*
X14859000Y9398000D03*
X14224000Y11049000D03*
X14859000Y11303000D03*
X15652750Y5334000D03*
X15176500Y7239000D03*
X16129000Y3429000D03*
X16287750Y5588000D03*
X15811500Y7493000D03*
X16129000Y9144000D03*
Y11049000D03*
X16764000Y3683000D03*
X17081500Y7239000D03*
X16764000Y9398000D03*
Y11303000D03*
X17557750Y5334000D03*
X17716500Y7493000D03*
X18034000Y3429000D03*
X18669000Y3683000D03*
X18192750Y5588000D03*
X18034000Y9144000D03*
X18669000Y9398000D03*
X18034000Y11049000D03*
X18669000Y11303000D03*
X19462750Y5334000D03*
X18986500Y7239000D03*
X19939000Y3429000D03*
X20097750Y5588000D03*
X19621500Y7493000D03*
X19939000Y9144000D03*
Y11049000D03*
X20415250Y1524000D03*
X20574000Y3683000D03*
X20891500Y7239000D03*
X20574000Y9398000D03*
Y11303000D03*
X21050250Y1778000D03*
X21367750Y5334000D03*
X21526500Y7493000D03*
X22320250Y1524000D03*
X21844000Y3429000D03*
X22479000Y3683000D03*
X22002750Y5588000D03*
X21844000Y9144000D03*
X22479000Y9398000D03*
X21844000Y11049000D03*
X22479000Y11303000D03*
X22955250Y1778000D03*
X22796500Y7239000D03*
X23272750Y5334000D03*
X23907750Y5588000D03*
X23431500Y7493000D03*
X23749000Y9144000D03*
Y11049000D03*
X24701500Y7239000D03*
X24384000Y9398000D03*
Y11303000D03*
X24939620Y3429000D03*
X25336500Y7493000D03*
X26130250Y1524000D03*
X25574620Y3683000D03*
X25892120Y5334000D03*
X26130250Y9144000D03*
Y11049000D03*
X26765250Y1778000D03*
X26527120Y5588000D03*
X26606500Y7239000D03*
X26765250Y9398000D03*
Y11303000D03*
X27241500Y7493000D03*
X28035250Y1524000D03*
Y3429000D03*
X28670250Y1778000D03*
Y3683000D03*
X29940250Y1524000D03*
X30575250Y1778000D03*
X32142480Y3429000D03*
Y5334000D03*
Y7239000D03*
Y9144000D03*
X32777480Y3683000D03*
Y5588000D03*
Y7493000D03*
Y9398000D03*
X33115250Y1524000D03*
X33750250Y1778000D03*
X34067750Y3429000D03*
Y5334000D03*
Y7239000D03*
Y9144000D03*
X34702750Y3683000D03*
Y5588000D03*
Y7493000D03*
Y9398000D03*
X35972750Y1524000D03*
Y3429000D03*
Y5334000D03*
Y7239000D03*
Y9144000D03*
X36607750Y1778000D03*
Y3683000D03*
Y5588000D03*
Y7493000D03*
Y9398000D03*
X37877750Y2476500D03*
Y6286500D03*
Y9144000D03*
X38512750Y2730500D03*
Y6540500D03*
Y9398000D03*
G54D40*
X38465660Y12339380D03*
X38749360Y11981880D03*
Y12176880D03*
Y11851880D03*
Y11916880D03*
X38529360Y12306880D03*
X38465660Y12274380D03*
X38529360Y12241880D03*
X38465660Y12209380D03*
X38529360Y12176880D03*
X38465660Y12144380D03*
Y12079380D03*
X38749360Y12046880D03*
X38529360D03*
X38465660Y12014380D03*
X38529360Y11981880D03*
X38606860Y12306880D03*
X38814360Y12339380D03*
X38749360Y12306880D03*
Y12241880D03*
X38814360Y12014380D03*
Y12079380D03*
Y12144380D03*
X38485660Y11730680D03*
X38794360D03*
X38889360Y11710680D03*
X38529360Y12111880D03*
X38704360Y11710680D03*
X38465660Y11949380D03*
X38529360Y11916880D03*
X38465660Y11884380D03*
Y11819380D03*
X38529360Y11851880D03*
X38606860Y12111880D03*
Y12176880D03*
Y12241880D03*
X38749360Y12111880D03*
X38574360Y12448080D03*
X38639360D03*
X38485660Y12428080D03*
X38794360D03*
X38889360Y12448080D03*
X38989360Y11710680D03*
X39089360D03*
X39183060Y11730680D03*
X39203060Y11829380D03*
Y11929380D03*
Y12029380D03*
Y12129380D03*
Y12229380D03*
Y12329380D03*
X39183060Y12428080D03*
X39089360Y12448080D03*
X38989360D03*
G54D23*
X29608740Y12856680D03*
Y12703680D03*
X30243780Y12856680D03*
Y12703680D03*
G54D32*
X37868730Y13297990D03*
X38733750D03*
G54D14*
X1097990Y2222500D03*
X939240Y9842500D03*
X1283260D03*
X1097990Y11747500D03*
X1442010Y2222500D03*
X1812370Y4127500D03*
X1709240Y6043370D03*
X2053260D03*
X1415490Y7937500D03*
X1759510D03*
X1442010Y11747500D03*
X2156390Y4127500D03*
X3002990Y2222500D03*
X3347010D03*
X3002990Y9842500D03*
X3347010D03*
X3016250Y11747500D03*
X3360270D03*
X4272990Y6032500D03*
X3796740Y7937500D03*
X4140760D03*
X4907990Y2222500D03*
X4669870Y4127500D03*
X5013890D03*
X4617010Y6032500D03*
X4907990Y9842500D03*
Y11747500D03*
X5252010Y2222500D03*
X5701740Y7937500D03*
X5252010Y9842500D03*
Y11747500D03*
X6495490Y4127500D03*
X6177990Y6032500D03*
X6522010D03*
X6045760Y7937500D03*
X6654240Y2222500D03*
X6998260D03*
X6839510Y4127500D03*
X6971740Y9842500D03*
X7315760D03*
X6733610Y11747500D03*
X7077630D03*
X8082990Y6032500D03*
X7527370Y7937500D03*
X7871390D03*
X8479870Y4127500D03*
X8823890D03*
X8427010Y6032500D03*
X8731250Y11747500D03*
X8876740Y9842500D03*
X9220760D03*
X9075270Y11747500D03*
X9987990Y6032500D03*
X10332010D03*
X9670490Y7937500D03*
X10014510D03*
X10277750Y11747500D03*
X10384870Y4127500D03*
X10728890D03*
X10622990Y9842500D03*
X10967010D03*
X10621770Y11747500D03*
X11416740Y7937500D03*
X11760760D03*
X12289870Y4127500D03*
X11892990Y6032500D03*
X12237010D03*
X12527990Y11747500D03*
X12633890Y4127500D03*
X13242370Y7937500D03*
X12686740Y9842500D03*
X13030760D03*
X12872010Y11747500D03*
X13718610Y2222500D03*
X14062630D03*
X13797990Y6032500D03*
X13586390Y7937500D03*
X14194870Y4127500D03*
X14538890D03*
X14142010Y6032500D03*
X14432990Y9842500D03*
X14777010D03*
X14366870Y11747500D03*
X14710890D03*
X15623610Y6032500D03*
X15147370Y7937500D03*
X15491390D03*
X16179240Y4127500D03*
X15967630Y6032500D03*
X16337990Y9842500D03*
X16258610Y11747500D03*
X16523260Y4127500D03*
X17131740Y7937500D03*
X16682010Y9842500D03*
X16602630Y11747500D03*
X17607990Y6032500D03*
X17475760Y7937500D03*
X18004870Y4127500D03*
X18348890D03*
X17952010Y6032500D03*
X18242990Y9842500D03*
X18587010D03*
X18163610Y11747500D03*
X18507630D03*
X18957370Y7937500D03*
X19301390D03*
X19830490Y4127500D03*
X19592370Y6032500D03*
X19936390D03*
X19989240Y9842500D03*
X20068610Y11747500D03*
X20544870Y2222500D03*
X20888890D03*
X20174510Y4127500D03*
X20862370Y7937500D03*
X20333260Y9842500D03*
X20412630Y11747500D03*
X21417990Y6032500D03*
X21206390Y7937500D03*
X22370490Y2222500D03*
X21735490Y4127500D03*
X22079510D03*
X21762010Y6032500D03*
X21894240Y9842500D03*
X22238260D03*
X21973610Y11747500D03*
X22317630D03*
X22714510Y2222500D03*
X22767370Y7937500D03*
X23111390D03*
X23243610Y6032500D03*
X23587630D03*
X23799240Y9842500D03*
X24143260D03*
X23971250Y11747500D03*
X24315270D03*
X25148610Y4127500D03*
X24751740Y7937500D03*
X25095760D03*
X25492630Y4127500D03*
X25862990Y6032500D03*
X26180490Y9842500D03*
X26577370Y2222500D03*
X26921390D03*
X26207010Y6032500D03*
X26577370Y7937500D03*
X26921390D03*
X26524510Y9842500D03*
X26352500Y11747500D03*
X26696520D03*
X28244240Y2222500D03*
Y4127500D03*
X28588260Y2222500D03*
Y4127500D03*
X30069870Y2222500D03*
X30413890D03*
X32133610Y4127500D03*
X32212990Y6032500D03*
X32054240Y7937500D03*
X32133610Y9842500D03*
X32477630Y4127500D03*
X32557010Y6032500D03*
X32398260Y7937500D03*
X32477630Y9842500D03*
X33086110Y2222500D03*
X33430130D03*
X34276740Y4127500D03*
Y6032500D03*
X34038610Y7937500D03*
X34382630D03*
X34038610Y9842500D03*
X34382630D03*
X34620760Y4127500D03*
Y6032500D03*
X35943610D03*
Y7937500D03*
Y9842500D03*
X36181740Y2222500D03*
X36525760D03*
X36022990Y4127500D03*
X36367010D03*
X36287630Y6032500D03*
Y7937500D03*
Y9842500D03*
X37927990Y4127500D03*
X37848610Y7937500D03*
X38192630D03*
X37769240Y9842500D03*
X38113260D03*
X38272010Y4127500D03*
G54D24*
X30402540Y11288730D03*
Y11413950D03*
G54D33*
X37868730Y13635990D03*
X38733750D03*
G54D15*
X1094360Y12302660D03*
Y12622660D03*
X1556640Y12302660D03*
Y12622660D03*
X2901620Y12302660D03*
X3363900D03*
X2901620Y12622660D03*
X3363900D03*
X4904360Y12302660D03*
Y12622660D03*
X5366640Y12302660D03*
Y12622660D03*
X6729980Y12302660D03*
X7192260D03*
X6729980Y12622660D03*
X7192260D03*
X8818950Y12302660D03*
Y12622660D03*
X9281230Y12302660D03*
Y12622660D03*
X11227940Y12302660D03*
X11690220D03*
X11227940Y12622660D03*
X11690220D03*
X13399050Y12302660D03*
X13861330D03*
X13399050Y12622660D03*
X13861330D03*
X15297400Y12302660D03*
Y12622660D03*
X15759680Y12302660D03*
Y12622660D03*
X16967990Y12302660D03*
Y12622660D03*
X17430270Y12302660D03*
Y12622660D03*
X18786730Y12302660D03*
X19249010D03*
X18786730Y12622660D03*
X19249010D03*
X20514810Y12302660D03*
Y12622660D03*
X20977090Y12302660D03*
Y12622660D03*
X22200070Y12302660D03*
Y12622660D03*
X22662350Y12302660D03*
Y12622660D03*
X23749250Y12302660D03*
Y12622660D03*
X24211530Y12302660D03*
Y12622660D03*
X25439950Y12302660D03*
Y12622660D03*
X25902230Y12302660D03*
Y12622660D03*
X26969870Y12302660D03*
X27432150D03*
X26969870Y12622660D03*
X27432150D03*
X28636850Y12302660D03*
X29099130D03*
X28636850Y12622660D03*
X29099130D03*
G54D25*
X30704200Y13472460D03*
X30958200Y13040460D03*
X31212200Y13472460D03*
G54D16*
X1094360Y12710290D03*
X1555210Y12112740D03*
X2080250Y12449920D03*
X3364230Y12112740D03*
X2901620Y12710290D03*
X4018460Y12449920D03*
X4904360Y12710290D03*
X5366640Y12112740D03*
X5839470Y12385590D03*
X7192290Y12112740D03*
X6729980Y12710290D03*
X7665090Y12385590D03*
X8818950Y12710290D03*
X9281230Y12112740D03*
X9935790Y12308510D03*
X11690220Y12112740D03*
X11227940Y12710290D03*
X12163060Y12385580D03*
X13861330Y12112740D03*
X13399050Y12710290D03*
X14315680Y12472580D03*
X15297400Y12710290D03*
X15759680Y12134320D03*
X16203040Y12472580D03*
X16967990Y12710290D03*
X17430270Y12138090D03*
X17867230Y12462660D03*
X19249010Y12136140D03*
X18786730Y12710290D03*
X19778720Y12462660D03*
X20514810Y12710290D03*
X20977090Y12112740D03*
X21439330Y12462660D03*
X22200070Y12710290D03*
X22662350Y12132200D03*
X23214930Y12462660D03*
X23749250Y12710290D03*
X24211530Y12136420D03*
X24684370Y12462660D03*
X25439950Y12710290D03*
X25902230Y12135130D03*
X26375070Y12385580D03*
X26433540Y13018320D03*
X26798970Y12508160D03*
X27147960Y9446220D03*
X27442030Y12134060D03*
X27227340Y13018320D03*
X28418040Y10240020D03*
X27974820Y12383280D03*
X28894320Y11033820D03*
X29099130Y12137380D03*
X28636850Y12710290D03*
X29291220Y11065560D03*
X29571970Y12385590D03*
X30720060Y11430720D03*
X30402540Y11202890D03*
X30300560Y11063710D03*
X30306350Y10911330D03*
X30479040Y12856680D03*
X30704200Y13683180D03*
X32942700Y10795680D03*
X33736500Y9763740D03*
X33230620Y10300240D03*
X33498360Y11351340D03*
X33101460Y12145140D03*
X33548070Y12747620D03*
X34212780Y10240020D03*
X34371540D03*
X34026940Y10456400D03*
X34371540Y10636920D03*
X33863520Y10169530D03*
X33811680Y11330610D03*
X33928670Y10937390D03*
X34133400Y11351340D03*
X34307290Y11108870D03*
X35085960Y11192580D03*
X35244720Y11589480D03*
X35085960Y12145140D03*
Y12859560D03*
X35959140Y6271020D03*
X35721000Y11033820D03*
X35641620Y11113200D03*
X36181740Y2604000D03*
X36038520Y12780180D03*
X37467360Y10240020D03*
X37387980Y10875060D03*
X37229220D03*
X37308600Y12859560D03*
X37927990Y4747150D03*
X37864260Y8255520D03*
Y10319400D03*
X38102400Y12141420D03*
X37943640Y12780180D03*
X38658060Y11113200D03*
X39051850Y10685660D03*
X39183750Y10785360D03*
X39293100Y11510100D03*
X39054960Y12938940D03*
G54D34*
X38173730Y13335000D03*
X38088740D03*
X38003730D03*
X38088740Y13200000D03*
X38173730D03*
X38003730D03*
X38513740Y13335000D03*
X38428750D03*
X38343730D03*
X38258750D03*
X38598750D03*
X38258750Y13200000D03*
X38343730D03*
X38428750D03*
X38513740D03*
X38598750D03*
G54D17*
X1967810Y12449920D03*
X2017950D03*
X3956160D03*
X3906020D03*
X5777170Y12385590D03*
X5727030D03*
X7602790D03*
X7552650D03*
X9873490Y12308510D03*
X9823350D03*
X12100760Y12385580D03*
X12050620D03*
X14253380Y12472580D03*
X14203240D03*
X16140740D03*
X16090600D03*
X17804930Y12462660D03*
X17754790D03*
X19716420D03*
X19666280D03*
X21377030D03*
X21326890D03*
X23102490D03*
X23152630D03*
X24622070D03*
X24571930D03*
X26312770Y12385580D03*
X26262630D03*
X27912520Y12383280D03*
X27862380D03*
X29509670Y12385590D03*
X29459530D03*
G54D35*
X38889360Y11710680D03*
X38704360D03*
X38639360D03*
X38574360D03*
X38889360Y12448080D03*
X38574360D03*
X38639360D03*
X38704360D03*
X39089360Y11710680D03*
X38989360D03*
Y12448080D03*
X39089360D03*
G54D26*
X31651270Y10276890D03*
Y13376890D03*
X39151260Y10276890D03*
Y13376890D03*
G54D27*
X32151270Y13426870D03*
X32405270D03*
X32659270D03*
X32913270D03*
X33167270D03*
X33421270D03*
X33675270D03*
X33929270D03*
X34183270D03*
X34437270D03*
X34691270D03*
X34945270D03*
X35199270D03*
X35453270D03*
X35707270D03*
X35961270D03*
G54D18*
X27654250Y13493750D03*
X27908250D03*
X28162250D03*
X28416250D03*
G54D36*
X38671860Y11851880D03*
Y11916880D03*
Y11981880D03*
Y12046880D03*
Y12111880D03*
Y12176880D03*
Y12241880D03*
Y12306880D03*
X38606860Y11851880D03*
Y11916880D03*
Y11981880D03*
Y12046880D03*
Y12111880D03*
Y12176880D03*
Y12241880D03*
Y12306880D03*
X38529360Y11851880D03*
Y11916880D03*
Y11981880D03*
Y12046880D03*
Y12111880D03*
Y12176880D03*
Y12241880D03*
Y12306880D03*
X38814360Y12339380D03*
X38749360Y12306880D03*
X38814360Y12274380D03*
X38749360Y12241880D03*
X38814360Y12209380D03*
X38749360Y12176880D03*
X38814360Y12144380D03*
X38749360Y12111880D03*
X38814360Y12079380D03*
X38749360Y12046880D03*
X38814360Y12014380D03*
X38749360Y11981880D03*
X38814360Y11949380D03*
X38749360Y11916880D03*
X38814360Y11884380D03*
X38749360Y11851880D03*
X38814360Y11819380D03*
X38671860Y11774380D03*
X38606860D03*
Y12384380D03*
X38671860D03*
G54D37*
X38465660Y11819380D03*
Y11884380D03*
Y11949380D03*
Y12014380D03*
Y12079380D03*
Y12144380D03*
Y12209380D03*
Y12274380D03*
Y12339380D03*
X39203060Y12329380D03*
Y12229380D03*
Y12129380D03*
Y12029380D03*
Y11929380D03*
Y11829380D03*
G54D28*
X33825990Y11858620D03*
Y11985620D03*
Y12112620D03*
Y12239620D03*
Y12366620D03*
Y12493620D03*
Y12620620D03*
Y12747620D03*
X34754010Y11858620D03*
Y12366620D03*
Y12239620D03*
Y12112620D03*
Y11985620D03*
Y12747620D03*
Y12620620D03*
Y12493620D03*
G54D19*
X28656180Y10827420D03*
X29132460Y10636920D03*
X28494250Y11036990D03*
X29688120Y10064440D03*
X38914110Y11992700D03*
G54D29*
X34947680Y12789010D03*
Y12738870D03*
G54D38*
X38794360Y11730680D03*
Y12428080D03*
G54D39*
X38485660Y11730680D03*
Y12428080D03*
X39183060Y11730680D03*
Y12428080D03*
M02*
