G04 ================== begin FILE IDENTIFICATION RECORD ==================*
G04 Layout Name:  CustomKeyboard.brd*
G04 Film Name:    SPBT*
G04 File Format:  Gerber RS274X*
G04 File Origin:  Cadence Allegro 25.1-P001*
G04 Origin Date:  Sun Feb  8 22:26:49 2026*
G04 *
G04 Layer:  PACKAGE GEOMETRY/PASTEMASK_BOTTOM*
G04 Layer:  VIA CLASS/PASTEMASK_BOTTOM*
G04 Layer:  PIN/PASTEMASK_BOTTOM*
G04 *
G04 Offset:    (0.0000 0.0000)*
G04 Mirror:    No*
G04 Mode:      Positive*
G04 Rotation:  0*
G04 FullContactRelief:  No*
G04 UndefLineWidth:     0.1524*
G04 ================== end FILE IDENTIFICATION RECORD ====================*
%FSLAX35Y35*MOMM*%
%IR0*IPPOS*OFA0.00000B0.00000*MIA0B0*SFA1.00000B1.00000*%
%ADD15R,.8699X.9299*%
%ADD22C,.22*%
%ADD21R,.8801X1.0899*%
%AMMACRO13*
4,1,40,-.9101,-.3,
.9101,-.3,
.92314,-.298822,
.935777,-.295397,
.947628,-.28983,
.958332,-.28229,
.967564,-.273006,
.975043,-.262259,
.980543,-.250377,
.983896,-.237721,
.985,-.225,
.985,.225,
.983839,.238042,
.980432,.250683,
.97488,.262541,
.967354,.273255,
.958082,.2825,
.947346,.289993,
.935471,.295509,
.922819,.298879,
.9101,.3,
-.9101,.3,
-.92314,.298822,
-.935777,.295397,
-.947628,.28983,
-.958332,.28229,
-.967564,.273006,
-.975043,.262259,
-.980543,.250377,
-.983896,.237721,
-.985,.225,
-.985,-.225,
-.983839,-.238042,
-.980432,-.250683,
-.97488,-.262541,
-.967354,-.273255,
-.958082,-.2825,
-.947346,-.289993,
-.935471,-.295509,
-.922819,-.298879,
-.9101,-.3,
0.0*
%
%ADD13MACRO13*%
%ADD20R,.9799X1.7899*%
%ADD24R,.8001X.8001*%
%ADD12R,1.2901X1.6401*%
%ADD10R,1.397X3.4036*%
%ADD18R,.2791X.3317*%
%ADD11R,2.3114X5.588*%
%ADD17R,.8763X.3048*%
%ADD16R,.8992X.8024*%
%AMMACRO19*
4,1,44,-.1999,.73,
-.1999,-.73,
-.199175,-.738653,
-.196959,-.747049,
-.193319,-.754932,
-.188365,-.762063,
-.182247,-.768226,
-.175153,-.773233,
-.167297,-.776932,
-.158918,-.779211,
-.150271,-.78,
-.1501,-.78,
.1501,-.78,
.15875,-.779241,
.167137,-.776991,
.175005,-.773319,
.182117,-.768336,
.188255,-.762194,
.193234,-.75508,
.196901,-.747209,
.199146,-.738821,
.1999,-.730171,
.1999,-.73,
.1999,.73,
.199175,.738653,
.196959,.747049,
.193319,.754932,
.188365,.762063,
.182247,.768226,
.175153,.773233,
.167297,.776932,
.158918,.779211,
.150271,.78,
.1501,.78,
-.1501,.78,
-.15875,.779241,
-.167137,.776991,
-.175005,.773319,
-.182117,.768336,
-.188255,.762194,
-.193234,.75508,
-.196901,.747209,
-.199146,.738821,
-.1999,.730171,
-.1999,.73,
0.0*
%
%ADD19MACRO19*%
%ADD23R,.86X.9799*%
%ADD14R,.8699X.97*%
G75*
%LPD*%
G75*
G36*
G01X29399220Y11301090D02*
X29183220D01*
Y11147090D01*
X29229220D01*
X29265720Y11115600D01*
Y11039580D01*
X29316720D01*
Y11115600D01*
X29353220Y11147090D01*
X29399220D01*
Y11301090D01*
G37*
G54D10*
X26876050Y12783920D03*
X26626070D03*
G54D11*
X26361070Y13443910D03*
X27141050D03*
G54D20*
X37626120Y12859560D03*
G54D12*
X29132460Y10636920D03*
G54D21*
X37626120Y13027560D03*
G54D13*
X28884960Y10827420D03*
Y10700420D03*
Y10573420D03*
Y10446420D03*
X29379960D03*
Y10573420D03*
Y10700420D03*
Y10827420D03*
G54D22*
X38465660Y12339380D03*
X38749360Y11981880D03*
Y12176880D03*
Y11851880D03*
Y11916880D03*
X38529360Y12306880D03*
X38465660Y12274380D03*
X38529360Y12241880D03*
X38465660Y12209380D03*
X38529360Y12176880D03*
X38465660Y12144380D03*
Y12079380D03*
X38749360Y12046880D03*
X38529360D03*
X38465660Y12014380D03*
X38529360Y11981880D03*
X38606860Y12306880D03*
X38814360Y12339380D03*
X38749360Y12306880D03*
Y12241880D03*
X38814360Y12014380D03*
Y12079380D03*
Y12144380D03*
X38485660Y11730680D03*
X38794360D03*
X38889360Y11710680D03*
X38529360Y12111880D03*
X38704360Y11710680D03*
X38465660Y11949380D03*
X38529360Y11916880D03*
X38465660Y11884380D03*
Y11819380D03*
X38529360Y11851880D03*
X38606860Y12111880D03*
Y12176880D03*
Y12241880D03*
X38749360Y12111880D03*
X38574360Y12448080D03*
X38639360D03*
X38485660Y12428080D03*
X38794360D03*
X38889360Y12448080D03*
X38989360Y11710680D03*
X39089360D03*
X39183060Y11730680D03*
X39203060Y11829380D03*
Y11929380D03*
Y12029380D03*
Y12129380D03*
Y12229380D03*
Y12329380D03*
X39183060Y12428080D03*
X39089360Y12448080D03*
X38989360D03*
G54D14*
X29671000Y10912340D03*
X29827000D03*
X29670790Y11067640D03*
X29826790D03*
X30061140Y10911330D03*
X30217140D03*
X33108620Y11133270D03*
X33264620D03*
X33877450Y11144210D03*
X34033450D03*
X38898960Y10795680D03*
X38896200Y11192580D03*
Y10954440D03*
X39054960Y10795680D03*
X39052200Y11192580D03*
Y10954440D03*
G54D23*
X38695130Y12966560D03*
X38848130D03*
G54D24*
X39293100Y10795680D03*
Y11186340D03*
Y11351340D03*
Y10955700D03*
G54D15*
X30060370Y11063710D03*
X30211350D03*
G54D16*
X33387240Y10300240D03*
Y10425460D03*
X33307860Y10668070D03*
Y10793290D03*
X33863520Y10333780D03*
Y10459000D03*
X33942900Y10793290D03*
Y10668070D03*
G54D17*
X33514260Y10795680D03*
Y10730680D03*
Y10665680D03*
X33736500D03*
Y10795680D03*
G54D18*
X33391310Y11197320D03*
Y11247460D03*
G54D19*
X34242290Y10409130D03*
X34307290D03*
X34372310D03*
X34437310D03*
Y10985150D03*
X34372310D03*
X34307290D03*
X34242290D03*
M02*
