G04 ================== begin FILE IDENTIFICATION RECORD ==================*
G04 Layout Name:  CustomKeyboard.brd*
G04 Film Name:    SPTP*
G04 File Format:  Gerber RS274X*
G04 File Origin:  Cadence Allegro 25.1-P001*
G04 Origin Date:  Sun Feb  8 22:26:49 2026*
G04 *
G04 Layer:  PACKAGE GEOMETRY/PASTEMASK_TOP*
G04 Layer:  VIA CLASS/PASTEMASK_TOP*
G04 Layer:  PIN/PASTEMASK_TOP*
G04 *
G04 Offset:    (0.0000 0.0000)*
G04 Mirror:    No*
G04 Mode:      Positive*
G04 Rotation:  0*
G04 FullContactRelief:  No*
G04 UndefLineWidth:     0.1524*
G04 ================== end FILE IDENTIFICATION RECORD ====================*
%FSLAX35Y35*MOMM*%
%IR0*IPPOS*OFA0.00000B0.00000*MIA0B0*SFA1.00000B1.00000*%
%ADD26C,.22*%
%ADD22R,.4X.4*%
%ADD25R,.775X.775*%
%AMMACRO17*
4,1,40,.955,-.3,
-.955,-.3,
-.968042,-.298839,
-.980683,-.295432,
-.992541,-.28988,
-1.003255,-.282354,
-1.012499,-.273082,
-1.019993,-.262346,
-1.025509,-.250471,
-1.028878,-.237819,
-1.03,-.225,
-1.03,.225,
-1.028839,.238042,
-1.025432,.250683,
-1.01988,.262541,
-1.012354,.273255,
-1.003082,.282499,
-.992346,.289993,
-.980471,.295509,
-.967819,.298878,
-.955,.3,
.955,.3,
.968042,.298839,
.980683,.295432,
.992541,.28988,
1.003255,.282354,
1.012499,.273082,
1.019993,.262346,
1.025509,.250471,
1.028878,.237819,
1.03,.225,
1.03,-.225,
1.028839,-.238042,
1.025432,-.250683,
1.01988,-.262541,
1.012354,-.273255,
1.003082,-.282499,
.992346,-.289993,
.980471,-.295509,
.967819,-.298878,
.955,-.3,
0.0*
%
%ADD17MACRO17*%
%ADD11R,1.1938X.8382*%
%ADD16R,1.19X3.3*%
%ADD21R,.4X.3749*%
%ADD10R,.97X.73*%
%ADD24R,.8001X.775*%
%ADD23R,.3749X.4*%
%ADD18R,.2791X.3317*%
%ADD12R,.3317X.2791*%
%ADD15R,.8992X.8024*%
%ADD20R,.8024X.8992*%
%AMMACRO13*
4,1,40,-.4826,.2949,
.4826,.2949,
.508199,.292638,
.533015,.285965,
.556297,.275085,
.577335,.260327,
.59549,.24214,
.610212,.221076,
.621053,.197776,
.627682,.172948,
.6299,.1476,
.6299,-.1476,
.627638,-.173199,
.620965,-.198015,
.610085,-.221297,
.595327,-.242335,
.57714,-.26049,
.556076,-.275212,
.532776,-.286053,
.507948,-.292682,
.4826,-.2949,
-.4826,-.2949,
-.508199,-.292638,
-.533015,-.285965,
-.556297,-.275085,
-.577335,-.260327,
-.59549,-.24214,
-.610212,-.221076,
-.621053,-.197776,
-.627682,-.172948,
-.6299,-.1476,
-.6299,.1476,
-.627638,.173199,
-.620965,.198015,
-.610085,.221297,
-.595327,.242335,
-.57714,.26049,
-.556076,.275212,
-.532776,.286053,
-.507948,.292682,
-.4826,.2949,
0.0*
%
%ADD13MACRO13*%
%ADD14R,.9799X.86*%
%ADD19R,.86X.9799*%
%LPD*%
G75*
G54D10*
X1097990Y2222500D03*
X939240Y9842500D03*
X1283260D03*
X1097990Y11747500D03*
X1442010Y2222500D03*
X1812370Y4127500D03*
X1709240Y6043370D03*
X2053260D03*
X1415490Y7937500D03*
X1759510D03*
X1442010Y11747500D03*
X2156390Y4127500D03*
X3002990Y2222500D03*
X3347010D03*
X3002990Y9842500D03*
X3347010D03*
X3016250Y11747500D03*
X3360270D03*
X4272990Y6032500D03*
X3796740Y7937500D03*
X4140760D03*
X4907990Y2222500D03*
X4669870Y4127500D03*
X5013890D03*
X4617010Y6032500D03*
X4907990Y9842500D03*
Y11747500D03*
X5252010Y2222500D03*
X5701740Y7937500D03*
X5252010Y9842500D03*
Y11747500D03*
X6495490Y4127500D03*
X6177990Y6032500D03*
X6522010D03*
X6045760Y7937500D03*
X6654240Y2222500D03*
X6998260D03*
X6839510Y4127500D03*
X6971740Y9842500D03*
X7315760D03*
X6733610Y11747500D03*
X7077630D03*
X8082990Y6032500D03*
X7527370Y7937500D03*
X7871390D03*
X8479870Y4127500D03*
X8823890D03*
X8427010Y6032500D03*
X8731250Y11747500D03*
X8876740Y9842500D03*
X9220760D03*
X9075270Y11747500D03*
X9987990Y6032500D03*
X10332010D03*
X9670490Y7937500D03*
X10014510D03*
X10277750Y11747500D03*
X10384870Y4127500D03*
X10728890D03*
X10622990Y9842500D03*
X10967010D03*
X10621770Y11747500D03*
X11416740Y7937500D03*
X11760760D03*
X12289870Y4127500D03*
X11892990Y6032500D03*
X12237010D03*
X12527990Y11747500D03*
X12633890Y4127500D03*
X13242370Y7937500D03*
X12686740Y9842500D03*
X13030760D03*
X12872010Y11747500D03*
X13718610Y2222500D03*
X14062630D03*
X13797990Y6032500D03*
X13586390Y7937500D03*
X14194870Y4127500D03*
X14538890D03*
X14142010Y6032500D03*
X14432990Y9842500D03*
X14777010D03*
X14366870Y11747500D03*
X14710890D03*
X15623610Y6032500D03*
X15147370Y7937500D03*
X15491390D03*
X16179240Y4127500D03*
X15967630Y6032500D03*
X16337990Y9842500D03*
X16258610Y11747500D03*
X16523260Y4127500D03*
X17131740Y7937500D03*
X16682010Y9842500D03*
X16602630Y11747500D03*
X17607990Y6032500D03*
X17475760Y7937500D03*
X18004870Y4127500D03*
X18348890D03*
X17952010Y6032500D03*
X18242990Y9842500D03*
X18587010D03*
X18163610Y11747500D03*
X18507630D03*
X18957370Y7937500D03*
X19301390D03*
X19830490Y4127500D03*
X19592370Y6032500D03*
X19936390D03*
X19989240Y9842500D03*
X20068610Y11747500D03*
X20544870Y2222500D03*
X20888890D03*
X20174510Y4127500D03*
X20862370Y7937500D03*
X20333260Y9842500D03*
X20412630Y11747500D03*
X21417990Y6032500D03*
X21206390Y7937500D03*
X22370490Y2222500D03*
X21735490Y4127500D03*
X22079510D03*
X21762010Y6032500D03*
X21894240Y9842500D03*
X22238260D03*
X21973610Y11747500D03*
X22317630D03*
X22714510Y2222500D03*
X22767370Y7937500D03*
X23111390D03*
X23243610Y6032500D03*
X23587630D03*
X23799240Y9842500D03*
X24143260D03*
X23971250Y11747500D03*
X24315270D03*
X25148610Y4127500D03*
X24751740Y7937500D03*
X25095760D03*
X25492630Y4127500D03*
X25862990Y6032500D03*
X26180490Y9842500D03*
X26577370Y2222500D03*
X26921390D03*
X26207010Y6032500D03*
X26577370Y7937500D03*
X26921390D03*
X26524510Y9842500D03*
X26352500Y11747500D03*
X26696520D03*
X28244240Y2222500D03*
Y4127500D03*
X28588260Y2222500D03*
Y4127500D03*
X30069870Y2222500D03*
X30413890D03*
X32133610Y4127500D03*
X32212990Y6032500D03*
X32054240Y7937500D03*
X32133610Y9842500D03*
X32477630Y4127500D03*
X32557010Y6032500D03*
X32398260Y7937500D03*
X32477630Y9842500D03*
X33086110Y2222500D03*
X33430130D03*
X34276740Y4127500D03*
Y6032500D03*
X34038610Y7937500D03*
X34382630D03*
X34038610Y9842500D03*
X34382630D03*
X34620760Y4127500D03*
Y6032500D03*
X35943610D03*
Y7937500D03*
Y9842500D03*
X36181740Y2222500D03*
X36525760D03*
X36022990Y4127500D03*
X36367010D03*
X36287630Y6032500D03*
Y7937500D03*
Y9842500D03*
X37927990Y4127500D03*
X37848610Y7937500D03*
X38192630D03*
X37769240Y9842500D03*
X38113260D03*
X38272010Y4127500D03*
G54D20*
X38215320Y12700800D03*
X38340540D03*
G54D11*
X1094360Y12302660D03*
Y12622660D03*
X1556640Y12302660D03*
Y12622660D03*
X2901620Y12302660D03*
X3363900D03*
X2901620Y12622660D03*
X3363900D03*
X4904360Y12302660D03*
Y12622660D03*
X5366640Y12302660D03*
Y12622660D03*
X6729980Y12302660D03*
X7192260D03*
X6729980Y12622660D03*
X7192260D03*
X8818950Y12302660D03*
Y12622660D03*
X9281230Y12302660D03*
Y12622660D03*
X11227940Y12302660D03*
X11690220D03*
X11227940Y12622660D03*
X11690220D03*
X13399050Y12302660D03*
X13861330D03*
X13399050Y12622660D03*
X13861330D03*
X15297400Y12302660D03*
Y12622660D03*
X15759680Y12302660D03*
Y12622660D03*
X16967990Y12302660D03*
Y12622660D03*
X17430270Y12302660D03*
Y12622660D03*
X18786730Y12302660D03*
X19249010D03*
X18786730Y12622660D03*
X19249010D03*
X20514810Y12302660D03*
Y12622660D03*
X20977090Y12302660D03*
Y12622660D03*
X22200070Y12302660D03*
Y12622660D03*
X22662350Y12302660D03*
Y12622660D03*
X23749250Y12302660D03*
Y12622660D03*
X24211530Y12302660D03*
Y12622660D03*
X25439950Y12302660D03*
Y12622660D03*
X25902230Y12302660D03*
Y12622660D03*
X26969870Y12302660D03*
X27432150D03*
X26969870Y12622660D03*
X27432150D03*
X28636850Y12302660D03*
X29099130D03*
X28636850Y12622660D03*
X29099130D03*
G54D12*
X1967810Y12449920D03*
X2017950D03*
X3956160D03*
X3906020D03*
X5777170Y12385590D03*
X5727030D03*
X7602790D03*
X7552650D03*
X9873490Y12308510D03*
X9823350D03*
X12100760Y12385580D03*
X12050620D03*
X14253380Y12472580D03*
X14203240D03*
X16140740D03*
X16090600D03*
X17804930Y12462660D03*
X17754790D03*
X19716420D03*
X19666280D03*
X21377030D03*
X21326890D03*
X23102490D03*
X23152630D03*
X24622070D03*
X24571930D03*
X26312770Y12385580D03*
X26262630D03*
X27912520Y12383280D03*
X27862380D03*
X29509670Y12385590D03*
X29459530D03*
G54D21*
X38889360Y11710680D03*
X38704360D03*
X38639360D03*
X38574360D03*
X38889360Y12448080D03*
X38574360D03*
X38639360D03*
X38704360D03*
X39089360Y11710680D03*
X38989360D03*
Y12448080D03*
X39089360D03*
G54D13*
X29820590Y12716420D03*
X30016570Y12811420D03*
Y12621420D03*
X36339730Y13106410D03*
X36143750Y13201410D03*
X36339730Y13296410D03*
G54D22*
X38671860Y11851880D03*
Y11916880D03*
Y11981880D03*
Y12046880D03*
Y12111880D03*
Y12176880D03*
Y12241880D03*
Y12306880D03*
X38606860Y11851880D03*
Y11916880D03*
Y11981880D03*
Y12046880D03*
Y12111880D03*
Y12176880D03*
Y12241880D03*
Y12306880D03*
X38529360Y11851880D03*
Y11916880D03*
Y11981880D03*
Y12046880D03*
Y12111880D03*
Y12176880D03*
Y12241880D03*
Y12306880D03*
X38814360Y12339380D03*
X38749360Y12306880D03*
X38814360Y12274380D03*
X38749360Y12241880D03*
X38814360Y12209380D03*
X38749360Y12176880D03*
X38814360Y12144380D03*
X38749360Y12111880D03*
X38814360Y12079380D03*
X38749360Y12046880D03*
X38814360Y12014380D03*
X38749360Y11981880D03*
X38814360Y11949380D03*
X38749360Y11916880D03*
X38814360Y11884380D03*
X38749360Y11851880D03*
X38814360Y11819380D03*
X38671860Y11774380D03*
X38606860D03*
Y12384380D03*
X38671860D03*
G54D14*
X29608740Y12856680D03*
Y12703680D03*
X30243780Y12856680D03*
Y12703680D03*
G54D23*
X38465660Y11819380D03*
Y11884380D03*
Y11949380D03*
Y12014380D03*
Y12079380D03*
Y12144380D03*
Y12209380D03*
Y12274380D03*
Y12339380D03*
X39203060Y12329380D03*
Y12229380D03*
Y12129380D03*
Y12029380D03*
Y11929380D03*
Y11829380D03*
G54D15*
X30402540Y11288730D03*
Y11413950D03*
G54D24*
X38794360Y11730680D03*
Y12428080D03*
G54D16*
X30704200Y13472460D03*
X30958200Y13040460D03*
X31212200Y13472460D03*
G54D25*
X38485660Y11730680D03*
Y12428080D03*
X39183060Y11730680D03*
Y12428080D03*
G54D17*
X33825990Y11858620D03*
Y11985620D03*
Y12112620D03*
Y12239620D03*
Y12366620D03*
Y12493620D03*
Y12620620D03*
Y12747620D03*
X34754010Y11858620D03*
Y12366620D03*
Y12239620D03*
Y12112620D03*
Y11985620D03*
Y12747620D03*
Y12620620D03*
Y12493620D03*
G54D26*
X38465660Y12339380D03*
X38749360Y11981880D03*
Y12176880D03*
Y11851880D03*
Y11916880D03*
X38529360Y12306880D03*
X38465660Y12274380D03*
X38529360Y12241880D03*
X38465660Y12209380D03*
X38529360Y12176880D03*
X38465660Y12144380D03*
Y12079380D03*
X38749360Y12046880D03*
X38529360D03*
X38465660Y12014380D03*
X38529360Y11981880D03*
X38606860Y12306880D03*
X38814360Y12339380D03*
X38749360Y12306880D03*
Y12241880D03*
X38814360Y12014380D03*
Y12079380D03*
Y12144380D03*
X38485660Y11730680D03*
X38794360D03*
X38889360Y11710680D03*
X38529360Y12111880D03*
X38704360Y11710680D03*
X38465660Y11949380D03*
X38529360Y11916880D03*
X38465660Y11884380D03*
Y11819380D03*
X38529360Y11851880D03*
X38606860Y12111880D03*
Y12176880D03*
Y12241880D03*
X38749360Y12111880D03*
X38574360Y12448080D03*
X38639360D03*
X38485660Y12428080D03*
X38794360D03*
X38889360Y12448080D03*
X38989360Y11710680D03*
X39089360D03*
X39183060Y11730680D03*
X39203060Y11829380D03*
Y11929380D03*
Y12029380D03*
Y12129380D03*
Y12229380D03*
Y12329380D03*
X39183060Y12428080D03*
X39089360Y12448080D03*
X38989360D03*
G54D18*
X34947680Y12789010D03*
Y12738870D03*
G54D19*
X35168220Y12462660D03*
Y12621420D03*
X35321220Y12462660D03*
Y12621420D03*
X36591300Y12938940D03*
X36438300D03*
X37497140Y13469660D03*
X37650140D03*
M02*
