G04 ================== begin FILE IDENTIFICATION RECORD ==================*
G04 Layout Name:  CustomKeyboard.brd*
G04 Film Name:    TOP*
G04 File Format:  Gerber RS274X*
G04 File Origin:  Cadence Allegro 25.1-P001*
G04 Origin Date:  Sun Feb  8 22:26:49 2026*
G04 *
G04 Layer:  VIA CLASS/TOP*
G04 Layer:  PIN/TOP*
G04 Layer:  ETCH/TOP*
G04 *
G04 Offset:    (0.0000 0.0000)*
G04 Mirror:    No*
G04 Mode:      Positive*
G04 Rotation:  0*
G04 FullContactRelief:  No*
G04 UndefLineWidth:     0.1524*
G04 ================== end FILE IDENTIFICATION RECORD ====================*
%FSLAX35Y35*MOMM*%
%IR0*IPPOS*OFA0.00000B0.00000*MIA0B0*SFA1.00000B1.00000*%
%ADD40C,.22*%
%ADD19C,.4*%
%ADD36R,.4X.4*%
%ADD34C,.65*%
%ADD16C,.6604*%
%ADD32O,.8999X2.4*%
%ADD39R,.775X.775*%
%ADD33O,.8999X1.7*%
%AMMACRO28*
4,1,40,.955,-.3,
-.955,-.3,
-.968042,-.298839,
-.980683,-.295432,
-.992541,-.28988,
-1.003255,-.282354,
-1.012499,-.273082,
-1.019993,-.262346,
-1.025509,-.250471,
-1.028878,-.237819,
-1.03,-.225,
-1.03,.225,
-1.028839,.238042,
-1.025432,.250683,
-1.01988,.262541,
-1.012354,.273255,
-1.003082,.282499,
-.992346,.289993,
-.980471,.295509,
-.967819,.298878,
-.955,.3,
.955,.3,
.968042,.298839,
.980683,.295432,
.992541,.28988,
1.003255,.282354,
1.012499,.273082,
1.019993,.262346,
1.025509,.250471,
1.028878,.237819,
1.03,.225,
1.03,-.225,
1.028839,-.238042,
1.025432,-.250683,
1.01988,-.262541,
1.012354,-.273255,
1.003082,-.282499,
.992346,-.289993,
.980471,-.295509,
.967819,-.298878,
.955,-.3,
0.0*
%
%ADD28MACRO28*%
%ADD15R,1.1938X.8382*%
%ADD25R,1.19X3.3*%
%ADD18C,1.3*%
%ADD10C,4.*%
%ADD27C,1.4*%
%ADD26C,2.5001*%
%ADD20R,1.3X1.3*%
%ADD11C,1.7018*%
%ADD35R,.4X.3749*%
%ADD14R,.97X.73*%
%ADD13C,2.286*%
%ADD38R,.8001X.775*%
%ADD37R,.3749X.4*%
%ADD29R,.2791X.3317*%
%ADD21C,1.5199*%
%ADD17R,.3317X.2791*%
%ADD24R,.8992X.8024*%
%ADD31R,.8024X.8992*%
%ADD12C,3.9878*%
%AMMACRO22*
4,1,40,-.4826,.2949,
.4826,.2949,
.508199,.292638,
.533015,.285965,
.556297,.275085,
.577335,.260327,
.59549,.24214,
.610212,.221076,
.621053,.197776,
.627682,.172948,
.6299,.1476,
.6299,-.1476,
.627638,-.173199,
.620965,-.198015,
.610085,-.221297,
.595327,-.242335,
.57714,-.26049,
.556076,-.275212,
.532776,-.286053,
.507948,-.292682,
.4826,-.2949,
-.4826,-.2949,
-.508199,-.292638,
-.533015,-.285965,
-.556297,-.275085,
-.577335,-.260327,
-.59549,-.24214,
-.610212,-.221076,
-.621053,-.197776,
-.627682,-.172948,
-.6299,-.1476,
-.6299,.1476,
-.627638,.173199,
-.620965,.198015,
-.610085,.221297,
-.595327,.242335,
-.57714,.26049,
-.556076,.275212,
-.532776,.286053,
-.507948,.292682,
-.4826,.2949,
0.0*
%
%ADD22MACRO22*%
%ADD23R,.9799X.86*%
%ADD30R,.86X.9799*%
%ADD41C,.1*%
%ADD42C,.2032*%
%ADD43C,.127*%
%ADD44C,.02*%
%ADD45C,.04*%
%ADD46C,.6544*%
%ADD47C,.9148*%
%ADD48C,2.907*%
%ADD49C,1.5544*%
%ADD50C,1.6544*%
G75*
%LPD*%
G75*
G36*
G01X27427250Y11590490D02*
G02X27443030Y11598960I10160J5D01*
G03X27453570Y11595780I10540J15877D01*
G01X27670350D01*
X27769520Y11496620D01*
G03X27783000Y11491030I13488J13477D01*
G01X28735560D01*
G03X28749040Y11496620I-8J19067D01*
G01X28822840Y11570410D01*
X28836020D01*
G02X28839610Y11561740I-3J-5080D01*
G01X28647540Y11369660D01*
G03X28641950Y11356180I13477J-13488D01*
G01Y10856880D01*
G03X28623460Y10827420I14224J-29460D01*
G03X28688900I32720J0D01*
G03X28680090Y10849760I-32729J0D01*
G01Y11348280D01*
X28902220Y11570410D01*
X30214270D01*
X30344860Y11439820D01*
Y11373830D01*
G03X30352120Y11362340I12722J0D01*
G01X30355020Y11360960D01*
Y11341720D01*
X30352120Y11340340D01*
G03X30344860Y11328850I5462J-11490D01*
G01Y11248610D01*
G03X30354400Y11236300I12712J0D01*
G02X30361060Y11222180I-2551J-9834D01*
G03X30356800Y11202890I41483J-19276D01*
G03X30448280I45740J0D01*
G03X30444020Y11222180I-45743J14D01*
G02X30450680Y11236300I9211J4286D01*
G03X30460220Y11248610I-3172J12310D01*
G01Y11328850D01*
G03X30452960Y11340340I-12722J0D01*
G01X30450060Y11341720D01*
Y11360960D01*
X30452960Y11362340D01*
G03X30460220Y11373830I-5462J11490D01*
G01Y11394880D01*
X30691640D01*
G03X30720060Y11384980I28420J35843D01*
G03Y11476460I0J45740D01*
G03X30674800Y11437360I0J-45745D01*
G01X30674170Y11433020D01*
X30460220D01*
Y11454070D01*
G03X30447500Y11466790I-12720J0D01*
G01X30371830D01*
X30285550Y11553070D01*
G02X30292740Y11570410I7187J7181D01*
G01X30712160D01*
X30865340Y11417240D01*
G03X30878820Y11411650I13488J13477D01*
G01X35967950D01*
G02X35975140Y11394310I3J-10159D01*
G01X35713100Y11132270D01*
X35683200D01*
G03X35641620Y11158940I-41580J-19078D01*
G03Y11067460I0J-45740D01*
G03X35683200Y11094130I0J45748D01*
G01X35721000D01*
G03X35734480Y11099720I-8J19067D01*
G01X36125800Y11491030D01*
X36138980D01*
G02X36142570Y11482360I-3J-5080D01*
G01X35736990Y11076780D01*
X35734090Y11077650D01*
G03X35721000Y11079560I-13080J-43831D01*
G03X35766740Y11033820I0J-45740D01*
G03X35764830Y11046910I-45741J10D01*
G01X35763960Y11049810D01*
X36179780Y11465630D01*
X37609530D01*
G02X37616720Y11448290I3J-10159D01*
G01X37215740Y11047300D01*
G03X37210150Y11033820I13477J-13488D01*
G01Y10916640D01*
G03X37183480Y10875060I19078J-41580D01*
G03X37274960I45740J0D01*
G03X37248290Y10916640I-45748J0D01*
G01Y11025920D01*
X37662600Y11440230D01*
X37742890D01*
G02X37750080Y11422890I3J-10159D01*
G01X37374500Y11047300D01*
G03X37368910Y11033820I13477J-13488D01*
G01Y10916640D01*
G03X37342240Y10875060I19078J-41580D01*
G03X37433720I45740J0D01*
G03X37407050Y10916640I-45748J0D01*
G01Y11025920D01*
X37792060Y11410930D01*
X38128560D01*
G03X38138950Y11414010I0J19065D01*
G01X38140210Y11414830D01*
X38179380D01*
G03X38192970Y11420530I-7J19067D01*
G03X38199610Y11424200I-3057J13373D01*
G01X38206280Y11430870D01*
G03X38210300Y11440570I-9693J9700D01*
G01Y11455950D01*
X38241730Y11487380D01*
X38344300D01*
G03X38354000Y11491400I0J13713D01*
G01X38355980Y11493380D01*
X38488220D01*
G02X38495400Y11476040I-4J-10158D01*
G01X38488490Y11469120D01*
X38482290D01*
G03X38472590Y11465100I0J-13713D01*
G01X38456640Y11449150D01*
X38454860Y11448960D01*
G03X38443410Y11443480I2037J-18958D01*
G01X38396320Y11396400D01*
X38049010D01*
G03X38035530Y11390810I8J-19067D01*
G01X37612640Y10967920D01*
G03X37607050Y10954440I13477J-13488D01*
G01Y10565440D01*
X37459460Y10417850D01*
X35490760D01*
X35184410Y10724200D01*
Y11113200D01*
G03X35178820Y11126680I-19067J-8D01*
G01X35128920Y11176590D01*
X35129790Y11179490D01*
G03X35131700Y11192580I-43831J13080D01*
G03X35085960Y11146840I-45740J0D01*
G03X35099050Y11148750I10J45741D01*
G01X35101950Y11149620D01*
X35146270Y11105300D01*
Y10716300D01*
G03X35151860Y10702820I19067J8D01*
G01X35469380Y10385300D01*
G03X35482860Y10379710I13488J13477D01*
G01X37467360D01*
G03X37480840Y10385300I-8J19067D01*
G01X37639600Y10544060D01*
G03X37645190Y10557540I-13477J13488D01*
G01Y10946540D01*
X38056910Y11358260D01*
X38369580D01*
G02X38376770Y11340920I3J-10159D01*
G01X37755760Y10719900D01*
G03X37750170Y10706420I13477J-13488D01*
G01Y9891720D01*
X37734990D01*
X37726330Y9900380D01*
Y9904480D01*
G03X37720740Y9917960I-19067J-8D01*
G01X37613700Y10025000D01*
G03X37600220Y10030590I-13488J-13477D01*
G01X35931680D01*
G03X35922250Y10028090I9J-19068D01*
G03X35911740Y10031250I-10510J-15898D01*
G01X34069850D01*
G03X34056050Y10037160I-13800J-13157D01*
G03X34042570Y10031570I8J-19067D01*
G01X34031940Y10020950D01*
X32148910D01*
G03X32136830Y10016630I6J-19068D01*
G02X32130390I-3220J3935D01*
G03X32118310Y10020950I-12086J-14748D01*
G01X27427250D01*
Y11590490D01*
G37*
G36*
G01X38795760Y13713740D02*
X39293100D01*
Y13459610D01*
G02X39274340Y13454210I-10159J7D01*
G03X39151260Y13522240I-123080J-77323D01*
G03Y13231540I0J-145350D01*
G03X39274340Y13299570I0J145353D01*
G02X39293100Y13294170I8601J-5407D01*
G01Y11544430D01*
X39288680Y11543850D01*
G03Y11476350I4418J-33750D01*
G01X39293100Y11475770D01*
Y10359610D01*
G02X39274340Y10354210I-10159J7D01*
G03X39151260Y10422240I-123080J-77323D01*
G03Y10131540I0J-145350D01*
G03X39274340Y10199570I0J145353D01*
G02X39293100Y10194170I8601J-5407D01*
G01Y9437090D01*
X38633610D01*
G03X38391890I-120860J-39096D01*
G01X38132330D01*
Y9793280D01*
X38161760D01*
G03X38174480Y9806000I0J12720D01*
G01Y9879000D01*
G03X38161760Y9891720I-12720J0D01*
G01X38064760D01*
G03X38052040Y9879000I0J-12720D01*
G01Y9806000D01*
G03X38064760Y9793280I12720J0D01*
G01X38094190D01*
Y9437090D01*
X36728610D01*
G03X36486890I-120860J-39096D01*
G01X36314450D01*
G02X36305130Y9451290I-1J10158D01*
G03X36306700Y9458860I-17503J7578D01*
G01Y9793280D01*
X36336130D01*
G03X36348850Y9806000I0J12720D01*
G01Y9879000D01*
G03X36336130Y9891720I-12720J0D01*
G01X36239130D01*
G03X36226410Y9879000I0J-12720D01*
G01Y9806000D01*
G03X36239130Y9793280I12720J0D01*
G01X36268560D01*
Y9466780D01*
X36238870Y9437090D01*
X34823610D01*
G03X34581890I-120860J-39096D01*
G01X34409450D01*
G02X34400130Y9451290I-1J10158D01*
G03X34401700Y9458860I-17503J7578D01*
G01Y9793280D01*
X34431130D01*
G03X34443850Y9806000I0J12720D01*
G01Y9879000D01*
G03X34431130Y9891720I-12720J0D01*
G01X34334130D01*
G03X34321410Y9879000I0J-12720D01*
G01Y9806000D01*
G03X34334130Y9793280I12720J0D01*
G01X34363560D01*
Y9466780D01*
X34333870Y9437090D01*
X32898340D01*
G03X32656620I-120860J-39096D01*
G01X32487060D01*
G02X32479880Y9454430I7J10159D01*
G01X32491110Y9465670D01*
G03X32496700Y9479150I-13477J13488D01*
G01Y9793280D01*
X32526130D01*
G03X32538850Y9806000I0J12720D01*
G01Y9879000D01*
G03X32526130Y9891720I-12720J0D01*
G01X32429130D01*
G03X32416410Y9879000I0J-12720D01*
G01Y9806000D01*
G03X32429130Y9793280I12720J0D01*
G01X32458560D01*
Y9487050D01*
X32408600Y9437090D01*
X27427250D01*
Y9982810D01*
X32110410D01*
X32114540Y9978680D01*
Y9891720D01*
X32085110D01*
G03X32072390Y9879000I0J-12720D01*
G01Y9806000D01*
G03X32085110Y9793280I12720J0D01*
G01X32182110D01*
G03X32194830Y9806000I0J12720D01*
G01Y9879000D01*
G03X32182110Y9891720I-12720J0D01*
G01X32152680D01*
Y9978680D01*
X32156810Y9982810D01*
X34039840D01*
G03X34046890Y9984160I0J19083D01*
G02X34060810Y9974720I3761J-9438D01*
G01Y9947230D01*
X34025130Y9911540D01*
G03X34019540Y9898060I13477J-13488D01*
G01Y9891720D01*
X33990110D01*
G03X33977390Y9879000I0J-12720D01*
G01Y9806000D01*
G03X33990110Y9793280I12720J0D01*
G01X34087110D01*
G03X34099830Y9806000I0J12720D01*
G01Y9879000D01*
G03X34087110Y9891720I-12720J0D01*
G01X34083760D01*
G02X34076580Y9909060I7J10159D01*
G01X34093360Y9925850D01*
G03X34098950Y9939330I-13477J13488D01*
G01Y9993110D01*
X35903840D01*
X35924540Y9972410D01*
Y9891720D01*
X35895110D01*
G03X35882390Y9879000I0J-12720D01*
G01Y9806000D01*
G03X35895110Y9793280I12720J0D01*
G01X35992110D01*
G03X36004830Y9806000I0J12720D01*
G01Y9879000D01*
G03X35992110Y9891720I-12720J0D01*
G01X35962680D01*
Y9992450D01*
X37592320D01*
X37688190Y9896580D01*
Y9892480D01*
G03X37693780Y9879000I19067J8D01*
G01X37708020Y9864750D01*
Y9806000D01*
G03X37720740Y9793280I12720J0D01*
G01X37817740D01*
G03X37830460Y9806000I0J12720D01*
G01Y9879000D01*
G03X37817740Y9891720I-12720J0D01*
G01X37788310D01*
Y10698520D01*
X38506300Y11416520D01*
G03X38511600Y11426660I-13471J13496D01*
G01X38511880Y11428240D01*
X38754560Y11670920D01*
G03X38758870Y11681330I-10417J10410D01*
G01Y11681340D01*
G03X38758490Y11684680I-14722J17D01*
G01X38758350Y11685250D01*
Y11690910D01*
X38834360D01*
G03X38835380Y11691930I0J1020D01*
G01Y11769430D01*
G03X38834360Y11770450I-1020J0D01*
G01X38773990D01*
G02X38763930Y11782050I-2J10160D01*
G03X38764080Y11784130I-14569J2096D01*
G01Y11830860D01*
X38769360D01*
G03X38770380Y11831880I0J1020D01*
G01Y11871880D01*
G03X38769360Y11872900I-1020J0D01*
G01X38749310D01*
G02X38742130Y11890240I4J10158D01*
G01X38747740Y11895860D01*
X38769360D01*
G03X38770380Y11896880I0J1020D01*
G01Y11936880D01*
G03X38769360Y11937900I-1020J0D01*
G01X38729360D01*
G03X38728340Y11936880I0J-1020D01*
G01Y11915260D01*
X38725700Y11912620D01*
G02X38717030Y11916210I-3589J3596D01*
G01Y12016120D01*
X38726770Y12025860D01*
X38769360D01*
G03X38770380Y12026880I0J1020D01*
G01Y12066880D01*
G03X38769360Y12067900I-1020J0D01*
G01X38740150D01*
G02X38731750Y12083770I6J10161D01*
G03X38733480Y12087320I-11339J7722D01*
G01X38734600Y12090860D01*
X38769360D01*
G03X38770380Y12091880I0J1020D01*
G01Y12131880D01*
G03X38769360Y12132900I-1020J0D01*
G01X38734120D01*
Y12142240D01*
X38747740Y12155860D01*
X38769360D01*
G03X38770380Y12156880I0J1020D01*
G01Y12196880D01*
G03X38769360Y12197900I-1020J0D01*
G01X38729360D01*
G03X38728340Y12196880I0J-1020D01*
G01Y12175260D01*
X38710700Y12157620D01*
G03X38706680Y12147920I9693J-9700D01*
G01Y12097150D01*
X38702530Y12093000D01*
X38692880D01*
Y12131880D01*
G03X38691860Y12132900I-1020J0D01*
G01X38651860D01*
G03X38650840Y12131880I0J-1020D01*
G01Y12093000D01*
X38627880D01*
Y12131880D01*
G03X38626860Y12132900I-1020J0D01*
G01X38586860D01*
G03X38585840Y12131880I0J-1020D01*
G01Y12093000D01*
X38550380D01*
Y12131880D01*
G03X38549360Y12132900I-1020J0D01*
G01X38527740D01*
X38522130Y12138520D01*
G02X38529310Y12155860I7184J7182D01*
G01X38549360D01*
G03X38550380Y12156880I0J1020D01*
G01Y12196880D01*
G03X38549360Y12197900I-1020J0D01*
G01X38509360D01*
G03X38508340Y12196880I0J-1020D01*
G01Y12178740D01*
X38499810D01*
X38498540Y12181950D01*
G03X38489230Y12190160I-12748J-5072D01*
G01X38485420Y12191150D01*
Y12229380D01*
G03X38484400Y12230400I-1020J0D01*
G01X38446920D01*
G03X38445900Y12229380I0J-1020D01*
G01Y12190600D01*
X38235100D01*
X38198530Y12227170D01*
X38198340Y12228950D01*
G03X38192860Y12240400I-18958J-2037D01*
G01X38115880Y12317380D01*
G03X38102400Y12322970I-13488J-13477D01*
G01X36681460D01*
X36369520Y12634900D01*
G03X36356040Y12640490I-13488J-13477D01*
G01X35808280D01*
X35734480Y12714280D01*
G03X35721000Y12719870I-13488J-13477D01*
G01X35649520D01*
X35496340Y12873040D01*
G03X35482860Y12878630I-13488J-13477D01*
G01X35244720D01*
G03X35231240Y12873040I8J-19067D01*
G01X35151860Y12793660D01*
G03X35146270Y12780180I13477J-13488D01*
G01Y12683140D01*
X35125220D01*
G03X35112500Y12670420I0J-12720D01*
G01Y12605420D01*
X35111220Y12604140D01*
X35101650D01*
X35100240Y12605540D01*
X35100110Y12608040D01*
G03X35094520Y12621420I-19090J-118D01*
G01X35081820Y12634120D01*
G03X35067450Y12639690I-13500J-13507D01*
G01X35043790D01*
G03X35029420Y12634120I-870J-19077D01*
G01X35016720Y12621420D01*
G03X35011130Y12608040I13500J-13498D01*
G01X35011000Y12605540D01*
X35009590Y12604140D01*
X35000050D01*
X34998640Y12605540D01*
X34998510Y12608040D01*
G03X34992920Y12621420I-19090J-118D01*
G01X34980220Y12634120D01*
G03X34965850Y12639690I-13500J-13507D01*
G01X34942190D01*
G03X34927820Y12634120I-870J-19077D01*
G01X34915120Y12621420D01*
G03X34909530Y12608040I13500J-13498D01*
G01X34909400Y12605540D01*
X34907990Y12604140D01*
X34898450D01*
X34897040Y12605540D01*
X34896860Y12608950D01*
G03X34891300Y12621400I-19039J-1036D01*
G01X34878600Y12634100D01*
G03X34872770Y12638090I-13498J-13468D01*
G01X34869730Y12639420D01*
Y12643130D01*
G03X34849520Y12663340I-20231J-21D01*
G01X34658500D01*
G03X34638290Y12643130I21J-20231D01*
G01Y12598110D01*
G03X34658500Y12577900I20231J21D01*
G01X34849520D01*
G03X34861110Y12581570I-30J20230D01*
G01X34864590Y12584000D01*
X34877020Y12571570D01*
G03X34891390Y12566000I13500J13507D01*
G01X34915050D01*
G03X34929420Y12571570I870J19077D01*
G01X34942120Y12584270D01*
G03X34947710Y12597650I-13500J13498D01*
G01X34947840Y12600150D01*
X34949250Y12601550D01*
X34958790D01*
X34960200Y12600150D01*
X34960330Y12597650D01*
G03X34965920Y12584270I19090J118D01*
G01X34978620Y12571570D01*
G03X34992990Y12566000I13500J13507D01*
G01X35016650D01*
G03X35031020Y12571570I870J19077D01*
G01X35043720Y12584270D01*
G03X35049310Y12597650I-13500J13498D01*
G01X35049440Y12600150D01*
X35050850Y12601550D01*
X35060390D01*
X35061800Y12600150D01*
X35061930Y12597650D01*
G03X35067520Y12584270I19090J118D01*
G01X35080220Y12571570D01*
G03X35094590Y12566000I13500J13507D01*
G01X35113990D01*
X35115510Y12564200D01*
G03X35125220Y12559700I9710J8226D01*
G01X35211220D01*
G03X35223940Y12572420I0J12720D01*
G01Y12670420D01*
G03X35211220Y12683140I-12720J0D01*
G01X35187290D01*
Y12689490D01*
G03X35185020Y12698510I-19072J-4D01*
G01X35184410Y12699640D01*
Y12772280D01*
X35252620Y12840490D01*
X35474960D01*
X35628140Y12687320D01*
G03X35641620Y12681730I13488J13477D01*
G01X35713100D01*
X35786900Y12607940D01*
G03X35800380Y12602350I13488J13477D01*
G01X36348140D01*
X36660080Y12290420D01*
G03X36673560Y12284830I13488J13477D01*
G01X38094500D01*
X38165900Y12213440D01*
G03X38177350Y12207960I13487J13478D01*
G01X38179130Y12207770D01*
X38210690Y12176200D01*
G02X38203510Y12158860I-7184J-7182D01*
G01X38187890D01*
X38186920Y12159270D01*
G03X38179380Y12160830I-7554J-17507D01*
G03X38176190Y12160560I8J-19069D01*
G01X38175770Y12160490D01*
X38143980D01*
G03X38102400Y12187160I-41580J-19078D01*
G03Y12095680I0J-45740D01*
G03X38143980Y12122350I0J45748D01*
G01X38179040D01*
G03X38192520Y12127940I-8J19067D01*
G01X38192860Y12128280D01*
G03X38195400Y12131420I-13469J13493D01*
G01X38394220D01*
X38445900Y12079740D01*
Y12057420D01*
X38315560Y11927080D01*
X38192620D01*
G03X38179380Y11932430I-13240J-13708D01*
G03X38165900Y11926840I8J-19067D01*
G01X37793620Y11554570D01*
X36107370D01*
G03X36093890Y11548980I8J-19067D01*
G01X35994690Y11449790D01*
X30886720D01*
X30733540Y11602960D01*
G03X30720060Y11608550I-13488J-13477D01*
G01X30266000D01*
X30192200Y11682340D01*
G03X30178720Y11687930I-13488J-13477D01*
G01X28937770D01*
G03X28924290Y11682340I8J-19067D01*
G01X28850490Y11608550D01*
X28814940D01*
G03X28801460Y11602960I8J-19067D01*
G01X28727660Y11529170D01*
X27790900D01*
X27691730Y11628330D01*
G03X27678250Y11633920I-13488J-13477D01*
G01X27461470D01*
X27427250Y11668140D01*
Y12078360D01*
G02X27438250Y12088480I10161J-6D01*
G03X27442030Y12088320I3823J45578D01*
G03X27487770Y12134060I0J45740D01*
G03X27461100Y12175640I-45748J0D01*
G01Y12186140D01*
G03X27455510Y12199620I-19067J-8D01*
G01X27451220Y12203920D01*
Y12248030D01*
X27491840D01*
G03X27504560Y12260750I0J12720D01*
G01Y12283590D01*
X27510900D01*
G03X27516930Y12284570I-5J19069D01*
G01X27517710Y12284830D01*
X27703620D01*
G03X27717100Y12290420I-8J19067D01*
G01X27790900Y12364210D01*
X27833850D01*
X27835370Y12362040D01*
G03X27845800Y12356600I10431J7281D01*
G01X27937660D01*
G03X27974810Y12337540I37154J26683D01*
G01X27974820D01*
G03Y12429020I0J45740D01*
G01X27974810D01*
G03X27937660Y12409960I4J-45743D01*
G01X27845800D01*
G03X27835370Y12404520I1J-12721D01*
G01X27833850Y12402350D01*
X27783000D01*
G03X27769520Y12396760I8J-19067D01*
G01X27695720Y12322970D01*
X27504560D01*
Y12344570D01*
G03X27491840Y12357290I-12720J0D01*
G01X27427250D01*
Y12568030D01*
X27491840D01*
G03X27504560Y12580750I0J12720D01*
G01Y12603590D01*
X28012000D01*
X28325180Y12290420D01*
G03X28338660Y12284830I13488J13477D01*
G01X28551290D01*
X28552070Y12284570D01*
G03X28558100Y12283590I6035J18089D01*
G01X28564440D01*
Y12260750D01*
G03X28577160Y12248030I12720J0D01*
G01X28696540D01*
G03X28709260Y12260750I0J12720D01*
G01Y12344570D01*
G03X28696540Y12357290I-12720J0D01*
G01X28577160D01*
G03X28564440Y12344570I0J-12720D01*
G01Y12322970D01*
X28346560D01*
X28033380Y12636140D01*
G03X28019900Y12641730I-13488J-13477D01*
G01X27504560D01*
Y12664570D01*
G03X27491840Y12677290I-12720J0D01*
G01X27427250D01*
Y13713740D01*
X29052960D01*
G02X29061070Y13697470I-5J-10159D01*
G03X29018290Y13569520I169952J-127950D01*
G03X29231010Y13356800I212720J0D01*
G03X29441850Y13541330I0J212716D01*
G02X29461620Y13543000I10070J-1350D01*
G03X29813850Y13283840I352237J109791D01*
G01X29813860D01*
G03X30243740Y13709380I0J429902D01*
G01X30243790Y13713740D01*
X30652160D01*
G02X30661610Y13699870I-6J-10159D01*
G03X30658460Y13683180I42592J-16681D01*
G03X30662450Y13664490I45741J-6D01*
G02X30653180Y13650180I-9272J-4151D01*
G01X30644700D01*
G03X30631980Y13637460I0J-12720D01*
G01Y13307460D01*
G03X30644700Y13294740I12720J0D01*
G01X30763700D01*
G03X30776420Y13307460I0J12720D01*
G01Y13637460D01*
G03X30763700Y13650180I-12720J0D01*
G01X30755220D01*
G02X30745950Y13664490I2J10159D01*
G03X30749940Y13683180I-41751J18684D01*
G03X30746790Y13699870I-45742J9D01*
G02X30756240Y13713740I9456J3711D01*
G01X31217930D01*
G02X31225110Y13696400I-7J-10159D01*
G01X31198720Y13670000D01*
G03X31193130Y13656520I13477J-13488D01*
G01Y13650180D01*
X31152700D01*
G03X31139980Y13637460I0J-12720D01*
G01Y13307460D01*
G03X31152700Y13294740I12720J0D01*
G01X31271700D01*
G03X31284420Y13307460I0J12720D01*
G01Y13637460D01*
G03X31271700Y13650180I-12720J0D01*
G01X31257350D01*
G02X31250170Y13667520I7J10159D01*
G01X31258930Y13676280D01*
X32337150D01*
X32386200Y13627230D01*
Y13507450D01*
X32382520Y13506400D01*
G03X32322550Y13426870I22750J-79530D01*
G03X32487990I82720J0D01*
G03X32428020Y13506400I-82720J0D01*
G01X32424340Y13507450D01*
Y13635130D01*
G03X32418750Y13648610I-19067J-8D01*
G01X32370970Y13696400D01*
G02X32378150Y13713740I7187J7181D01*
G01X37806720D01*
G02X37816000Y13699450I-4J-10161D01*
G03X37811020Y13676000I52732J-23452D01*
G01Y13655060D01*
X37582640D01*
G03X37569160Y13649470I8J-19067D01*
G01X37483660Y13563970D01*
G03X37478070Y13550490I13477J-13488D01*
G01Y13531380D01*
X37454140D01*
G03X37441420Y13518660I0J-12720D01*
G01Y13488730D01*
X36547640D01*
X36528280Y13508080D01*
G03X36514800Y13513670I-13488J-13477D01*
G01X36435420D01*
G03X36421940Y13508080I8J-19067D01*
G01X36326250Y13412390D01*
G03X36320660Y13398910I13477J-13488D01*
G01Y13338620D01*
X36291470D01*
G03X36264020Y13311170I13J-27463D01*
G01Y13281650D01*
G03X36291470Y13254200I27463J13D01*
G01X36387990D01*
G03X36409850Y13265060I-15J27462D01*
G02X36425130Y13266100I8094J-6146D01*
G01X36572230Y13118990D01*
Y13000660D01*
X36548300D01*
G03X36535580Y12987940I0J-12720D01*
G01Y12889940D01*
G03X36548300Y12877220I12720J0D01*
G01X36634300D01*
G03X36647020Y12889940I0J12720D01*
G01Y12987940D01*
G03X36634300Y13000660I-12720J0D01*
G01X36610370D01*
Y13126890D01*
G03X36604780Y13140370I-19067J-8D01*
G01X36435260Y13309890D01*
G03X36421780Y13315480I-13488J-13477D01*
G01X36415360D01*
X36414270Y13319090D01*
G03X36387990Y13338620I-26292J-7933D01*
G01X36358800D01*
Y13391010D01*
X36443320Y13475530D01*
X36506900D01*
X36526260Y13456180D01*
G03X36539740Y13450590I13488J13477D01*
G01X37441420D01*
Y13420660D01*
G03X37454140Y13407940I12720J0D01*
G01X37540140D01*
G03X37552860Y13420660I0J12720D01*
G01Y13518660D01*
G03X37540140Y13531380I-12720J0D01*
G01X37516210D01*
Y13542590D01*
X37590540Y13616920D01*
X37811020D01*
Y13595980D01*
G03X37926440I57710J5D01*
G01Y13676000D01*
G03X37921460Y13699450I-57712J-2D01*
G02X37930740Y13713740I9284J4129D01*
G01X38671740D01*
G02X38681020Y13699450I-4J-10161D01*
G03X38676040Y13676000I52732J-23452D01*
G01Y13595980D01*
G03X38791460I57710J5D01*
G01Y13676000D01*
G03X38786480Y13699450I-57712J-2D01*
G02X38795760Y13713740I9284J4129D01*
G37*
%LPC*%
G75*
G36*
G01X28965800Y11014750D02*
X28935900D01*
G02X28894320Y10988080I-41580J19078D01*
G02Y11079560I0J45740D01*
G02X28935900Y11052890I0J-45748D01*
G01X28973700D01*
G02X28987180Y11047300I-8J-19067D01*
G01X29145940Y10888540D01*
G02X29151530Y10875060I-13477J-13488D01*
G01Y10692150D01*
G02X29147110Y10679950I-19067J7D01*
G03X29149600Y10664790I7810J-6502D01*
G02Y10609050I-17137J-27870D01*
G03X29147110Y10593890I5320J-8658D01*
G02X29151530Y10581690I-14647J-12207D01*
G01Y10565440D01*
X29378500Y10338470D01*
X30085020D01*
G02X30098500Y10332880I-8J-19067D01*
G01X30331060Y10100330D01*
X34443020D01*
X34596200Y10253500D01*
G02X34609680Y10259090I13488J-13477D01*
G01X37425780D01*
G02X37467360Y10285760I41580J-19078D01*
G02Y10194280I0J-45740D01*
G02X37425780Y10220950I0J45748D01*
G01X34617580D01*
X34464400Y10067780D01*
G02X34450920Y10062190I-13488J13477D01*
G01X30323160D01*
G02X30309680Y10067780I8J19067D01*
G01X30077120Y10300330D01*
X29370600D01*
G02X29357120Y10305920I8J19067D01*
G01X29118980Y10544060D01*
G02X29113390Y10557540I13477J13488D01*
G01Y10573790D01*
X29079930Y10607260D01*
G02X29074340Y10620740I13477J13488D01*
G01Y10653100D01*
G02X29079930Y10666580I19067J-8D01*
G01X29113390Y10700050D01*
Y10867160D01*
X28965800Y11014750D01*
G37*
G36*
G01X29257170Y11096100D02*
G03X29253880Y11112100I-7564J6783D01*
G02X29202500Y11192580I37341J80480D01*
G02X29379940I88720J0D01*
G02X29328560Y11112100I-88721J0D01*
G03X29325270Y11096100I4274J-9217D01*
G02X29336960Y11065560I-34048J-30540D01*
G02X29245480I-45740J0D01*
G02X29257170Y11096100I45738J0D01*
G37*
G36*
G01X33862960Y11311540D02*
X33853260D01*
G02X33811680Y11284870I-41580J19078D01*
G02Y11376350I0J45740D01*
G02X33853260Y11349680I0J-45748D01*
G01X33870860D01*
G02X33884340Y11344090I-8J-19067D01*
G01X34178290Y11050140D01*
G02X34183880Y11036660I-13477J-13488D01*
G01Y10295890D01*
X34196790Y10282980D01*
X34199690Y10283850D01*
G02X34212780Y10285760I13080J-43831D01*
G02X34167040Y10240020I0J-45740D01*
G02X34168950Y10253110I45741J10D01*
G01X34169820Y10256010D01*
X34151330Y10274510D01*
G02X34145740Y10287990I13477J13488D01*
G01Y11028760D01*
X33862960Y11311540D01*
G37*
G36*
G01X35135330Y12400940D02*
X35125220D01*
G02X35112500Y12413660I0J12720D01*
G01Y12443590D01*
X35100500D01*
G02X35087020Y12449180I8J19067D01*
G01X35074320Y12461880D01*
G02X35069310Y12470710I13480J13484D01*
G01X35068730Y12472990D01*
X35067170Y12474550D01*
X35057630D01*
X35056070Y12472990D01*
X35055720Y12471610D01*
G02X35050500Y12461860I-18719J3750D01*
G01X35037800Y12449160D01*
G02X35023430Y12443590I-13500J13507D01*
G01X34999770D01*
G02X34985400Y12449160I-870J19077D01*
G01X34972700Y12461860D01*
G02X34967480Y12471610I13499J13500D01*
G01X34967130Y12472990D01*
X34965570Y12474550D01*
X34956030D01*
X34954470Y12472990D01*
X34954120Y12471610D01*
G02X34948900Y12461860I-18719J3750D01*
G01X34936200Y12449160D01*
G02X34921830Y12443590I-13500J13507D01*
G01X34898170D01*
G02X34883800Y12449160I-870J19077D01*
G01X34876620Y12456340D01*
G03X34863120Y12456170I-6654J-7678D01*
G02X34849520Y12450900I-13619J14962D01*
G01X34658500D01*
G02X34638290Y12471110I21J20231D01*
G01Y12516130D01*
G02X34658500Y12536340I20231J-21D01*
G01X34849520D01*
G02X34869690Y12517300I-25J-20230D01*
G03X34874160Y12512560I5071J304D01*
G02X34885380Y12507100I-2275J-18933D01*
G01X34898080Y12494400D01*
G02X34903090Y12485570I-13480J-13484D01*
G01X34903670Y12483290D01*
X34905230Y12481730D01*
X34914770D01*
X34916330Y12483290D01*
X34916680Y12484670D01*
G02X34921900Y12494420I18719J-3750D01*
G01X34934600Y12507120D01*
G02X34948970Y12512690I13500J-13507D01*
G01X34972630D01*
G02X34987000Y12507120I870J-19077D01*
G01X34999700Y12494420D01*
G02X35004920Y12484670I-13499J-13500D01*
G01X35005270Y12483290D01*
X35006830Y12481730D01*
X35016370D01*
X35017930Y12483290D01*
X35018280Y12484670D01*
G02X35023500Y12494420I18719J-3750D01*
G01X35036200Y12507120D01*
G02X35050570Y12512690I13500J-13507D01*
G01X35074230D01*
G02X35088600Y12507120I870J-19077D01*
G01X35095610Y12500110D01*
G03X35112500Y12507710I6731J7608D01*
G01Y12511660D01*
G02X35125220Y12524380I12720J0D01*
G01X35211220D01*
G02X35223940Y12511660I0J-12720D01*
G01Y12413660D01*
G02X35211220Y12400940I-12720J0D01*
G01X35187290D01*
Y12394600D01*
G02X35181700Y12381120I-19067J8D01*
G01X35164730Y12364140D01*
Y12334830D01*
X35258200Y12241350D01*
G02X35263790Y12227870I-13477J-13488D01*
G01Y11631060D01*
G02X35290460Y11589480I-19078J-41580D01*
G02X35198980I-45740J0D01*
G02X35225650Y11631060I45748J0D01*
G01Y12219970D01*
X35132180Y12313450D01*
G02X35126590Y12326930I13477J13488D01*
G01Y12372040D01*
G02X35132180Y12385520I19067J-8D01*
G01X35138920Y12392270D01*
G03X35135330Y12400940I-3589J3592D01*
G37*
G36*
G01X30194780Y12912400D02*
X30292780D01*
G02X30305500Y12899680I0J-12720D01*
G01Y12875750D01*
X30437460D01*
G02X30479040Y12902420I41580J-19078D01*
G02Y12810940I0J-45740D01*
G02X30437460Y12837610I0J45748D01*
G01X30305500D01*
Y12813680D01*
G02X30292780Y12800960I-12720J0D01*
G01X30194780D01*
G02X30182060Y12813680I0J12720D01*
G01Y12837610D01*
X30110330D01*
G02X30109470Y12837590I-874J19070D01*
G02X30108610Y12837610I14J19090D01*
G01X30103230D01*
X30092280Y12826660D01*
Y12796660D01*
G02X30064830Y12769210I-27463J13D01*
G01X29968310D01*
G02X29940860Y12796660I13J27463D01*
G01Y12826180D01*
G02X29968310Y12853630I27463J-13D01*
G01X30065310D01*
X30088220Y12876530D01*
G02X30102400Y12882840I14180J-12778D01*
G02X30115900Y12877250I0J-19096D01*
G01X30117400Y12875750D01*
X30182060D01*
Y12899680D01*
G02X30194780Y12912400I12720J0D01*
G37*
G36*
G01X38682740Y13222980D02*
Y13373000D01*
G02X38784760I51010J-5D01*
G01Y13222980D01*
G02X38682740I-51010J5D01*
G37*
G36*
G01X37817720D02*
Y13373000D01*
G02X37919740I51010J-5D01*
G01Y13222980D01*
G02X37817720I-51010J5D01*
G37*
G36*
G01X28592530Y13428750D02*
Y13558750D01*
G02X28605250Y13571470I12720J0D01*
G01X28735250D01*
G02X28747970Y13558750I0J-12720D01*
G01Y13428750D01*
G02X28735250Y13416030I-12720J0D01*
G01X28605250D01*
G02X28592530Y13428750I0J12720D01*
G37*
G36*
G01X39143290Y12389330D02*
Y12466830D01*
G02X39144310Y12467850I1020J0D01*
G01X39221810D01*
G02X39222830Y12466830I0J-1020D01*
G01Y12389330D01*
G02X39221810Y12388310I-1020J0D01*
G01X39144310D01*
G02X39143290Y12389330I0J1020D01*
G37*
G36*
G01X39068340Y12429340D02*
Y12466820D01*
G02X39069360Y12467840I1020J0D01*
G01X39109360D01*
G02X39110380Y12466820I0J-1020D01*
G01Y12429340D01*
G02X39109360Y12428320I-1020J0D01*
G01X39069360D01*
G02X39068340Y12429340I0J1020D01*
G37*
G36*
G01X38671640D02*
Y12466820D01*
G02X38684360Y12479540I12720J0D01*
G01X38724360D01*
G02X38737080Y12466820I0J-12720D01*
G01Y12429340D01*
G02X38724360Y12416620I-12720J0D01*
G01X38684360D01*
G02X38671640Y12429340I0J12720D01*
G37*
G36*
G01X38650840Y12364380D02*
Y12404380D01*
G02X38651860Y12405400I1020J0D01*
G01X38691860D01*
G02X38692880Y12404380I0J-1020D01*
G01Y12364380D01*
G02X38691860Y12363360I-1020J0D01*
G01X38651860D01*
G02X38650840Y12364380I0J1020D01*
G37*
G36*
G01X38618340Y12429340D02*
Y12466820D01*
G02X38619360Y12467840I1020J0D01*
G01X38659360D01*
G02X38660380Y12466820I0J-1020D01*
G01Y12429340D01*
G02X38659360Y12428320I-1020J0D01*
G01X38619360D01*
G02X38618340Y12429340I0J1020D01*
G37*
G36*
G01X38585840Y12364380D02*
Y12404380D01*
G02X38586860Y12405400I1020J0D01*
G01X38626860D01*
G02X38627880Y12404380I0J-1020D01*
G01Y12364380D01*
G02X38626860Y12363360I-1020J0D01*
G01X38586860D01*
G02X38585840Y12364380I0J1020D01*
G37*
G36*
G01X38553340Y12429340D02*
Y12466820D01*
G02X38554360Y12467840I1020J0D01*
G01X38594360D01*
G02X38595380Y12466820I0J-1020D01*
G01Y12429340D01*
G02X38594360Y12428320I-1020J0D01*
G01X38554360D01*
G02X38553340Y12429340I0J1020D01*
G37*
G36*
G01X38445890Y12389330D02*
Y12466830D01*
G02X38446910Y12467850I1020J0D01*
G01X38524410D01*
G02X38525430Y12466830I0J-1020D01*
G01Y12389330D01*
G02X38524410Y12388310I-1020J0D01*
G01X38446910D01*
G02X38445890Y12389330I0J1020D01*
G37*
G36*
G01X35265500Y12572420D02*
Y12670420D01*
G02X35278220Y12683140I12720J0D01*
G01X35364220D01*
G02X35376940Y12670420I0J-12720D01*
G01Y12572420D01*
G02X35364220Y12559700I-12720J0D01*
G01X35278220D01*
G02X35265500Y12572420I0J12720D01*
G37*
G36*
G01Y12413660D02*
Y12511660D01*
G02X35278220Y12524380I12720J0D01*
G01X35364220D01*
G02X35376940Y12511660I0J-12720D01*
G01Y12413660D01*
G02X35364220Y12400940I-12720J0D01*
G01X35278220D01*
G02X35265500Y12413660I0J12720D01*
G37*
G36*
G01X34638290Y12725110D02*
Y12770130D01*
G02X34658500Y12790340I20231J-21D01*
G01X34849520D01*
G02X34869730Y12770130I-21J-20231D01*
G01Y12725110D01*
G02X34849520Y12704900I-20231J21D01*
G01X34658500D01*
G02X34638290Y12725110I21J20231D01*
G37*
G36*
G01X30182060Y12660680D02*
Y12746680D01*
G02X30194780Y12759400I12720J0D01*
G01X30292780D01*
G02X30305500Y12746680I0J-12720D01*
G01Y12660680D01*
G02X30292780Y12647960I-12720J0D01*
G01X30194780D01*
G02X30182060Y12660680I0J12720D01*
G37*
G36*
G01X29940860Y12606660D02*
Y12636180D01*
G02X29968310Y12663630I27463J-13D01*
G01X30064830D01*
G02X30092280Y12636180I-13J-27463D01*
G01Y12606660D01*
G02X30064830Y12579210I-27463J13D01*
G01X29968310D01*
G02X29940860Y12606660I13J27463D01*
G37*
G36*
G01X38968340Y11691940D02*
Y11729420D01*
G02X38969360Y11730440I1020J0D01*
G01X39009360D01*
G02X39010380Y11729420I0J-1020D01*
G01Y11691940D01*
G02X39009360Y11690920I-1020J0D01*
G01X38969360D01*
G02X38968340Y11691940I0J1020D01*
G37*
G36*
G01X39068340D02*
Y11729420D01*
G02X39069360Y11730440I1020J0D01*
G01X39109360D01*
G02X39110380Y11729420I0J-1020D01*
G01Y11691940D01*
G02X39109360Y11690920I-1020J0D01*
G01X39069360D01*
G02X39068340Y11691940I0J1020D01*
G37*
G36*
G01X39143290Y11691930D02*
Y11769430D01*
G02X39144310Y11770450I1020J0D01*
G01X39221810D01*
G02X39222830Y11769430I0J-1020D01*
G01Y11691930D01*
G02X39221810Y11690910I-1020J0D01*
G01X39144310D01*
G02X39143290Y11691930I0J1020D01*
G37*
G36*
G01X39183300Y11809380D02*
Y11849380D01*
G02X39184320Y11850400I1020J0D01*
G01X39221800D01*
G02X39222820Y11849380I0J-1020D01*
G01Y11809380D01*
G02X39221800Y11808360I-1020J0D01*
G01X39184320D01*
G02X39183300Y11809380I0J1020D01*
G37*
G36*
G01Y11909380D02*
Y11949380D01*
G02X39184320Y11950400I1020J0D01*
G01X39221800D01*
G02X39222820Y11949380I0J-1020D01*
G01Y11909380D01*
G02X39221800Y11908360I-1020J0D01*
G01X39184320D01*
G02X39183300Y11909380I0J1020D01*
G37*
G36*
G01Y12009380D02*
Y12049380D01*
G02X39184320Y12050400I1020J0D01*
G01X39221800D01*
G02X39222820Y12049380I0J-1020D01*
G01Y12009380D01*
G02X39221800Y12008360I-1020J0D01*
G01X39184320D01*
G02X39183300Y12009380I0J1020D01*
G37*
G36*
G01Y12109380D02*
Y12149380D01*
G02X39184320Y12150400I1020J0D01*
G01X39221800D01*
G02X39222820Y12149380I0J-1020D01*
G01Y12109380D01*
G02X39221800Y12108360I-1020J0D01*
G01X39184320D01*
G02X39183300Y12109380I0J1020D01*
G37*
G36*
G01Y12209380D02*
Y12249380D01*
G02X39184320Y12250400I1020J0D01*
G01X39221800D01*
G02X39222820Y12249380I0J-1020D01*
G01Y12209380D01*
G02X39221800Y12208360I-1020J0D01*
G01X39184320D01*
G02X39183300Y12209380I0J1020D01*
G37*
G36*
G01Y12309380D02*
Y12349380D01*
G02X39184320Y12350400I1020J0D01*
G01X39221800D01*
G02X39222820Y12349380I0J-1020D01*
G01Y12309380D01*
G02X39221800Y12308360I-1020J0D01*
G01X39184320D01*
G02X39183300Y12309380I0J1020D01*
G37*
G36*
G01X38728340Y11961880D02*
Y12001880D01*
G02X38729360Y12002900I1020J0D01*
G01X38769360D01*
G02X38770380Y12001880I0J-1020D01*
G01Y11961880D01*
G02X38769360Y11960860I-1020J0D01*
G01X38729360D01*
G02X38728340Y11961880I0J1020D01*
G37*
G36*
G01X38445900Y12319380D02*
Y12359380D01*
G02X38446920Y12360400I1020J0D01*
G01X38484400D01*
G02X38485420Y12359380I0J-1020D01*
G01Y12319380D01*
G02X38484400Y12318360I-1020J0D01*
G01X38446920D01*
G02X38445900Y12319380I0J1020D01*
G37*
G36*
G01X38508340Y12286880D02*
Y12326880D01*
G02X38509360Y12327900I1020J0D01*
G01X38549360D01*
G02X38550380Y12326880I0J-1020D01*
G01Y12286880D01*
G02X38549360Y12285860I-1020J0D01*
G01X38509360D01*
G02X38508340Y12286880I0J1020D01*
G37*
G36*
G01X38445900Y12254380D02*
Y12294380D01*
G02X38446920Y12295400I1020J0D01*
G01X38484400D01*
G02X38485420Y12294380I0J-1020D01*
G01Y12254380D01*
G02X38484400Y12253360I-1020J0D01*
G01X38446920D01*
G02X38445900Y12254380I0J1020D01*
G37*
G36*
G01X38508340Y12221880D02*
Y12261880D01*
G02X38509360Y12262900I1020J0D01*
G01X38549360D01*
G02X38550380Y12261880I0J-1020D01*
G01Y12221880D01*
G02X38549360Y12220860I-1020J0D01*
G01X38509360D01*
G02X38508340Y12221880I0J1020D01*
G37*
G36*
G01X38585840Y12286880D02*
Y12326880D01*
G02X38586860Y12327900I1020J0D01*
G01X38626860D01*
G02X38627880Y12326880I0J-1020D01*
G01Y12286880D01*
G02X38626860Y12285860I-1020J0D01*
G01X38586860D01*
G02X38585840Y12286880I0J1020D01*
G37*
G36*
G01Y12221880D02*
Y12261880D01*
G02X38586860Y12262900I1020J0D01*
G01X38626860D01*
G02X38627880Y12261880I0J-1020D01*
G01Y12221880D01*
G02X38626860Y12220860I-1020J0D01*
G01X38586860D01*
G02X38585840Y12221880I0J1020D01*
G37*
G36*
G01Y12156880D02*
Y12196880D01*
G02X38586860Y12197900I1020J0D01*
G01X38626860D01*
G02X38627880Y12196880I0J-1020D01*
G01Y12156880D01*
G02X38626860Y12155860I-1020J0D01*
G01X38586860D01*
G02X38585840Y12156880I0J1020D01*
G37*
G36*
G01X38650840Y12286880D02*
Y12326880D01*
G02X38651860Y12327900I1020J0D01*
G01X38691860D01*
G02X38692880Y12326880I0J-1020D01*
G01Y12286880D01*
G02X38691860Y12285860I-1020J0D01*
G01X38651860D01*
G02X38650840Y12286880I0J1020D01*
G37*
G36*
G01Y12221880D02*
Y12261880D01*
G02X38651860Y12262900I1020J0D01*
G01X38691860D01*
G02X38692880Y12261880I0J-1020D01*
G01Y12221880D01*
G02X38691860Y12220860I-1020J0D01*
G01X38651860D01*
G02X38650840Y12221880I0J1020D01*
G37*
G36*
G01Y12156880D02*
Y12196880D01*
G02X38651860Y12197900I1020J0D01*
G01X38691860D01*
G02X38692880Y12196880I0J-1020D01*
G01Y12156880D01*
G02X38691860Y12155860I-1020J0D01*
G01X38651860D01*
G02X38650840Y12156880I0J1020D01*
G37*
G36*
G01X38868340Y11691940D02*
Y11729420D01*
G02X38869360Y11730440I1020J0D01*
G01X38909360D01*
G02X38910380Y11729420I0J-1020D01*
G01Y11691940D01*
G02X38909360Y11690920I-1020J0D01*
G01X38869360D01*
G02X38868340Y11691940I0J1020D01*
G37*
G36*
G01X34638290Y12344110D02*
Y12389130D01*
G02X34658500Y12409340I20231J-21D01*
G01X34849520D01*
G02X34869730Y12389130I-21J-20231D01*
G01Y12344110D01*
G02X34849520Y12323900I-20231J21D01*
G01X34658500D01*
G02X34638290Y12344110I21J20231D01*
G37*
G36*
G01X38612320Y11113200D02*
G02X38703800I45740J0D01*
G02X38677130Y11071620I-45748J0D01*
G01Y10716300D01*
G02X38671540Y10702820I-19067J8D01*
G01X38354020Y10385300D01*
G02X38340540Y10379710I-13488J13477D01*
G01X38030920D01*
X37957120Y10305920D01*
G02X37943640Y10300330I-13488J13477D01*
G01X37905840D01*
G02X37864260Y10273660I-41580J19078D01*
G02Y10365140I0J45740D01*
G02X37905840Y10338470I0J-45748D01*
G01X37935740D01*
X38009540Y10412260D01*
G02X38023020Y10417850I13488J-13477D01*
G01X38332640D01*
X38638990Y10724200D01*
Y11071620D01*
G02X38612320Y11113200I19078J41580D01*
G37*
G36*
G01X33101460Y12099400D02*
G02Y12190880I0J45740D01*
G02X33143040Y12164210I0J-45748D01*
G01X33294050D01*
G02X33307530Y12158620I-8J-19067D01*
G01X33588470Y11877690D01*
X33710000D01*
X33710310Y11882440D01*
G02X33730480Y11901340I20189J-1333D01*
G01X33921500D01*
G02X33941710Y11881130I-21J-20231D01*
G01Y11836110D01*
G02X33921500Y11815900I-20231J21D01*
G01X33730480D01*
G02X33710310Y11834800I19J20233D01*
G01X33710000Y11839550D01*
X33580570D01*
G02X33567090Y11845140I8J19067D01*
G01X33286150Y12126070D01*
X33143040D01*
G02X33101460Y12099400I-41580J19078D01*
G37*
G36*
G01X35040220Y12145140D02*
G02X35131700I45740J0D01*
G02X35105030Y12103560I-45748J0D01*
G01Y11802420D01*
G02X35099440Y11788940I-19067J8D01*
G01X35032580Y11722080D01*
G02X35019100Y11716490I-13488J13477D01*
G01X34118200D01*
G02X34104720Y11722080I8J19067D01*
G01X34053920Y11772880D01*
G02X34048330Y11786360I13477J13488D01*
G01Y11901540D01*
X33983320Y11966550D01*
X33941980D01*
X33941670Y11961800D01*
G02X33921500Y11942900I-20189J1333D01*
G01X33730480D01*
G02X33710270Y11963110I21J20231D01*
G01Y12008130D01*
G02X33730480Y12028340I20231J-21D01*
G01X33921500D01*
G02X33941670Y12009440I-19J-20233D01*
G01X33941980Y12004690D01*
X33991220D01*
G02X34004700Y11999100I-8J-19067D01*
G01X34080880Y11922920D01*
G02X34086470Y11909440I-13477J-13488D01*
G01Y11794260D01*
X34126100Y11754630D01*
X35011200D01*
X35066890Y11810320D01*
Y12103560D01*
G02X35040220Y12145140I19078J41580D01*
G37*
G36*
G01X38855160Y12212440D02*
G02X38854280Y12210320I-3023J12D01*
G01X38851200Y12207240D01*
G02X38849080Y12206360I-2132J2143D01*
G01X38835380D01*
Y12189380D01*
G02X38834360Y12188360I-1020J0D01*
G01X38794360D01*
G02X38793340Y12189380I0J1020D01*
G01Y12229380D01*
G02X38794360Y12230400I1020J0D01*
G01X38834360D01*
G02X38835380Y12229380I0J-1020D01*
G01Y12212400D01*
X38847810D01*
X38849120Y12213710D01*
Y12265280D01*
X38843040Y12271360D01*
X38835380D01*
Y12254380D01*
G02X38834360Y12253360I-1020J0D01*
G01X38794360D01*
G02X38793340Y12254380I0J1020D01*
G01Y12294380D01*
G02X38794360Y12295400I1020J0D01*
G01X38834360D01*
G02X38835380Y12294380I0J-1020D01*
G01Y12277400D01*
X38844310D01*
G02X38846430Y12276520I-12J-3023D01*
G01X38854280Y12268670D01*
G02X38855160Y12266550I-2143J-2132D01*
G01Y12212440D01*
G37*
G36*
G01X38868340Y12429340D02*
Y12466820D01*
G02X38869360Y12467840I1020J0D01*
G01X38909360D01*
G02X38910380Y12466820I0J-1020D01*
G01Y12429340D01*
G02X38909360Y12428320I-1020J0D01*
G01X38898220D01*
Y12191250D01*
G02X38897630Y12189820I-2028J0D01*
G01X38867080Y12159270D01*
Y12128050D01*
G02X38866490Y12126620I-2028J0D01*
G01X38860670Y12120800D01*
G02X38859520Y12120230I-1426J1432D01*
G01X38857830Y12119990D01*
X38835380Y12097540D01*
Y12082180D01*
X38839460Y12081360D01*
G02X38840490Y12080810I-396J-1982D01*
G01X38852840Y12068460D01*
G02X38853280Y12067790I-1435J-1422D01*
G01X38853670Y12066830D01*
X38856200Y12064300D01*
G02X38856790Y12062870I-1438J-1430D01*
G01Y12026450D01*
G02X38856200Y12025020I-2028J0D01*
G01X38844130Y12012950D01*
G02X38842700Y12012360I-1430J1438D01*
G01X38835380D01*
Y11994380D01*
G02X38834360Y11993360I-1020J0D01*
G01X38794360D01*
G02X38793340Y11994380I0J1020D01*
G01Y12034380D01*
G02X38794360Y12035400I1020J0D01*
G01X38834360D01*
G02X38835380Y12034380I0J-1020D01*
G01Y12022180D01*
G03X38844050Y12018590I5079J2D01*
G01X38852750Y12027290D01*
Y12062030D01*
X38849980Y12064800D01*
G02X38849540Y12065470I1435J1422D01*
G01X38849150Y12066430D01*
X38844050Y12071530D01*
G03X38835380Y12067940I-3591J-3592D01*
G01Y12059380D01*
G02X38834360Y12058360I-1020J0D01*
G01X38794360D01*
G02X38793340Y12059380I0J1020D01*
G01Y12099380D01*
G02X38794360Y12100400I1020J0D01*
G01X38832520D01*
X38855780Y12123660D01*
G02X38856930Y12124230I1426J-1432D01*
G01X38858620Y12124470D01*
X38863040Y12128890D01*
Y12142970D01*
G03X38854370Y12146560I-5079J-2D01*
G01X38850760Y12142950D01*
G02X38849330Y12142360I-1430J1438D01*
G01X38835380D01*
Y12124380D01*
G02X38834360Y12123360I-1020J0D01*
G01X38794360D01*
G02X38793340Y12124380I0J1020D01*
G01Y12164380D01*
G02X38794360Y12165400I1020J0D01*
G01X38834360D01*
G02X38835380Y12164380I0J-1020D01*
G01Y12146400D01*
X38848490D01*
X38894180Y12192090D01*
Y12428320D01*
X38869360D01*
G02X38868340Y12429340I0J1020D01*
G37*
G36*
G01X38753340Y12389330D02*
Y12466830D01*
G02X38754360Y12467850I1020J0D01*
G01X38834360D01*
G02X38835380Y12466830I0J-1020D01*
G01Y12389330D01*
G02X38834360Y12388310I-1020J0D01*
G01X38816380D01*
Y12360400D01*
X38834360D01*
G02X38835380Y12359380I0J-1020D01*
G01Y12319380D01*
G02X38834360Y12318360I-1020J0D01*
G01X38796200D01*
X38783290Y12305450D01*
G02X38781860Y12304860I-1430J1438D01*
G01X38770380D01*
Y12286880D01*
G02X38769360Y12285860I-1020J0D01*
G01X38731200D01*
X38724050Y12278710D01*
Y12273930D01*
G02X38723460Y12272500I-2028J0D01*
G01X38717680Y12266720D01*
Y12251720D01*
X38719670Y12249730D01*
G03X38728340Y12253320I3591J3592D01*
G01Y12261880D01*
G02X38729360Y12262900I1020J0D01*
G01X38769360D01*
G02X38770380Y12261880I0J-1020D01*
G01Y12221880D01*
G02X38769360Y12220860I-1020J0D01*
G01X38729360D01*
G02X38728340Y12221880I0J1020D01*
G01Y12235340D01*
X38714230Y12249450D01*
G02X38713640Y12250880I1438J1430D01*
G01Y12267560D01*
G02X38714230Y12268990I2028J0D01*
G01X38720010Y12274770D01*
Y12279550D01*
G02X38720600Y12280980I2028J0D01*
G01X38728340Y12288720D01*
Y12326880D01*
G02X38729360Y12327900I1020J0D01*
G01X38769360D01*
G02X38770380Y12326880I0J-1020D01*
G01Y12308900D01*
X38781020D01*
X38793340Y12321220D01*
Y12359380D01*
G02X38794360Y12360400I1020J0D01*
G01X38812340D01*
Y12388310D01*
X38754360D01*
G02X38753340Y12389330I0J1020D01*
G37*
G36*
G01X28595100Y12691600D02*
G02X28591110Y12710280I41751J18684D01*
G01Y12710290D01*
G02X28682590I45740J0D01*
G01Y12710280D01*
G02X28678600Y12691600I-45741J4D01*
G03X28687870Y12677290I9272J-4151D01*
G01X28696540D01*
G02X28709260Y12664570I0J-12720D01*
G01Y12580750D01*
G02X28696540Y12568030I-12720J0D01*
G01X28577160D01*
G02X28564440Y12580750I0J12720D01*
G01Y12664570D01*
G02X28577160Y12677290I12720J0D01*
G01X28585830D01*
G03X28595100Y12691600I-2J10159D01*
G37*
G36*
G01X29559740Y12759400D02*
X29657740D01*
G02X29670460Y12746680I0J-12720D01*
G01Y12660680D01*
G02X29657740Y12647960I-12720J0D01*
G01X29559740D01*
G02X29547020Y12660680I0J12720D01*
G01Y12684610D01*
X29470580D01*
X29469050Y12683080D01*
Y12549940D01*
X29473010Y12545970D01*
G02X29478600Y12532490I-13477J-13488D01*
G01Y12412260D01*
X29534810D01*
G02X29571970Y12431330I37160J-26670D01*
G02Y12339850I0J-45740D01*
G02X29534810Y12358920I0J45740D01*
G01X29442940D01*
G02X29432520Y12364350I3J12718D01*
G01X29431000Y12366520D01*
X29380810D01*
X29304700Y12290420D01*
G02X29291220Y12284830I-13488J13477D01*
G01X29184690D01*
X29183910Y12284570D01*
G02X29177880Y12283590I-6035J18089D01*
G01X29171540D01*
Y12260750D01*
G02X29158820Y12248030I-12720J0D01*
G01X29118200D01*
Y12178960D01*
G02Y12095800I-19078J-41580D01*
G01Y12084100D01*
G02X29080060I-19070J0D01*
G01Y12095800D01*
G02Y12178960I19078J41580D01*
G01Y12248030D01*
X29039440D01*
G02X29026720Y12260750I0J12720D01*
G01Y12344570D01*
G02X29039440Y12357290I12720J0D01*
G01X29158820D01*
G02X29171540Y12344570I0J-12720D01*
G01Y12322970D01*
X29283320D01*
X29359430Y12399070D01*
G02X29372910Y12404660I13488J-13477D01*
G01X29431000D01*
X29432520Y12406830D01*
G02X29437540Y12411060I10428J-7282D01*
G01X29440460Y12412430D01*
Y12524590D01*
X29436500Y12528560D01*
G02X29430910Y12542040I13477J13488D01*
G01Y12690980D01*
G02X29436500Y12704460I19067J-8D01*
G01X29449200Y12717160D01*
G02X29462680Y12722750I13488J-13477D01*
G01X29547020D01*
Y12746680D01*
G02X29559740Y12759400I12720J0D01*
G37*
G36*
G01X33670600Y12687320D02*
X33655920Y12672630D01*
Y12639690D01*
X33710000D01*
X33710310Y12644440D01*
G02X33730480Y12663340I20189J-1333D01*
G01X33921500D01*
G02X33941710Y12643130I-21J-20231D01*
G01Y12598110D01*
G02X33921500Y12577900I-20231J21D01*
G01X33730480D01*
G02X33710310Y12596800I19J20233D01*
G01X33710000Y12601550D01*
X33655920D01*
Y12519500D01*
X33662730Y12512690D01*
X33710000D01*
X33710310Y12517440D01*
G02X33730480Y12536340I20189J-1333D01*
G01X33921500D01*
G02X33941710Y12516130I-21J-20231D01*
G01Y12471110D01*
G02X33921500Y12450900I-20231J21D01*
G01X33730480D01*
G02X33710310Y12469800I19J20233D01*
G01X33710000Y12474550D01*
X33654830D01*
G02X33641350Y12480140I8J19067D01*
G01X33623370Y12498120D01*
G02X33617780Y12511600I13477J13488D01*
G01Y12680530D01*
G02X33623370Y12694010I19067J-8D01*
G01X33643270Y12713920D01*
G02X33643640Y12714290I13665J-13295D01*
G01X33649220Y12719880D01*
G03X33645630Y12728550I-3593J3590D01*
G01X33589650D01*
G02X33548070Y12701880I-41580J19078D01*
G02Y12793360I0J45740D01*
G02X33589650Y12766690I0J-45748D01*
G01X33710000D01*
X33710310Y12771440D01*
G02X33730480Y12790340I20189J-1333D01*
G01X33921500D01*
G02X33941710Y12770130I-21J-20231D01*
G01Y12725110D01*
G02X33921500Y12704900I-20231J21D01*
G01X33730480D01*
G02X33713860Y12713630I24J20231D01*
G03X33698320Y12715040I-8358J-5777D01*
G01X33670600Y12687320D01*
G37*
G36*
G01X38009540D02*
X37959630Y12737220D01*
X37956730Y12736350D01*
G02X37943660Y12734440I-13080J43831D01*
G01X37943640D01*
G02X37989380Y12780180I0J45740D01*
G01Y12780160D01*
G02X37987470Y12767090I-45741J10D01*
G01X37986600Y12764190D01*
X38030920Y12719870D01*
X38162480D01*
Y12745760D01*
G02X38175200Y12758480I12720J0D01*
G01X38255440D01*
G02X38266930Y12751220I0J-12722D01*
G01X38268310Y12748320D01*
X38287550D01*
X38288930Y12751220D01*
G02X38300420Y12758480I11490J-5462D01*
G01X38380660D01*
G02X38393380Y12745760I0J-12720D01*
G01Y12655840D01*
G02X38380660Y12643120I-12720J0D01*
G01X38300420D01*
G02X38288930Y12650380I0J12722D01*
G01X38287550Y12653280D01*
X38268310D01*
X38266930Y12650380D01*
G02X38255440Y12643120I-11490J5462D01*
G01X38175200D01*
G02X38162480Y12655840I0J12720D01*
G01Y12681730D01*
X38023020D01*
G02X38009540Y12687320I8J19067D01*
G37*
G36*
G01X35015600Y12878630D02*
X35044380D01*
G02X35085960Y12905300I41580J-19078D01*
G02Y12813820I0J-45740D01*
G02X35044380Y12840490I0J45748D01*
G01X35023500D01*
X34974360Y12791350D01*
Y12772420D01*
G02X34971110Y12763940I-12721J13D01*
G02X34974360Y12755460I-9471J-8493D01*
G01Y12722280D01*
G02X34961640Y12709560I-12725J5D01*
G01X34933720D01*
G02X34921000Y12722280I5J12725D01*
G01Y12755460D01*
G02X34924250Y12763940I12721J-13D01*
G02X34921000Y12772420I9471J8493D01*
G01Y12805600D01*
G02X34933720Y12818320I12725J-5D01*
G01X34947390D01*
X35002120Y12873040D01*
G02X35015600Y12878630I13488J-13477D01*
G37*
G36*
G01X29559740Y12912400D02*
X29657740D01*
G02X29670460Y12899680I0J-12720D01*
G01Y12875750D01*
X29754800D01*
G02X29768280Y12870160I-8J-19067D01*
G01X29780980Y12857460D01*
G02X29786570Y12843980I-13477J-13488D01*
G01Y12777410D01*
X29805350Y12758630D01*
X29868850D01*
G02X29896300Y12731180I-13J-27463D01*
G01Y12701660D01*
G02X29868850Y12674210I-27463J13D01*
G01X29772330D01*
G02X29744880Y12701660I13J27463D01*
G01Y12731180D01*
G02X29752700Y12750360I27463J-13D01*
G03X29752940Y12757190I-3635J3547D01*
G02X29748430Y12769510I14572J12320D01*
G01Y12836080D01*
X29746900Y12837610D01*
X29670460D01*
Y12813680D01*
G02X29657740Y12800960I-12720J0D01*
G01X29559740D01*
G02X29547020Y12813680I0J12720D01*
G01Y12837610D01*
X29468000D01*
X29239560Y12609180D01*
G02X29226080Y12603590I-13488J13477D01*
G01X29171540D01*
Y12580750D01*
G02X29158820Y12568030I-12720J0D01*
G01X29039440D01*
G02X29026720Y12580750I0J12720D01*
G01Y12664570D01*
G02X29039440Y12677290I12720J0D01*
G01X29158820D01*
G02X29171540Y12664570I0J-12720D01*
G01Y12641730D01*
X29218180D01*
X29446620Y12870160D01*
G02X29460100Y12875750I13488J-13477D01*
G01X29547020D01*
Y12899680D01*
G02X29559740Y12912400I12720J0D01*
G37*
G36*
G01X36264020Y13091650D02*
Y13121170D01*
G02X36291470Y13148620I27463J-13D01*
G01X36387990D01*
G02X36415440Y13121170I-13J-27463D01*
G01Y13091170D01*
X36451780Y13054820D01*
G02X36457370Y13041340I-13477J-13488D01*
G01Y13000660D01*
X36481300D01*
G02X36494020Y12987940I0J-12720D01*
G01Y12889940D01*
G02X36481300Y12877220I-12720J0D01*
G01X36395300D01*
G02X36382580Y12889940I0J12720D01*
G01Y12919870D01*
X36205180D01*
X36081480Y12796170D01*
X36082350Y12793270D01*
G02X36084260Y12780200I-43831J-13080D01*
G01Y12780180D01*
G02X36038520Y12825920I-45740J0D01*
G01X36038540D01*
G02X36051610Y12824010I-10J-45741D01*
G01X36054510Y12823140D01*
X36183800Y12952420D01*
G02X36197280Y12958010I13488J-13477D01*
G01X36382580D01*
Y12987940D01*
G02X36395300Y13000660I12720J0D01*
G01X36419230D01*
Y13033440D01*
X36388470Y13064200D01*
X36291470D01*
G02X36264020Y13091650I13J27463D01*
G37*
G36*
G01X31017700Y12862740D02*
X31003350D01*
G03X30996170Y12845400I7J-10159D01*
G01X31042320Y12799250D01*
X32458520D01*
X32640200Y12980930D01*
Y13346290D01*
X32636520Y13347340D01*
G02X32576550Y13426870I22750J79530D01*
G02X32741990I82720J0D01*
G02X32682020Y13347340I-82720J0D01*
G01X32678340Y13346290D01*
Y12973030D01*
G02X32672750Y12959550I-19067J8D01*
G01X32479900Y12766700D01*
G02X32466420Y12761110I-13488J13477D01*
G01X31034420D01*
G02X31020940Y12766700I8J19067D01*
G01X30944720Y12842920D01*
G02X30939130Y12856400I13477J13488D01*
G01Y12862740D01*
X30898700D01*
G02X30885980Y12875460I0J12720D01*
G01Y13205460D01*
G02X30898700Y13218180I12720J0D01*
G01X31017700D01*
G02X31030420Y13205460I0J-12720D01*
G01Y12875460D01*
G02X31017700Y12862740I-12720J0D01*
G37*
G36*
G01X33402200Y12539750D02*
Y13346290D01*
X33398520Y13347340D01*
G02X33338550Y13426870I22750J79530D01*
G02X33503990I82720J0D01*
G02X33444020Y13347340I-82720J0D01*
G01X33440340Y13346290D01*
Y12547650D01*
X33602300Y12385690D01*
X33710000D01*
X33710310Y12390440D01*
G02X33730480Y12409340I20189J-1333D01*
G01X33921500D01*
G02X33941710Y12389130I-21J-20231D01*
G01Y12344110D01*
G02X33921500Y12323900I-20231J21D01*
G01X33730480D01*
G02X33710310Y12342800I19J20233D01*
G01X33710000Y12347550D01*
X33594400D01*
G02X33580920Y12353140I8J19067D01*
G01X33407790Y12526270D01*
G02X33402200Y12539750I13477J13488D01*
G37*
G36*
G01X34152470Y11994270D02*
X34269050Y11877690D01*
X34638020D01*
X34638330Y11882440D01*
G02X34658500Y11901340I20189J-1333D01*
G01X34849520D01*
G02X34869730Y11881130I-21J-20231D01*
G01Y11836110D01*
G02X34849520Y11815900I-20231J21D01*
G01X34658500D01*
G02X34638330Y11834800I19J20233D01*
G01X34638020Y11839550D01*
X34261150D01*
G02X34247670Y11845140I8J19067D01*
G01X34119920Y11972890D01*
G02X34114330Y11986370I13477J13488D01*
G01Y12869000D01*
G02X34119920Y12882480I19067J-8D01*
G01X34453400Y13215960D01*
G02X34466880Y13221550I13488J-13477D01*
G01X34627180D01*
X34672200Y13266570D01*
Y13346290D01*
X34668520Y13347340D01*
G02X34608550Y13426870I22750J79530D01*
G02X34773990I82720J0D01*
G02X34714020Y13347340I-82720J0D01*
G01X34710340Y13346290D01*
Y13258670D01*
G02X34704750Y13245190I-19067J8D01*
G01X34673060Y13213490D01*
G03X34680240Y13196150I7187J-7181D01*
G01X34687580D01*
X34874800Y13383370D01*
X34872950Y13386720D01*
G02X34862550Y13426870I72319J40155D01*
G02X34945270Y13344150I82720J0D01*
G02X34905120Y13354550I5J82719D01*
G01X34901770Y13356400D01*
X34784260Y13238890D01*
G03X34791440Y13221550I7187J-7181D01*
G01X34966980D01*
X35128800Y13383370D01*
X35126950Y13386720D01*
G02X35116550Y13426870I72319J40155D01*
G02X35199270Y13344150I82720J0D01*
G02X35155840Y13356470I0J82709D01*
G01X35012860Y13213490D01*
G03X35020040Y13196150I7187J-7181D01*
G01X35195580D01*
X35382800Y13383370D01*
X35380950Y13386720D01*
G02X35370550Y13426870I72319J40155D01*
G02X35453270Y13344150I82720J0D01*
G02X35413120Y13354550I5J82719D01*
G01X35409770Y13356400D01*
X35216960Y13163600D01*
G02X35203480Y13158010I-13488J13477D01*
G01X34775240D01*
X34730020Y13112800D01*
G02X34716540Y13107210I-13488J13477D01*
G01X34523330D01*
X34311230Y12895110D01*
Y12339600D01*
X34392140Y12258690D01*
X34638020D01*
X34638330Y12263440D01*
G02X34658500Y12282340I20189J-1333D01*
G01X34849520D01*
G02X34869730Y12262130I-21J-20231D01*
G01Y12217110D01*
G02X34849520Y12196900I-20231J21D01*
G01X34658500D01*
G02X34638330Y12215800I19J20233D01*
G01X34638020Y12220550D01*
X34384240D01*
G02X34370760Y12226140I8J19067D01*
G01X34278680Y12318220D01*
G02X34273090Y12331700I13477J13488D01*
G01Y12868380D01*
G03X34255750Y12875560I-10159J-7D01*
G01X34231850Y12851660D01*
Y12232420D01*
X34332580Y12131690D01*
X34638020D01*
X34638330Y12136440D01*
G02X34658500Y12155340I20189J-1333D01*
G01X34849520D01*
G02X34869730Y12135130I-21J-20231D01*
G01Y12090110D01*
G02X34849520Y12069900I-20231J21D01*
G01X34658500D01*
G02X34638330Y12088800I19J20233D01*
G01X34638020Y12093550D01*
X34324680D01*
G02X34311200Y12099140I8J19067D01*
G01X34199300Y12211040D01*
G02X34193710Y12224520I13477J13488D01*
G01Y12854150D01*
G03X34185040Y12857740I-5080J-3D01*
G01X34177870Y12850570D01*
Y12127640D01*
X34300820Y12004690D01*
X34638020D01*
X34638330Y12009440D01*
G02X34658500Y12028340I20189J-1333D01*
G01X34849520D01*
G02X34869730Y12008130I-21J-20231D01*
G01Y11963110D01*
G02X34849520Y11942900I-20231J21D01*
G01X34658500D01*
G02X34638330Y11961800I19J20233D01*
G01X34638020Y11966550D01*
X34292920D01*
G02X34279440Y11972140I8J19067D01*
G01X34169810Y12081760D01*
G03X34152470Y12074580I-7181J-7187D01*
G01Y11994270D01*
G37*
G36*
G01X35942200Y13281600D02*
Y13346290D01*
X35938520Y13347340D01*
G02X35878550Y13426870I22750J79530D01*
G02X36043990I82720J0D01*
G02X35984020Y13347340I-82720J0D01*
G01X35980340Y13346290D01*
Y13289500D01*
X36049360Y13220480D01*
X36068120D01*
X36069210Y13224090D01*
G02X36095490Y13243620I26292J-7933D01*
G01X36192010D01*
G02X36219460Y13216170I-13J-27463D01*
G01Y13186650D01*
G02X36192010Y13159200I-27463J13D01*
G01X36095490D01*
G02X36069210Y13178730I12J27463D01*
G01X36068120Y13182340D01*
X36041460D01*
G02X36027980Y13187930I8J19067D01*
G01X35947790Y13268120D01*
G02X35942200Y13281600I13477J13488D01*
G37*
G36*
G01X33087980Y13403290D02*
G02X33084550Y13426860I79291J23573D01*
G01Y13426870D01*
G02X33249990I82720J0D01*
G02X33237670Y13383440I-82709J0D01*
G01X33353080Y13268020D01*
G02X33358670Y13254540I-13477J-13488D01*
G01Y12391180D01*
X33491160Y12258690D01*
X33710000D01*
X33710310Y12263440D01*
G02X33730480Y12282340I20189J-1333D01*
G01X33921500D01*
G02X33941710Y12262130I-21J-20231D01*
G01Y12217110D01*
G02X33921500Y12196900I-20231J21D01*
G01X33730480D01*
G02X33710310Y12215800I19J20233D01*
G01X33710000Y12220550D01*
X33483260D01*
G02X33469780Y12226140I8J19067D01*
G01X33326120Y12369800D01*
G02X33320530Y12383280I13477J13488D01*
G01Y13246640D01*
X33210770Y13356400D01*
X33207420Y13354550D01*
G02X33167270Y13344150I-40155J72319D01*
G01X33167260D01*
G02X33143690Y13347580I3J82721D01*
G03X33133610Y13330660I-2896J-9737D01*
G01X33273700Y13190560D01*
G02X33279290Y13177080I-13477J-13488D01*
G01Y12311800D01*
X33459400Y12131690D01*
X33710000D01*
X33710310Y12136440D01*
G02X33730480Y12155340I20189J-1333D01*
G01X33921500D01*
G02X33941710Y12135130I-21J-20231D01*
G01Y12090110D01*
G02X33921500Y12069900I-20231J21D01*
G01X33730480D01*
G02X33710310Y12088800I19J20233D01*
G01X33710000Y12093550D01*
X33451500D01*
G02X33438020Y12099140I8J19067D01*
G01X33246740Y12290420D01*
G02X33241150Y12303900I13477J13488D01*
G01Y13169180D01*
X33002530Y13407800D01*
X32993850D01*
X32992800Y13404120D01*
G02X32913270Y13344150I-79530J22750D01*
G02Y13509590I0J82720D01*
G02X32992800Y13449620I0J-82720D01*
G01X32993850Y13445940D01*
X33010430D01*
G02X33023910Y13440350I-8J-19067D01*
G01X33071060Y13393210D01*
G03X33087980Y13403290I7183J7184D01*
G37*
G36*
G01X38356100Y13298370D02*
Y13284970D01*
G02X38352480Y13276230I-12372J5D01*
G01X38331880Y13255640D01*
G03X38340040Y13238340I7185J-7185D01*
G02X38343730Y13238520I3720J-38339D01*
G02X38377370Y13218770I0J-38524D01*
G03X38395110I8870J4949D01*
G02X38428750Y13238520I33640J-18774D01*
G02X38462380Y13218790I0J-38526D01*
G03X38480110I8865J4956D01*
G02X38513740Y13238520I33630J-18796D01*
G02X38547370Y13218780I0J-38517D01*
G03X38565120I8875J4948D01*
G02X38598750Y13238520I33630J-18777D01*
G02Y13161480I0J-38520D01*
G02X38565120Y13181220I0J38517D01*
G03X38547370I-8875J-4948D01*
G02X38513740Y13161480I-33630J18777D01*
G02X38480110Y13181210I0J38526D01*
G03X38462380I-8865J-4956D01*
G02X38428750Y13161480I-33630J18796D01*
G02X38395110Y13181230I0J38524D01*
G03X38377370I-8870J-4949D01*
G02X38362800Y13166530I-33639J18771D01*
G01Y13152160D01*
G02X38357210Y13138680I-19067J8D01*
G01X38334160Y13115620D01*
Y13011470D01*
X38518680Y12826950D01*
X38828300D01*
G02X38841780Y12821360I-8J-19067D01*
G01X38972550Y12690590D01*
G02X38978140Y12677110I-13477J-13488D01*
G01Y12620620D01*
G02X38969130Y12604420I-19069J0D01*
G01X38966730Y12602930D01*
Y12551170D01*
X38973030Y12544870D01*
G02X38977050Y12535170I-9693J-9700D01*
G01Y12526190D01*
G02X38973220Y12516680I-13722J0D01*
G02X38977050Y12507170I-9892J-9510D01*
G01Y12498190D01*
G02X38973220Y12488680I-13722J0D01*
G02X38977050Y12479170I-9892J-9510D01*
G01Y12467840D01*
X39009360D01*
G02X39010380Y12466820I0J-1020D01*
G01Y12429340D01*
G02X39009360Y12428320I-1020J0D01*
G01X38977050D01*
Y12414190D01*
G02X38973220Y12404680I-13722J0D01*
G02X38977050Y12395170I-9892J-9510D01*
G01Y12386190D01*
G02X38973220Y12376680I-13722J0D01*
G02X38977050Y12367170I-9892J-9510D01*
G01Y12358190D01*
G02X38973220Y12348680I-13722J0D01*
G02X38977050Y12339170I-9892J-9510D01*
G01Y12330190D01*
G02X38973220Y12320680I-13722J0D01*
G02X38977050Y12311170I-9892J-9510D01*
G01Y12302190D01*
G02X38973220Y12292680I-13722J0D01*
G02X38977050Y12283170I-9892J-9510D01*
G01Y12274190D01*
G02X38973220Y12264680I-13722J0D01*
G02X38977050Y12255170I-9892J-9510D01*
G01Y12246190D01*
G02X38973220Y12236680I-13722J0D01*
G02X38977050Y12227170I-9892J-9510D01*
G01Y12218190D01*
G02X38973220Y12208680I-13722J0D01*
G02X38977050Y12199170I-9892J-9510D01*
G01Y12190190D01*
G02X38973220Y12180680I-13722J0D01*
G02X38977050Y12171170I-9892J-9510D01*
G01Y12162190D01*
G02X38973220Y12152680I-13722J0D01*
G02X38977050Y12143170I-9892J-9510D01*
G01Y12134190D01*
G02X38973220Y12124680I-13722J0D01*
G02X38977050Y12115170I-9892J-9510D01*
G01Y12106190D01*
G02X38973220Y12096680I-13722J0D01*
G02X38977050Y12087170I-9892J-9510D01*
G01Y12078190D01*
G02X38973220Y12068680I-13722J0D01*
G02X38977050Y12059170I-9892J-9510D01*
G01Y12050190D01*
G02X38973220Y12040680I-13722J0D01*
G02X38977050Y12031170I-9892J-9510D01*
G01Y12022190D01*
G02X38973030Y12012490I-13713J0D01*
G01X38966730Y12006190D01*
Y11882900D01*
G02X38962710Y11873200I-13713J0D01*
G01X38945760Y11856250D01*
Y11846490D01*
G02X38941740Y11836790I-13713J0D01*
G01X38914630Y11809680D01*
G02X38904930Y11805660I-9700J9693D01*
G01X38835380D01*
Y11799380D01*
G02X38834360Y11798360I-1020J0D01*
G01X38794360D01*
G02X38793340Y11799380I0J1020D01*
G01Y11839380D01*
G02X38794360Y11840400I1020J0D01*
G01X38834360D01*
G02X38835380Y11839380I0J-1020D01*
G01Y11833100D01*
X38899250D01*
X38918320Y11852170D01*
Y11856920D01*
X38904580Y11870660D01*
X38835380D01*
Y11864380D01*
G02X38834360Y11863360I-1020J0D01*
G01X38794360D01*
G02X38793340Y11864380I0J1020D01*
G01Y11904380D01*
G02X38794360Y11905400I1020J0D01*
G01X38834360D01*
G02X38835380Y11904380I0J-1020D01*
G01Y11898100D01*
X38910260D01*
G02X38919960Y11894080I0J-13713D01*
G01X38928130Y11885910D01*
X38933290Y11891070D01*
Y11962860D01*
G03X38920190Y11972580I-10160J-6D01*
G02X38914110Y11971680I-6085J20119D01*
G02X38893880Y11986980I0J21024D01*
G01X38892840Y11990680D01*
X38879840D01*
X38872370Y11983210D01*
G02X38870940Y11982620I-1430J1438D01*
G01X38850460D01*
X38835380Y11967540D01*
Y11929380D01*
G02X38834360Y11928360I-1020J0D01*
G01X38794360D01*
G02X38793340Y11929380I0J1020D01*
G01Y11969380D01*
G02X38794360Y11970400I1020J0D01*
G01X38832520D01*
X38848190Y11986070D01*
G02X38849620Y11986660I1430J-1438D01*
G01X38870100D01*
X38877570Y11994130D01*
G02X38879000Y11994720I1430J-1438D01*
G01X38892840D01*
X38893880Y11998420D01*
G02X38914110Y12013720I20230J-5724D01*
G02X38920580Y12012700I0J-21030D01*
G03X38933620Y12020160I3123J9668D01*
G02X38937120Y12026680I13391J-2989D01*
G02X38933290Y12036190I9892J9510D01*
G01Y12045170D01*
G02X38937120Y12054680I13722J0D01*
G02X38933290Y12064190I9892J9510D01*
G01Y12073170D01*
G02X38937120Y12082680I13722J0D01*
G02X38933290Y12092190I9892J9510D01*
G01Y12101170D01*
G02X38937120Y12110680I13722J0D01*
G02X38933290Y12120190I9892J9510D01*
G01Y12129170D01*
G02X38937120Y12138680I13722J0D01*
G02X38933290Y12148190I9892J9510D01*
G01Y12157170D01*
G02X38937120Y12166680I13722J0D01*
G02X38933290Y12176190I9892J9510D01*
G01Y12185170D01*
G02X38937120Y12194680I13722J0D01*
G02X38933290Y12204190I9892J9510D01*
G01Y12213170D01*
G02X38937120Y12222680I13722J0D01*
G02X38933290Y12232190I9892J9510D01*
G01Y12241170D01*
G02X38937120Y12250680I13722J0D01*
G02X38933290Y12260190I9892J9510D01*
G01Y12269170D01*
G02X38937120Y12278680I13722J0D01*
G02X38933290Y12288190I9892J9510D01*
G01Y12297170D01*
G02X38937120Y12306680I13722J0D01*
G02X38933290Y12316190I9892J9510D01*
G01Y12325170D01*
G02X38937120Y12334680I13722J0D01*
G02X38933290Y12344190I9892J9510D01*
G01Y12353170D01*
G02X38937120Y12362680I13722J0D01*
G02X38933290Y12372190I9892J9510D01*
G01Y12381170D01*
G02X38937120Y12390680I13722J0D01*
G02X38933290Y12400190I9892J9510D01*
G01Y12409170D01*
G02X38937120Y12418680I13722J0D01*
G02X38933290Y12428190I9892J9510D01*
G01Y12437170D01*
G02X38937120Y12446680I13722J0D01*
G02X38933290Y12456190I9892J9510D01*
G01Y12465170D01*
G02X38937120Y12474680I13722J0D01*
G02X38933290Y12484190I9892J9510D01*
G01Y12493170D01*
G02X38937120Y12502680I13722J0D01*
G02X38933290Y12512190I9892J9510D01*
G01Y12521170D01*
G02X38937120Y12530680I13722J0D01*
G02X38933290Y12540190I9892J9510D01*
G01Y12596630D01*
X38928150Y12601770D01*
X38926780Y12602110D01*
G02X38912300Y12620620I4591J18510D01*
G01Y12657730D01*
X38808920Y12761110D01*
X38499300D01*
G02X38485820Y12766700I8J19067D01*
G01X38273910Y12978610D01*
G02X38268320Y12992090I13477J13488D01*
G01Y13115620D01*
X38245270Y13138680D01*
G02X38239680Y13152160I13477J13488D01*
G01Y13166530D01*
G02X38225110Y13181230I19069J33471D01*
G03X38207370I-8870J-4949D01*
G02X38173730Y13161480I-33640J18774D01*
G02X38140100Y13181210I0J38526D01*
G03X38122370I-8865J-4956D01*
G02X38088740Y13161480I-33630J18796D01*
G02X38055110Y13181220I0J38517D01*
G03X38037360I-8875J-4948D01*
G02X38003730Y13161480I-33630J18777D01*
G02Y13238520I0J38520D01*
G02X38037360Y13218780I0J-38517D01*
G03X38055110I8875J4948D01*
G02X38088740Y13238520I33630J-18777D01*
G02X38122370Y13218790I0J-38526D01*
G03X38140100I8865J4956D01*
G02X38173730Y13238520I33630J-18796D01*
G02X38207370Y13218770I0J-38524D01*
G03X38225110I8870J4949D01*
G02X38258750Y13238520I33640J-18774D01*
G02X38272810Y13235860I-6J-38519D01*
G01X38275910Y13234650D01*
X38331360Y13290100D01*
Y13298370D01*
X38328310Y13299700D01*
G02X38310110Y13316200I15422J35298D01*
G03X38292370I-8870J-4955D01*
G02X38258750Y13296480I-33620J18799D01*
G02X38225110Y13316230I0J38524D01*
G03X38207370I-8870J-4949D01*
G02X38173730Y13296480I-33640J18774D01*
G02X38140100Y13316210I0J38526D01*
G03X38122370I-8865J-4956D01*
G02X38088740Y13296480I-33630J18796D01*
G02X38055110Y13316220I0J38517D01*
G03X38037360I-8875J-4948D01*
G02X38003730Y13296480I-33630J18777D01*
G02Y13373520I0J38520D01*
G02X38037360Y13353780I0J-38517D01*
G03X38055110I8875J4948D01*
G02X38088740Y13373520I33630J-18777D01*
G02X38122370Y13353790I0J-38526D01*
G03X38140100I8865J4956D01*
G02X38154660Y13368470I33627J-18792D01*
G01Y13386560D01*
G02X38155450Y13391990I19056J0D01*
G01X38155660Y13392700D01*
Y13437380D01*
X38142450Y13450590D01*
X37705860D01*
Y13420660D01*
G02X37693140Y13407940I-12720J0D01*
G01X37607140D01*
G02X37594420Y13420660I0J12720D01*
G01Y13518660D01*
G02X37607140Y13531380I12720J0D01*
G01X37693140D01*
G02X37705860Y13518660I0J-12720D01*
G01Y13488730D01*
X38150350D01*
G02X38163830Y13483140I-8J-19067D01*
G01X38188210Y13458760D01*
G02X38193800Y13445280I-13477J-13488D01*
G01Y13387560D01*
G02X38193010Y13382130I-19056J0D01*
G01X38192800Y13381420D01*
Y13368470D01*
G02X38207370Y13353770I-19069J-33471D01*
G03X38225110I8870J4949D01*
G02X38258750Y13373520I33640J-18774D01*
G02X38292370Y13353800I0J-38519D01*
G03X38310110I8870J4955D01*
G02X38343730Y13373520I33620J-18799D01*
G02X38377370Y13353770I0J-38524D01*
G03X38395110I8870J4949D01*
G02X38428750Y13373520I33640J-18774D01*
G02X38462380Y13353790I0J-38526D01*
G03X38480110I8865J4956D01*
G02X38513740Y13373520I33630J-18796D01*
G02X38547370Y13353780I0J-38517D01*
G03X38565120I8875J4948D01*
G02X38598750Y13373520I33630J-18777D01*
G02Y13296480I0J-38520D01*
G02X38565120Y13316220I0J38517D01*
G03X38547370I-8875J-4948D01*
G02X38513740Y13296480I-33630J18777D01*
G02X38480110Y13316210I0J38526D01*
G03X38462380I-8865J-4956D01*
G02X38428750Y13296480I-33630J18796D01*
G02X38395110Y13316230I0J38524D01*
G03X38377370I-8870J-4949D01*
G02X38359150Y13299700I-33638J18771D01*
G01X38356100Y13298370D01*
G37*
G54D46*
X29688120Y10064440D03*
X28494250Y11036990D03*
G54D47*
X28418040Y10240020D03*
X32942700Y10795680D03*
X33230620Y10300240D03*
X34371540Y10240020D03*
Y10636920D03*
X33863520Y10169530D03*
X30306350Y10911330D03*
X30300560Y11063710D03*
X33498360Y11351340D03*
X33928670Y10937390D03*
X34133400Y11351340D03*
X34307290Y11108870D03*
X39051850Y10685660D03*
X39183750Y10785360D03*
X37308600Y12859560D03*
X39054960Y12938940D03*
G54D48*
X31651270Y10276890D03*
Y13376890D03*
G54D49*
X27654250Y13493750D03*
X27908250D03*
X28162250D03*
X28416250D03*
G54D50*
X32151270Y13426870D03*
X33675270D03*
X33929270D03*
X34183270D03*
X34437270D03*
X35707270D03*
%LPD*%
G75*
G54D10*
X238120Y13573120D03*
X8413750Y396880D03*
X29231010Y13569520D03*
X39052500Y396880D03*
G54D11*
X762000Y1270000D03*
X1238250Y6985000D03*
X762000Y8890000D03*
Y10795000D03*
X1778000Y1270000D03*
X1714500Y3175000D03*
X1476380Y5080000D03*
X1778000Y8890000D03*
Y10795000D03*
X2667000Y1270000D03*
X2730500Y3175000D03*
X2492380Y5080000D03*
X2254250Y6985000D03*
X2667000Y8890000D03*
Y10795000D03*
X3683000Y1270000D03*
X4095750Y5080000D03*
X3619500Y6985000D03*
X3683000Y8890000D03*
Y10795000D03*
X4572000Y1270000D03*
Y3175000D03*
X4635500Y6985000D03*
X4572000Y8890000D03*
Y10795000D03*
X5588000Y1270000D03*
Y3175000D03*
X5111750Y5080000D03*
X5524500Y6985000D03*
X5588000Y8890000D03*
Y10795000D03*
X6477000Y1270000D03*
Y3175000D03*
X6000750Y5080000D03*
X6540500Y6985000D03*
X6477000Y8890000D03*
Y10795000D03*
X7016750Y5080000D03*
X7493000Y1270000D03*
Y3175000D03*
X7905750Y5080000D03*
X7429500Y6985000D03*
X7493000Y8890000D03*
Y10795000D03*
X8382000Y3175000D03*
X8445500Y6985000D03*
X8382000Y8890000D03*
Y10795000D03*
X9398000Y3175000D03*
X8921750Y5080000D03*
X9334500Y6985000D03*
X9398000Y8890000D03*
Y10795000D03*
X10287000Y3175000D03*
X9810750Y5080000D03*
X10350500Y6985000D03*
X10287000Y8890000D03*
Y10795000D03*
X10826750Y5080000D03*
X11303000Y3175000D03*
X11715750Y5080000D03*
X11239500Y6985000D03*
X11303000Y8890000D03*
Y10795000D03*
X12192000Y3175000D03*
X12255500Y6985000D03*
X12192000Y8890000D03*
Y10795000D03*
X13382620Y1270000D03*
X13208000Y3175000D03*
X12731750Y5080000D03*
X13144500Y6985000D03*
X13208000Y8890000D03*
Y10795000D03*
X14097000Y3175000D03*
X13620750Y5080000D03*
X14160500Y6985000D03*
X14097000Y8890000D03*
Y10795000D03*
X14398620Y1270000D03*
X14636750Y5080000D03*
X15113000Y3175000D03*
X15525750Y5080000D03*
X15049500Y6985000D03*
X15113000Y8890000D03*
Y10795000D03*
X16002000Y3175000D03*
X16065500Y6985000D03*
X16002000Y8890000D03*
Y10795000D03*
X17018000Y3175000D03*
X16541750Y5080000D03*
X16954500Y6985000D03*
X17018000Y8890000D03*
Y10795000D03*
X17907000Y3175000D03*
X17430750Y5080000D03*
X17907000Y8890000D03*
Y10795000D03*
X18446750Y5080000D03*
X17970500Y6985000D03*
X18923000Y3175000D03*
X19335750Y5080000D03*
X18859500Y6985000D03*
X18923000Y8890000D03*
Y10795000D03*
X19812000Y3175000D03*
X19875500Y6985000D03*
X19812000Y8890000D03*
Y10795000D03*
X20288250Y1270000D03*
X20828000Y3175000D03*
X20351750Y5080000D03*
X20764500Y6985000D03*
X20828000Y8890000D03*
Y10795000D03*
X21304250Y1270000D03*
X21240750Y5080000D03*
X22193250Y1270000D03*
X21717000Y3175000D03*
X22256750Y5080000D03*
X21780500Y6985000D03*
X21717000Y8890000D03*
Y10795000D03*
X23209250Y1270000D03*
X22733000Y3175000D03*
X23145750Y5080000D03*
X22669500Y6985000D03*
X22733000Y8890000D03*
Y10795000D03*
X23685500Y6985000D03*
X23622000Y8890000D03*
Y10795000D03*
X24161750Y5080000D03*
X24574500Y6985000D03*
X24638000Y8890000D03*
Y10795000D03*
X24812620Y3175000D03*
X26003250Y1270000D03*
X25828620Y3175000D03*
X25765120Y5080000D03*
X25590500Y6985000D03*
X26003250Y8890000D03*
Y10795000D03*
X26781120Y5080000D03*
X26479500Y6985000D03*
X27019250Y1270000D03*
X27495500Y6985000D03*
X27019250Y8890000D03*
Y10795000D03*
X27908250Y1270000D03*
Y3175000D03*
X28924250Y1270000D03*
Y3175000D03*
X29813250Y1270000D03*
X30829250D03*
X32015480Y3175000D03*
Y5080000D03*
Y6985000D03*
Y8890000D03*
X32988250Y1270000D03*
X33031480Y3175000D03*
Y5080000D03*
Y6985000D03*
Y8890000D03*
X34004250Y1270000D03*
X33940750Y3175000D03*
Y5080000D03*
Y6985000D03*
Y8890000D03*
X34956750Y3175000D03*
Y5080000D03*
Y6985000D03*
Y8890000D03*
X35845750Y1270000D03*
Y3175000D03*
Y5080000D03*
Y6985000D03*
Y8890000D03*
X36861750Y1270000D03*
Y3175000D03*
Y5080000D03*
Y6985000D03*
Y8890000D03*
X37750750Y2222500D03*
Y6032500D03*
Y8890000D03*
X38766750Y2222500D03*
Y6032500D03*
Y8890000D03*
G54D20*
X28670250Y13493750D03*
G54D30*
X35168220Y12462660D03*
Y12621420D03*
X35321220Y12462660D03*
Y12621420D03*
X36591300Y12938940D03*
X36438300D03*
X37497140Y13469660D03*
X37650140D03*
G54D12*
X1270000Y1270000D03*
Y8890000D03*
Y10795000D03*
X1984380Y5080000D03*
X1746250Y6985000D03*
X2222500Y3175000D03*
X3175000Y1270000D03*
Y8890000D03*
Y10795000D03*
X4127500Y6985000D03*
X5080000Y1270000D03*
Y3175000D03*
X4603750Y5080000D03*
X5080000Y8890000D03*
Y10795000D03*
X6508750Y5080000D03*
X6032500Y6985000D03*
X6985000Y1270000D03*
Y3175000D03*
Y8890000D03*
Y10795000D03*
X7937500Y6985000D03*
X8890000Y3175000D03*
X8413750Y5080000D03*
X8890000Y8890000D03*
Y10795000D03*
X10318750Y5080000D03*
X9842500Y6985000D03*
X10795000Y3175000D03*
Y8890000D03*
Y10795000D03*
X11747500Y6985000D03*
X12700000Y3175000D03*
X12223750Y5080000D03*
X12700000Y8890000D03*
Y10795000D03*
X13890620Y1270000D03*
X14128750Y5080000D03*
X13652500Y6985000D03*
X14605000Y3175000D03*
Y8890000D03*
Y10795000D03*
X15557500Y6985000D03*
X16510000Y3175000D03*
X16033750Y5080000D03*
X16510000Y8890000D03*
Y10795000D03*
X17938750Y5080000D03*
X17462500Y6985000D03*
X18415000Y3175000D03*
Y8890000D03*
Y10795000D03*
X19367500Y6985000D03*
X19843750Y5080000D03*
X20796250Y1270000D03*
X20320000Y3175000D03*
Y8890000D03*
Y10795000D03*
X21748750Y5080000D03*
X21272500Y6985000D03*
X22225000Y3175000D03*
Y8890000D03*
Y10795000D03*
X22701250Y1270000D03*
X23177500Y6985000D03*
X23653750Y5080000D03*
X24130000Y8890000D03*
Y10795000D03*
X25320620Y3175000D03*
X25082500Y6985000D03*
X26273120Y5080000D03*
X26511250Y1270000D03*
X26987500Y6985000D03*
X26511250Y8890000D03*
Y10795000D03*
X28416250Y1270000D03*
Y3175000D03*
X30321250Y1270000D03*
X32523480Y3175000D03*
Y5080000D03*
Y6985000D03*
Y8890000D03*
X33496250Y1270000D03*
X34448750Y3175000D03*
Y5080000D03*
Y6985000D03*
Y8890000D03*
X36353750Y1270000D03*
Y3175000D03*
Y5080000D03*
Y6985000D03*
Y8890000D03*
X38258750Y2222500D03*
Y6032500D03*
Y8890000D03*
G54D21*
X29291220Y11192580D03*
G54D22*
X29820590Y12716420D03*
X30016570Y12811420D03*
Y12621420D03*
X36339730Y13106410D03*
X36143750Y13201410D03*
X36339730Y13296410D03*
G54D31*
X38215320Y12700800D03*
X38340540D03*
G54D13*
X889000Y1524000D03*
X1365250Y7239000D03*
X889000Y9144000D03*
Y11049000D03*
X1524000Y1778000D03*
X1841500Y3429000D03*
X1603380Y5334000D03*
X2000250Y7493000D03*
X1524000Y9398000D03*
Y11303000D03*
X2794000Y1524000D03*
X2476500Y3683000D03*
X2238380Y5588000D03*
X2794000Y9144000D03*
Y11049000D03*
X3429000Y1778000D03*
Y9398000D03*
Y11303000D03*
X4222750Y5334000D03*
X3746500Y7239000D03*
X4381500Y7493000D03*
X4699000Y1524000D03*
Y3429000D03*
X4857750Y5588000D03*
X4699000Y9144000D03*
Y11049000D03*
X5334000Y1778000D03*
Y3683000D03*
X5651500Y7239000D03*
X5334000Y9398000D03*
Y11303000D03*
X6604000Y1524000D03*
Y3429000D03*
X6127750Y5334000D03*
X6286500Y7493000D03*
X6604000Y9144000D03*
Y11049000D03*
X7239000Y1778000D03*
Y3683000D03*
X6762750Y5588000D03*
X7239000Y9398000D03*
Y11303000D03*
X8032750Y5334000D03*
X7556500Y7239000D03*
X8509000Y3429000D03*
X8667750Y5588000D03*
X8191500Y7493000D03*
X8509000Y9144000D03*
Y11049000D03*
X9144000Y3683000D03*
X9461500Y7239000D03*
X9144000Y9398000D03*
Y11303000D03*
X10414000Y3429000D03*
X9937750Y5334000D03*
X10096500Y7493000D03*
X10414000Y9144000D03*
Y11049000D03*
X11049000Y3683000D03*
X10572750Y5588000D03*
X11049000Y9398000D03*
Y11303000D03*
X11842750Y5334000D03*
X11366500Y7239000D03*
X12319000Y3429000D03*
X12477750Y5588000D03*
X12001500Y7493000D03*
X12319000Y9144000D03*
Y11049000D03*
X12954000Y3683000D03*
X13271500Y7239000D03*
X12954000Y9398000D03*
Y11303000D03*
X13509620Y1524000D03*
X14144620Y1778000D03*
X13747750Y5334000D03*
X13906500Y7493000D03*
X14224000Y3429000D03*
X14859000Y3683000D03*
X14382750Y5588000D03*
X14224000Y9144000D03*
X14859000Y9398000D03*
X14224000Y11049000D03*
X14859000Y11303000D03*
X15652750Y5334000D03*
X15176500Y7239000D03*
X16129000Y3429000D03*
X16287750Y5588000D03*
X15811500Y7493000D03*
X16129000Y9144000D03*
Y11049000D03*
X16764000Y3683000D03*
X17081500Y7239000D03*
X16764000Y9398000D03*
Y11303000D03*
X17557750Y5334000D03*
X17716500Y7493000D03*
X18034000Y3429000D03*
X18669000Y3683000D03*
X18192750Y5588000D03*
X18034000Y9144000D03*
X18669000Y9398000D03*
X18034000Y11049000D03*
X18669000Y11303000D03*
X19462750Y5334000D03*
X18986500Y7239000D03*
X19939000Y3429000D03*
X20097750Y5588000D03*
X19621500Y7493000D03*
X19939000Y9144000D03*
Y11049000D03*
X20415250Y1524000D03*
X20574000Y3683000D03*
X20891500Y7239000D03*
X20574000Y9398000D03*
Y11303000D03*
X21050250Y1778000D03*
X21367750Y5334000D03*
X21526500Y7493000D03*
X22320250Y1524000D03*
X21844000Y3429000D03*
X22479000Y3683000D03*
X22002750Y5588000D03*
X21844000Y9144000D03*
X22479000Y9398000D03*
X21844000Y11049000D03*
X22479000Y11303000D03*
X22955250Y1778000D03*
X22796500Y7239000D03*
X23272750Y5334000D03*
X23907750Y5588000D03*
X23431500Y7493000D03*
X23749000Y9144000D03*
Y11049000D03*
X24701500Y7239000D03*
X24384000Y9398000D03*
Y11303000D03*
X24939620Y3429000D03*
X25336500Y7493000D03*
X26130250Y1524000D03*
X25574620Y3683000D03*
X25892120Y5334000D03*
X26130250Y9144000D03*
Y11049000D03*
X26765250Y1778000D03*
X26527120Y5588000D03*
X26606500Y7239000D03*
X26765250Y9398000D03*
Y11303000D03*
X27241500Y7493000D03*
X28035250Y1524000D03*
Y3429000D03*
X28670250Y1778000D03*
Y3683000D03*
X29940250Y1524000D03*
X30575250Y1778000D03*
X32142480Y3429000D03*
Y5334000D03*
Y7239000D03*
Y9144000D03*
X32777480Y3683000D03*
Y5588000D03*
Y7493000D03*
Y9398000D03*
X33115250Y1524000D03*
X33750250Y1778000D03*
X34067750Y3429000D03*
Y5334000D03*
Y7239000D03*
Y9144000D03*
X34702750Y3683000D03*
Y5588000D03*
Y7493000D03*
Y9398000D03*
X35972750Y1524000D03*
Y3429000D03*
Y5334000D03*
Y7239000D03*
Y9144000D03*
X36607750Y1778000D03*
Y3683000D03*
Y5588000D03*
Y7493000D03*
Y9398000D03*
X37877750Y2476500D03*
Y6286500D03*
Y9144000D03*
X38512750Y2730500D03*
Y6540500D03*
Y9398000D03*
G54D40*
X38465660Y12339380D03*
X38749360Y11981880D03*
Y12176880D03*
Y11851880D03*
Y11916880D03*
X38529360Y12306880D03*
X38465660Y12274380D03*
X38529360Y12241880D03*
X38465660Y12209380D03*
X38529360Y12176880D03*
X38465660Y12144380D03*
Y12079380D03*
X38749360Y12046880D03*
X38529360D03*
X38465660Y12014380D03*
X38529360Y11981880D03*
X38606860Y12306880D03*
X38814360Y12339380D03*
X38749360Y12306880D03*
Y12241880D03*
X38814360Y12014380D03*
Y12079380D03*
Y12144380D03*
X38485660Y11730680D03*
X38794360D03*
X38889360Y11710680D03*
X38529360Y12111880D03*
X38704360Y11710680D03*
X38465660Y11949380D03*
X38529360Y11916880D03*
X38465660Y11884380D03*
Y11819380D03*
X38529360Y11851880D03*
X38606860Y12111880D03*
Y12176880D03*
Y12241880D03*
X38749360Y12111880D03*
X38574360Y12448080D03*
X38639360D03*
X38485660Y12428080D03*
X38794360D03*
X38889360Y12448080D03*
X38989360Y11710680D03*
X39089360D03*
X39183060Y11730680D03*
X39203060Y11829380D03*
Y11929380D03*
Y12029380D03*
Y12129380D03*
Y12229380D03*
Y12329380D03*
X39183060Y12428080D03*
X39089360Y12448080D03*
X38989360D03*
G54D41*
G01X38870790Y11949380D02*
X38870330Y11948920D01*
G01X38704360Y12448090D02*
Y12620620D01*
G54D23*
X29608740Y12856680D03*
Y12703680D03*
X30243780Y12856680D03*
Y12703680D03*
G54D14*
X1097990Y2222500D03*
X939240Y9842500D03*
X1283260D03*
X1097990Y11747500D03*
X1442010Y2222500D03*
X1812370Y4127500D03*
X1709240Y6043370D03*
X2053260D03*
X1415490Y7937500D03*
X1759510D03*
X1442010Y11747500D03*
X2156390Y4127500D03*
X3002990Y2222500D03*
X3347010D03*
X3002990Y9842500D03*
X3347010D03*
X3016250Y11747500D03*
X3360270D03*
X4272990Y6032500D03*
X3796740Y7937500D03*
X4140760D03*
X4907990Y2222500D03*
X4669870Y4127500D03*
X5013890D03*
X4617010Y6032500D03*
X4907990Y9842500D03*
Y11747500D03*
X5252010Y2222500D03*
X5701740Y7937500D03*
X5252010Y9842500D03*
Y11747500D03*
X6495490Y4127500D03*
X6177990Y6032500D03*
X6522010D03*
X6045760Y7937500D03*
X6654240Y2222500D03*
X6998260D03*
X6839510Y4127500D03*
X6971740Y9842500D03*
X7315760D03*
X6733610Y11747500D03*
X7077630D03*
X8082990Y6032500D03*
X7527370Y7937500D03*
X7871390D03*
X8479870Y4127500D03*
X8823890D03*
X8427010Y6032500D03*
X8731250Y11747500D03*
X8876740Y9842500D03*
X9220760D03*
X9075270Y11747500D03*
X9987990Y6032500D03*
X10332010D03*
X9670490Y7937500D03*
X10014510D03*
X10277750Y11747500D03*
X10384870Y4127500D03*
X10728890D03*
X10622990Y9842500D03*
X10967010D03*
X10621770Y11747500D03*
X11416740Y7937500D03*
X11760760D03*
X12289870Y4127500D03*
X11892990Y6032500D03*
X12237010D03*
X12527990Y11747500D03*
X12633890Y4127500D03*
X13242370Y7937500D03*
X12686740Y9842500D03*
X13030760D03*
X12872010Y11747500D03*
X13718610Y2222500D03*
X14062630D03*
X13797990Y6032500D03*
X13586390Y7937500D03*
X14194870Y4127500D03*
X14538890D03*
X14142010Y6032500D03*
X14432990Y9842500D03*
X14777010D03*
X14366870Y11747500D03*
X14710890D03*
X15623610Y6032500D03*
X15147370Y7937500D03*
X15491390D03*
X16179240Y4127500D03*
X15967630Y6032500D03*
X16337990Y9842500D03*
X16258610Y11747500D03*
X16523260Y4127500D03*
X17131740Y7937500D03*
X16682010Y9842500D03*
X16602630Y11747500D03*
X17607990Y6032500D03*
X17475760Y7937500D03*
X18004870Y4127500D03*
X18348890D03*
X17952010Y6032500D03*
X18242990Y9842500D03*
X18587010D03*
X18163610Y11747500D03*
X18507630D03*
X18957370Y7937500D03*
X19301390D03*
X19830490Y4127500D03*
X19592370Y6032500D03*
X19936390D03*
X19989240Y9842500D03*
X20068610Y11747500D03*
X20544870Y2222500D03*
X20888890D03*
X20174510Y4127500D03*
X20862370Y7937500D03*
X20333260Y9842500D03*
X20412630Y11747500D03*
X21417990Y6032500D03*
X21206390Y7937500D03*
X22370490Y2222500D03*
X21735490Y4127500D03*
X22079510D03*
X21762010Y6032500D03*
X21894240Y9842500D03*
X22238260D03*
X21973610Y11747500D03*
X22317630D03*
X22714510Y2222500D03*
X22767370Y7937500D03*
X23111390D03*
X23243610Y6032500D03*
X23587630D03*
X23799240Y9842500D03*
X24143260D03*
X23971250Y11747500D03*
X24315270D03*
X25148610Y4127500D03*
X24751740Y7937500D03*
X25095760D03*
X25492630Y4127500D03*
X25862990Y6032500D03*
X26180490Y9842500D03*
X26577370Y2222500D03*
X26921390D03*
X26207010Y6032500D03*
X26577370Y7937500D03*
X26921390D03*
X26524510Y9842500D03*
X26352500Y11747500D03*
X26696520D03*
X28244240Y2222500D03*
Y4127500D03*
X28588260Y2222500D03*
Y4127500D03*
X30069870Y2222500D03*
X30413890D03*
X32133610Y4127500D03*
X32212990Y6032500D03*
X32054240Y7937500D03*
X32133610Y9842500D03*
X32477630Y4127500D03*
X32557010Y6032500D03*
X32398260Y7937500D03*
X32477630Y9842500D03*
X33086110Y2222500D03*
X33430130D03*
X34276740Y4127500D03*
Y6032500D03*
X34038610Y7937500D03*
X34382630D03*
X34038610Y9842500D03*
X34382630D03*
X34620760Y4127500D03*
Y6032500D03*
X35943610D03*
Y7937500D03*
Y9842500D03*
X36181740Y2222500D03*
X36525760D03*
X36022990Y4127500D03*
X36367010D03*
X36287630Y6032500D03*
Y7937500D03*
Y9842500D03*
X37927990Y4127500D03*
X37848610Y7937500D03*
X38192630D03*
X37769240Y9842500D03*
X38113260D03*
X38272010Y4127500D03*
G54D32*
X37868730Y13297990D03*
X38733750D03*
G54D42*
G01X28333450Y13493750D02*
X28416250D01*
G01Y13410950D02*
Y13493750D01*
G01D02*
Y13576550D01*
G01Y13493750D02*
X28499050D01*
G01X30016570Y12574130D02*
Y12621420D01*
G01D02*
Y12668710D01*
G01X29935780Y12621420D02*
X30016570D01*
G01D02*
X30097360D01*
G01X30243780Y12703680D02*
Y12764480D01*
G01X30176980Y12703680D02*
X30243780D01*
G01D02*
X30310580D01*
G01X34754010Y12699820D02*
Y12747620D01*
G01D02*
Y12795420D01*
G01X34633210Y12747620D02*
X34754010D01*
G01X34947680Y12704480D02*
Y12738870D01*
G01D02*
X34979440D01*
G01X35321220Y12395860D02*
Y12462660D01*
G01D02*
Y12529460D01*
G01X35260420Y12462660D02*
X35321220D01*
G01D02*
X35382020D01*
G01X35321220Y12554620D02*
Y12621420D01*
G01D02*
Y12688220D01*
G01X35260420Y12621420D02*
X35321220D01*
G01D02*
X35382020D01*
G01X38340540Y12638040D02*
Y12700800D01*
G01D02*
Y12763560D01*
G01X38704360Y12411530D02*
Y12448080D01*
G01D02*
X38742160D01*
G54D24*
X30402540Y11288730D03*
Y11413950D03*
G54D15*
X1094360Y12302660D03*
Y12622660D03*
X1556640Y12302660D03*
Y12622660D03*
X2901620Y12302660D03*
X3363900D03*
X2901620Y12622660D03*
X3363900D03*
X4904360Y12302660D03*
Y12622660D03*
X5366640Y12302660D03*
Y12622660D03*
X6729980Y12302660D03*
X7192260D03*
X6729980Y12622660D03*
X7192260D03*
X8818950Y12302660D03*
Y12622660D03*
X9281230Y12302660D03*
Y12622660D03*
X11227940Y12302660D03*
X11690220D03*
X11227940Y12622660D03*
X11690220D03*
X13399050Y12302660D03*
X13861330D03*
X13399050Y12622660D03*
X13861330D03*
X15297400Y12302660D03*
Y12622660D03*
X15759680Y12302660D03*
Y12622660D03*
X16967990Y12302660D03*
Y12622660D03*
X17430270Y12302660D03*
Y12622660D03*
X18786730Y12302660D03*
X19249010D03*
X18786730Y12622660D03*
X19249010D03*
X20514810Y12302660D03*
Y12622660D03*
X20977090Y12302660D03*
Y12622660D03*
X22200070Y12302660D03*
Y12622660D03*
X22662350Y12302660D03*
Y12622660D03*
X23749250Y12302660D03*
Y12622660D03*
X24211530Y12302660D03*
Y12622660D03*
X25439950Y12302660D03*
Y12622660D03*
X25902230Y12302660D03*
Y12622660D03*
X26969870Y12302660D03*
X27432150D03*
X26969870Y12622660D03*
X27432150D03*
X28636850Y12302660D03*
X29099130D03*
X28636850Y12622660D03*
X29099130D03*
G54D33*
X37868730Y13635990D03*
X38733750D03*
G54D43*
G01X1442010Y2222500D02*
Y2077010D01*
X889000Y1524000D01*
G01X2976310Y2381400D02*
X1190700D01*
X1097990Y2288690D01*
Y2222500D01*
G01X1283260Y9842500D02*
Y9538260D01*
X889000Y9144000D01*
G01X2958100Y9978270D02*
X976980D01*
X939240Y9940530D01*
Y9842500D01*
G01X889000Y11049000D02*
X1350100Y11510100D01*
X1428840D01*
X1442010Y11523270D01*
Y11747500D01*
G01X2929360Y11914700D02*
X2890300Y11875640D01*
X1131540D01*
X1097990Y11842090D01*
Y11747500D01*
G01X1094360Y12622660D02*
Y12710290D01*
G01X2156390Y4127500D02*
Y3743890D01*
X1841500Y3429000D01*
G01X4604040Y4286520D02*
X1870880D01*
X1812370Y4228010D01*
Y4127500D01*
G01X2053260Y6043370D02*
Y5783880D01*
X1603380Y5334000D01*
G01X4207140Y6191640D02*
X1746360D01*
X1709240Y6154520D01*
Y6043370D01*
G01X1759510Y7937500D02*
Y7633260D01*
X1365250Y7239000D01*
G01X3766380Y8096760D02*
X1493370D01*
X1415490Y8018880D01*
Y7937500D01*
G01X1556640Y12302660D02*
X1635390D01*
X1636630Y12303900D01*
X1746360D01*
X1892380Y12449920D01*
X1967810D01*
G01X1556640Y12302660D02*
Y12166250D01*
X1555210Y12164820D01*
Y12112740D01*
G01X2901620Y12302660D02*
X2822870D01*
X2821630Y12303900D01*
X2460780D01*
X2142020Y12622660D01*
X1556640D01*
G01X2017950Y12449920D02*
X2080250D01*
G01X3347010Y2222500D02*
Y2077010D01*
X2794000Y1524000D01*
G01X3002990Y2222500D02*
Y2354720D01*
X2976310Y2381400D01*
G01X4875160D02*
X2976310D01*
G01X3347010Y9842500D02*
Y9697010D01*
X2794000Y9144000D01*
G01X4873040Y9978270D02*
X2958100D01*
G01X3002990Y9842500D02*
Y9933380D01*
X2958100Y9978270D01*
G01X2794000Y11049000D02*
X3255100Y11510100D01*
X3333960D01*
X3360270Y11536410D01*
Y11747500D01*
G01X3016250D02*
Y11827810D01*
X2929360Y11914700D01*
G01D02*
X4770500D01*
X4842180Y11986380D01*
G01X3363900Y12302660D02*
X3442650D01*
X3443890Y12303900D01*
X3572100D01*
X3718120Y12449920D01*
X3906020D01*
G01X3364230Y12112740D02*
Y12154260D01*
X3363900Y12154590D01*
Y12302660D01*
G01X3364230Y12102180D02*
Y12112740D01*
G01X4904360Y12302660D02*
X4825610D01*
X4824370Y12303900D01*
X4445280D01*
X4126520Y12622660D01*
X3363900D01*
G01X2901620D02*
Y12710290D01*
G01X4617010Y6032500D02*
Y5728260D01*
X4222750Y5334000D01*
G01X4272990Y6032500D02*
Y6125790D01*
X4207140Y6191640D01*
G01X6112260D02*
X4207140D01*
G01X4140760Y7937500D02*
Y7633260D01*
X3746500Y7239000D01*
G01X3796740Y7937500D02*
Y8066400D01*
X3766380Y8096760D01*
G01X5635980D02*
X3766380D01*
G01X3956160Y12449920D02*
X4018460D01*
G01X5252010Y2222500D02*
Y2077010D01*
X4699000Y1524000D01*
G01X4907990Y2222500D02*
Y2348570D01*
X4875160Y2381400D01*
G01X6630060D02*
X4875160D01*
G01X5013890Y4127500D02*
Y3743890D01*
X4699000Y3429000D01*
G01X4669870Y4127500D02*
Y4220690D01*
X4604040Y4286520D01*
G01X6429780D02*
X4604040D01*
G01X5252010Y9842500D02*
Y9697010D01*
X4699000Y9144000D01*
G01X6916840Y9978270D02*
X4873040D01*
G01X4907990Y9842500D02*
Y9943320D01*
X4873040Y9978270D01*
G01X4699000Y11049000D02*
X5160100Y11510100D01*
X5239080D01*
X5252010Y11523030D01*
Y11747500D01*
G01X6667920Y11986380D02*
X4842180D01*
G01D02*
X4907990Y11920570D01*
Y11747500D01*
G01X4904360Y12622660D02*
Y12710290D01*
G01X6045760Y7937500D02*
Y7633260D01*
X5651500Y7239000D01*
G01X5701740Y7937500D02*
Y8031000D01*
X5635980Y8096760D01*
G01X7461720D02*
X5635980D01*
G01X5366640Y12302660D02*
X5514530D01*
X5597460Y12385590D01*
X5727030D01*
G01X5366640Y12302660D02*
Y12112740D01*
G01D02*
Y12096990D01*
G01X6729980Y12302660D02*
X6651230D01*
X6649990Y12303900D01*
X6271020D01*
X5952260Y12622660D01*
X5366640D01*
G01X6495490Y4127500D02*
Y4220810D01*
X6429780Y4286520D01*
G01X8414280D02*
X6429780D01*
G01X6522010Y6032500D02*
Y5728260D01*
X6127750Y5334000D01*
G01X6177990Y6032500D02*
Y6125910D01*
X6112260Y6191640D01*
G01X8017380D02*
X6112260D01*
G01X5777170Y12385590D02*
X5839470D01*
G01X6998260Y2222500D02*
Y1918260D01*
X6604000Y1524000D01*
G01X13653360Y2381400D02*
X6630060D01*
G01X6654240Y2222500D02*
Y2357220D01*
X6630060Y2381400D01*
G01X6839510Y4127500D02*
Y3664510D01*
X6604000Y3429000D01*
G01X7315760Y9842500D02*
X7303760D01*
X7253780Y9792520D01*
X7252520D01*
X6604000Y9144000D01*
G01X8822970Y9978270D02*
X6916840D01*
G01X6971740Y9842500D02*
Y9923370D01*
X6916840Y9978270D01*
G01X7077630Y11747500D02*
Y11389270D01*
X6737360Y11049000D01*
X6604000D01*
G01X8652420Y11986380D02*
X6667920D01*
G01X6733610Y11747500D02*
Y11920690D01*
X6667920Y11986380D01*
G01X7192260Y12302660D02*
X7271010D01*
X7272250Y12303900D01*
X7382340D01*
X7464030Y12385590D01*
X7552650D01*
G01X7192290Y12112740D02*
Y12149860D01*
X7192260Y12149890D01*
Y12302660D01*
G01X7192290Y12097780D02*
Y12112740D01*
G01X8818950Y12302660D02*
X8740200D01*
X8738960Y12303900D01*
X8255520D01*
X7936760Y12622660D01*
X7192260D01*
G01X6729980D02*
Y12710290D01*
G01X8427010Y6032500D02*
Y5728260D01*
X8032750Y5334000D01*
G01X8082990Y6032500D02*
Y6126030D01*
X8017380Y6191640D01*
G01X9922500D02*
X8017380D01*
G01X7871390Y7937500D02*
Y7553890D01*
X7556500Y7239000D01*
G01X7527370Y7937500D02*
Y8031110D01*
X7461720Y8096760D01*
G01X9604980D02*
X7461720D01*
G01X7602790Y12385590D02*
X7665090D01*
G01X8823890Y4127500D02*
Y3743890D01*
X8509000Y3429000D01*
G01X8479870Y4127500D02*
Y4220930D01*
X8414280Y4286520D01*
G01X10319400D02*
X8414280D01*
G01X8509000Y9144000D02*
X8667720D01*
X9220760Y9697040D01*
Y9842500D01*
G01X9075270Y11747500D02*
Y11615270D01*
X8509000Y11049000D01*
G01X8731250Y11747500D02*
Y11907550D01*
X8652420Y11986380D01*
G01X10240020D02*
X8652420D01*
G01X10014510Y7937500D02*
Y7792010D01*
X9461500Y7239000D01*
G01X10579090Y9978270D02*
X8822970D01*
G01X8876740Y9842500D02*
Y9924500D01*
X8822970Y9978270D01*
G01X9823350Y12308510D02*
X9365830D01*
X9359980Y12302660D01*
X9281230D01*
G01D02*
Y12112740D01*
G01D02*
Y12105810D01*
G01X11227940Y12302660D02*
X11149190D01*
X11147950Y12303900D01*
X10557540D01*
X10238780Y12622660D01*
X9281230D01*
G01X8818950D02*
Y12710290D01*
G01X10332010Y6032500D02*
Y5728260D01*
X9937750Y5334000D01*
G01X11827620Y6191640D02*
X9922500D01*
G01X9987990Y6032500D02*
Y6126150D01*
X9922500Y6191640D01*
G01X9670490Y7937500D02*
Y8031250D01*
X9604980Y8096760D01*
G01X11351340D02*
X9604980D01*
G01X10277750Y11747500D02*
Y11948650D01*
X10240020Y11986380D01*
G01X12462660D02*
X10240020D01*
G01X9873490Y12308510D02*
X9935790D01*
G01X10728890Y4127500D02*
Y3743890D01*
X10414000Y3429000D01*
G01X10384870Y4127500D02*
Y4221050D01*
X10319400Y4286520D01*
G01X12224520D02*
X10319400D01*
G01X10967010Y9842500D02*
Y9563650D01*
X10547360Y9144000D01*
X10414000D01*
G01X12647600Y9978270D02*
X10579090D01*
G01X10622990Y9842500D02*
Y9934370D01*
X10579090Y9978270D01*
G01X10621770Y11747500D02*
Y11256770D01*
X10414000Y11049000D01*
G01X11760760Y7937500D02*
Y7633260D01*
X11366500Y7239000D01*
G01X11416740Y7937500D02*
Y8031360D01*
X11351340Y8096760D01*
G01X13177080D02*
X11351340D01*
G01X11690220Y12302660D02*
X11768970D01*
X11770210Y12303900D01*
X11827620D01*
X11909300Y12385580D01*
X12050620D01*
G01X11690220Y12302660D02*
Y12112740D01*
G01D02*
Y12103940D01*
G01X13399050Y12302660D02*
X13320300D01*
X13319060Y12303900D01*
X12859560D01*
X12540800Y12622660D01*
X11690220D01*
G01X11227940D02*
Y12710290D01*
G01X12633890Y4127500D02*
Y3743890D01*
X12319000Y3429000D01*
G01X14129640Y4286520D02*
X12224520D01*
G01X12289870Y4127500D02*
Y4221170D01*
X12224520Y4286520D01*
G01X12237010Y6032500D02*
Y5728260D01*
X11842750Y5334000D01*
G01X11892990Y6032500D02*
Y6126270D01*
X11827620Y6191640D01*
G01X13732740D02*
X11827620D01*
G01X12319000Y9144000D02*
X12557340D01*
X12820650Y9407310D01*
Y9453250D01*
X12898750Y9531350D01*
X12944690D01*
X13030760Y9617420D01*
Y9842500D01*
G01X12872010Y11747500D02*
Y11602010D01*
X12319000Y11049000D01*
G01X12527990Y11747500D02*
Y11921050D01*
X12462660Y11986380D01*
G01X14288400D02*
X12462660D01*
G01X12100760Y12385580D02*
X12163060D01*
G01X13586390Y7937500D02*
Y7553890D01*
X13271500Y7239000D01*
G01X13242370Y7937500D02*
Y8031470D01*
X13177080Y8096760D01*
G01X15113200D02*
X13177080D01*
G01X14404590Y9978270D02*
X12647600D01*
G01X12686740Y9842500D02*
Y9939130D01*
X12647600Y9978270D01*
G01X14062630Y2222500D02*
Y2077010D01*
X13509620Y1524000D01*
G01X20503690Y2381400D02*
X13653360D01*
G01X13718610Y2222500D02*
Y2316150D01*
X13653360Y2381400D01*
G01X14142010Y6032500D02*
Y5728260D01*
X13747750Y5334000D01*
G01X13797990Y6032500D02*
Y6126390D01*
X13732740Y6191640D01*
G01X15558480D02*
X13732740D01*
G01X13861330Y12302660D02*
Y12112740D01*
G01Y12302660D02*
X14035140D01*
X14068690Y12336210D01*
Y12447460D01*
X14093810Y12472580D01*
X14203240D01*
G01X15297400Y12302660D02*
X15218650D01*
X15217410Y12303900D01*
X14923440D01*
X14604680Y12622660D01*
X13861330D01*
G01X13399050D02*
Y12710290D01*
G01X14538890Y4127500D02*
Y3743890D01*
X14224000Y3429000D01*
G01X14194870Y4127500D02*
Y4221290D01*
X14129640Y4286520D01*
G01X16114140D02*
X14129640D01*
G01X14777010Y9842500D02*
Y9697010D01*
X14224000Y9144000D01*
G01X16310280Y9978270D02*
X14404590D01*
G01X14432990Y9842500D02*
Y9949870D01*
X14404590Y9978270D01*
G01X14710890Y11747500D02*
Y11535890D01*
X14224000Y11049000D01*
G01X14366870Y11747500D02*
Y11907910D01*
X14288400Y11986380D01*
G01X16193520D02*
X14288400D01*
G01X14253380Y12472580D02*
X14315680D01*
G01X15623610Y6032500D02*
Y6126510D01*
X15558480Y6191640D01*
G01X17542980D02*
X15558480D01*
G01X15491390Y7937500D02*
Y7553890D01*
X15176500Y7239000D01*
G01X15147370Y7937500D02*
Y8062590D01*
X15113200Y8096760D01*
G01X17066700D02*
X15113200D01*
G01X15297400Y12622660D02*
Y12710290D01*
G01X16523260Y4127500D02*
Y3823260D01*
X16129000Y3429000D01*
G01X16179240Y4127500D02*
Y4221420D01*
X16114140Y4286520D01*
G01X17939880D02*
X16114140D01*
G01X15967630Y6032500D02*
Y5648880D01*
X15652750Y5334000D01*
G01X16682010Y9842500D02*
Y9697010D01*
X16129000Y9144000D01*
G01X18213320Y9978270D02*
X16310280D01*
G01X16337990Y9842500D02*
Y9950560D01*
X16310280Y9978270D01*
G01X16602630Y11747500D02*
Y11522630D01*
X16129000Y11049000D01*
G01X16258610Y11747500D02*
Y11921290D01*
X16193520Y11986380D01*
G01X18098640D02*
X16193520D01*
G01X15759680Y12302660D02*
X15915230D01*
X15944820Y12332250D01*
Y12435060D01*
X15982340Y12472580D01*
X16090600D01*
G01X15759680Y12302660D02*
Y12134320D01*
G01X16967990Y12302660D02*
X16889240D01*
X16888000Y12303900D01*
X16669800D01*
X16351040Y12622660D01*
X15759680D01*
G01X16140740Y12472580D02*
X16203040D01*
G01X17475760Y7937500D02*
Y7633260D01*
X17081500Y7239000D01*
G01X18892440Y8096760D02*
X17066700D01*
G01X17131740Y7937500D02*
Y8031720D01*
X17066700Y8096760D01*
G01X16967990Y12622660D02*
Y12710290D01*
G01X17952010Y6032500D02*
Y5728260D01*
X17557750Y5334000D01*
G01X19527480Y6191640D02*
X17542980D01*
G01X17607990Y6032500D02*
Y6126630D01*
X17542980Y6191640D01*
G01X17430270Y12302660D02*
X17586180D01*
X17614890Y12331370D01*
Y12425340D01*
X17652210Y12462660D01*
X17754790D01*
G01X17430270Y12302660D02*
Y12138090D01*
G01X18786730Y12302660D02*
X18707980D01*
X18706740Y12303900D01*
X18336780D01*
X18018020Y12622660D01*
X17430270D01*
G01X17804930Y12462660D02*
X17867230D01*
G01X18348890Y4127500D02*
Y3743890D01*
X18034000Y3429000D01*
G01X18004870Y4127500D02*
Y4221530D01*
X17939880Y4286520D01*
G01X19765620D02*
X17939880D01*
G01X18587010Y9842500D02*
Y9697010D01*
X18034000Y9144000D01*
G01X19946500Y9978270D02*
X18213320D01*
G01X18242990Y9842500D02*
Y9948600D01*
X18213320Y9978270D01*
G01X18507630Y11747500D02*
Y11522630D01*
X18034000Y11049000D01*
G01X18163610Y11747500D02*
Y11921410D01*
X18098640Y11986380D01*
G01X20003760D02*
X18098640D01*
G01X19301390Y7937500D02*
Y7553890D01*
X18986500Y7239000D01*
G01X20797560Y8096760D02*
X18892440D01*
G01X18957370Y7937500D02*
Y8031830D01*
X18892440Y8096760D01*
G01X19249010Y12302660D02*
X19477330D01*
X19506470Y12331800D01*
Y12416960D01*
X19552170Y12462660D01*
X19666280D01*
G01X19249010Y12302660D02*
Y12136140D01*
G01X20514810Y12302660D02*
X20436060D01*
X20434820Y12303900D01*
X20241900D01*
X19923140Y12622660D01*
X19249010D01*
G01X18786730D02*
Y12710290D01*
G01X20174510Y4127500D02*
Y3664510D01*
X19939000Y3429000D01*
G01X19830490Y4127500D02*
Y4221650D01*
X19765620Y4286520D01*
G01X21670740D02*
X19765620D01*
G01X19936390Y6032500D02*
Y5807640D01*
X19462750Y5334000D01*
G01X21353220Y6191640D02*
X19527480D01*
G01X19592370Y6032500D02*
Y6126750D01*
X19527480Y6191640D01*
G01X20333260Y9842500D02*
Y9538260D01*
X19939000Y9144000D01*
G01X21857910Y9978270D02*
X19946500D01*
G01X19989240Y9842500D02*
Y9935530D01*
X19946500Y9978270D01*
G01X20412630Y11747500D02*
Y11522630D01*
X19939000Y11049000D01*
G01X21908880Y11986380D02*
X20003760D01*
G01X20068610Y11747500D02*
Y11921530D01*
X20003760Y11986380D01*
G01X19716420Y12462660D02*
X19778720D01*
G01X20888890Y2222500D02*
Y1997640D01*
X20415250Y1524000D01*
G01X22344520Y2381400D02*
X20503690D01*
G01X20544870Y2222500D02*
Y2340220D01*
X20503690Y2381400D01*
G01X22702680Y8096760D02*
X20797560D01*
G01X20862370Y7937500D02*
Y8031950D01*
X20797560Y8096760D01*
G01X20514810Y12622660D02*
Y12710290D01*
G01X21762010Y6032500D02*
Y5728260D01*
X21367750Y5334000D01*
G01X23178960Y6191640D02*
X21353220D01*
G01X21417990Y6032500D02*
Y6126870D01*
X21353220Y6191640D01*
G01X21206390Y7937500D02*
Y7553890D01*
X20891500Y7239000D01*
G01X20977090Y12302660D02*
X21143000D01*
X21194460Y12354120D01*
Y12449960D01*
X21207160Y12462660D01*
X21326890D01*
G01X20977090Y12112740D02*
Y12302660D01*
G01X22200070D02*
X22121320D01*
X22120080Y12303900D01*
X21829500D01*
X21510740Y12622660D01*
X20977090D01*
G01X21377030Y12462660D02*
X21439330D01*
G01X22714510Y2222500D02*
Y1918260D01*
X22320250Y1524000D01*
G01X26512920Y2381400D02*
X22344520D01*
G01X22370490Y2222500D02*
Y2355430D01*
X22344520Y2381400D01*
G01X22079510Y4127500D02*
Y3664510D01*
X21844000Y3429000D01*
G01X21735490Y4127500D02*
Y4221770D01*
X21670740Y4286520D01*
G01X25084080Y4257920D02*
Y4273820D01*
X25071380Y4286520D01*
X21670740D01*
G01X22238260Y9842500D02*
Y9538260D01*
X21844000Y9144000D01*
G01X23757860Y9978270D02*
X21857910D01*
G01X21894240Y9842500D02*
Y9941940D01*
X21857910Y9978270D01*
G01X22317630Y11747500D02*
Y11522630D01*
X21844000Y11049000D01*
G01X21973610Y11747500D02*
Y11921650D01*
X21908880Y11986380D01*
G01X23971250Y11908510D02*
X23893380Y11986380D01*
X21908880D01*
G01X22200070Y12622660D02*
Y12710290D01*
G01X23111390Y7937500D02*
Y7553890D01*
X22796500Y7239000D01*
G01X24766560Y8096760D02*
X22702680D01*
G01X22767370Y7937500D02*
Y8032070D01*
X22702680Y8096760D01*
G01X22662350Y12302660D02*
X22868210D01*
X22895580Y12330030D01*
Y12372030D01*
X22986210Y12462660D01*
X23102490D01*
G01X22662350Y12132200D02*
Y12302660D01*
G01X23749250D02*
X23670500D01*
X23669260Y12303900D01*
X23575860D01*
X23257100Y12622660D01*
X22662350D01*
G01X23587630Y6032500D02*
Y5648880D01*
X23272750Y5334000D01*
G01X25785800Y6191640D02*
X23178960D01*
G01X23243610Y6032500D02*
Y6126990D01*
X23178960Y6191640D01*
G01X24143260Y9842500D02*
Y9538260D01*
X23749000Y9144000D01*
G01X23799240Y9842500D02*
Y9936890D01*
X23757860Y9978270D01*
G01X26091840Y9946680D02*
X26060250Y9978270D01*
X23757860D01*
G01X24315270Y11747500D02*
Y11615270D01*
X23749000Y11049000D01*
G01X23152630Y12462660D02*
X23214930D01*
G01X23749250Y12622660D02*
Y12710290D01*
G01X23971250Y11747500D02*
Y11908510D01*
G01X26352500Y11747500D02*
X26284940D01*
X26127840Y11904600D01*
X23975160D01*
X23971250Y11908510D01*
G01X24211530Y12302660D02*
X24374570D01*
X24403710Y12331800D01*
Y12417330D01*
X24449040Y12462660D01*
X24571930D01*
G01X24211530Y12136420D02*
Y12302660D01*
G01Y12111820D02*
Y12136420D01*
G01X25439950Y12302660D02*
X25361200D01*
X25359960Y12303900D01*
X25084080D01*
X24765320Y12622660D01*
X24211530D01*
G01X24622070Y12462660D02*
X24684370D01*
G01X25492630Y4127500D02*
Y3982010D01*
X24939620Y3429000D01*
G01X25148610Y4127500D02*
X25136610D01*
X25086630Y4177480D01*
Y4189480D01*
X25084080Y4192030D01*
Y4257920D01*
G01X32204810Y4286520D02*
X25112680D01*
X25084080Y4257920D01*
G01X25095760Y7937500D02*
Y7633260D01*
X24701500Y7239000D01*
G01X26512920Y8084060D02*
X26500220Y8096760D01*
X24766560D01*
G01X24751740Y7937500D02*
Y8081940D01*
X24766560Y8096760D01*
G01X26130250Y1524000D02*
X26590750Y1984500D01*
X26830440D01*
X26921390Y2075450D01*
Y2222500D01*
G01X26207010Y6032500D02*
Y5648890D01*
X25892120Y5334000D01*
G01X25785800Y6191640D02*
X32147880D01*
X32212990Y6126530D01*
G01X25862990Y6032500D02*
X25850990D01*
X25801010Y6082480D01*
Y6094480D01*
X25798500Y6096990D01*
Y6178940D01*
X25785800Y6191640D01*
G01X26524510Y9842500D02*
Y9538260D01*
X26130250Y9144000D01*
G01X26180490Y9842500D02*
X26168490D01*
X26118510Y9892480D01*
Y9904480D01*
X26116020Y9906970D01*
Y9922500D01*
X26091840Y9946680D01*
G01X32133610Y9986580D02*
X32118310Y10001880D01*
X26147040D01*
X26091840Y9946680D01*
G01X26696520Y11747500D02*
Y11615270D01*
X26130250Y11049000D01*
G01X25902230Y12302660D02*
X25980980D01*
X25982220Y12303900D01*
X26103320D01*
X26116020Y12316600D01*
Y12351530D01*
X26150070Y12385580D01*
X26262630D01*
G01X25902230Y12302660D02*
Y12135130D01*
G01X26969870Y12302660D02*
X26891120D01*
X26889880Y12303900D01*
X26751060D01*
X26432300Y12622660D01*
X25902230D01*
G01X25439950D02*
Y12710290D01*
G01X27505190Y2381400D02*
X26512920D01*
G01X26577370Y2222500D02*
Y2316950D01*
X26512920Y2381400D01*
G01X26921390Y7937500D02*
Y7553890D01*
X26606500Y7239000D01*
G01X26577370Y7937500D02*
X26565370D01*
X26515390Y7987480D01*
Y7999480D01*
X26512920Y8001950D01*
Y8084060D01*
G01X32103130Y8079850D02*
X26517130D01*
X26512920Y8084060D01*
G01X27147960Y9446220D02*
X27099740Y9398000D01*
X26765250D01*
G01X26352500Y11747500D02*
Y11825960D01*
X26433540Y11907000D01*
X26909810D01*
X27147950Y11668860D01*
X27399560D01*
X27453570Y11614850D01*
X27678250D01*
X27783000Y11510100D01*
X28735560D01*
X28814940Y11589480D01*
X28858390D01*
X28937770Y11668860D01*
X30178720D01*
X30258100Y11589480D01*
X30720060D01*
X30878820Y11430720D01*
X36002590D01*
X36107370Y11535500D01*
X37801520D01*
X38179380Y11913360D01*
G01X26798970Y12508160D02*
X26830440Y12539630D01*
Y12561980D01*
X26891120Y12622660D01*
X26969870D01*
G01X26312770Y12385580D02*
X26375070D01*
G01X27505190Y2381400D02*
X27544860Y2421070D01*
Y3969000D01*
X27703360Y4127500D01*
X28244240D01*
G01X28179900Y2381400D02*
X27505190D01*
G01X27432150Y12302660D02*
X27510900D01*
X27512140Y12303900D01*
X27703620D01*
X27783000Y12383280D01*
X27862380D01*
G01X27442030Y12134060D02*
Y12186140D01*
X27432150Y12196020D01*
Y12302660D01*
G01X28636850D02*
X28558100D01*
X28556860Y12303900D01*
X28338660D01*
X28019900Y12622660D01*
X27432150D01*
G01X28588260Y2222500D02*
Y2077010D01*
X28035250Y1524000D01*
G01X29913560Y2381400D02*
X28179900D01*
G01X28244240Y2222500D02*
Y2317060D01*
X28179900Y2381400D01*
G01X28588260Y4127500D02*
Y3982010D01*
X28035250Y3429000D01*
G01X27912520Y12383280D02*
X27974820D01*
G01X28894320Y11033820D02*
X28973700D01*
X29132460Y10875060D01*
Y10692150D01*
X29093410Y10653100D01*
Y10620740D01*
X29132460Y10581690D01*
Y10557540D01*
X29370600Y10319400D01*
X30085020D01*
X30323160Y10081260D01*
X34450920D01*
X34609680Y10240020D01*
X37467360D01*
G01X28656180Y10827420D02*
X28661020Y10832260D01*
Y11356180D01*
X28894320Y11589480D01*
X30222170D01*
X30397700Y11413950D01*
X30402540D01*
G01X29099130Y12302660D02*
X29177880D01*
X29179120Y12303900D01*
X29291220D01*
X29372910Y12385590D01*
X29459530D01*
G01X29099130Y12137380D02*
Y12302660D01*
G01Y12084100D02*
Y12137380D01*
G01X29608740Y12856680D02*
X29460100D01*
X29226080Y12622660D01*
X29099130D01*
G01X28636850D02*
Y12710290D01*
G01X30069870Y2222500D02*
X30057870D01*
X30007890Y2272480D01*
Y2284480D01*
X29926260Y2366110D01*
Y2368700D01*
X29913560Y2381400D01*
G01X29820590Y12716420D02*
X29767500Y12769510D01*
Y12843980D01*
X29754800Y12856680D01*
X29608740D01*
G01X29459530Y12385590D02*
Y12532490D01*
X29449980Y12542040D01*
Y12690980D01*
X29462680Y12703680D01*
X29608740D01*
G01X29509670Y12385590D02*
X29571970D01*
G01X30413890Y2222500D02*
Y1997640D01*
X29940250Y1524000D01*
G01X29913560Y2381400D02*
X33035250D01*
X33086110Y2330540D01*
G01X30402540Y11413950D02*
X30703290D01*
X30720060Y11430720D01*
G01X30402540Y11288730D02*
Y11202890D01*
G01X30243780Y12856680D02*
X30109470D01*
X30102400Y12863750D01*
X30050070Y12811420D01*
X30016570D01*
G01X30243780Y12856680D02*
X30479040D01*
G01X30243780Y12703680D02*
Y12634120D01*
G01X30114630Y12600120D02*
X30037870D01*
X30016570Y12621420D01*
G01X30243780Y12634120D02*
X30231080Y12621420D01*
X30135930D01*
X30114630Y12600120D01*
G01X32659270Y13426870D02*
Y12973030D01*
X32466420Y12780180D01*
X31034420D01*
X30958200Y12856400D01*
Y13040460D01*
G01X32405270Y13426870D02*
Y13635130D01*
X32345050Y13695350D01*
X31251030D01*
X31212200Y13656520D01*
Y13472460D01*
G01X30704200D02*
Y13683180D01*
G01X32477630Y4127500D02*
Y3764150D01*
X32142480Y3429000D01*
G01X32204810Y4286520D02*
X32133610Y4215320D01*
Y4127500D01*
G01X32557010Y6032500D02*
Y5748530D01*
X32142480Y5334000D01*
G01X32398260Y7937500D02*
Y7494780D01*
X32142480Y7239000D01*
G01X34010150Y8079850D02*
X32103130D01*
G01D02*
X32054240Y8030960D01*
Y7937500D01*
G01X32477630Y9842500D02*
Y9479150D01*
X32142480Y9144000D01*
G01X32133610Y9842500D02*
Y9986580D01*
G01D02*
X32148910Y10001880D01*
X34039840D01*
X34056050Y10018090D01*
X34064000Y10010140D01*
G01X34212780Y4286520D02*
X32204810D01*
G01X34233880Y6166280D02*
X32252740D01*
X32212990Y6126530D01*
G01D02*
Y6032500D01*
G01X33825990Y12112620D02*
X33451500D01*
X33260220Y12303900D01*
Y13177080D01*
X33010430Y13426870D01*
X32913270D01*
G01X33430130Y2222500D02*
Y1838880D01*
X33115250Y1524000D01*
G01X36181740Y2222500D02*
X36169740D01*
X36119760Y2272480D01*
Y2284480D01*
X36117900Y2286340D01*
Y2302020D01*
X36058210Y2361710D01*
X33117280D01*
X33086110Y2330540D01*
G01D02*
Y2222500D01*
G01X33167270Y13426870D02*
X33339600Y13254540D01*
Y12383280D01*
X33483260Y12239620D01*
X33825990D01*
G01X33101460Y12145140D02*
X33294050D01*
X33580570Y11858620D01*
X33825990D01*
G01Y12366620D02*
X33594400D01*
X33421270Y12539750D01*
Y13426870D01*
G01X33636850Y12619280D02*
Y12511600D01*
X33654830Y12493620D01*
X33825990D01*
G01Y12620620D02*
X33638190D01*
X33636850Y12619280D01*
G01X33703930Y12747620D02*
X33657120Y12700810D01*
Y12700800D01*
X33636850Y12680530D01*
Y12619280D01*
G01X33703930Y12747620D02*
X33548070D01*
G01X34620760Y4127500D02*
Y3982010D01*
X34067750Y3429000D01*
G01X35959140Y4286520D02*
X34212780D01*
G01X34276740Y4127500D02*
Y4222560D01*
X34212780Y4286520D01*
G01X34620760Y6032500D02*
Y5887010D01*
X34067750Y5334000D01*
G01X35943610Y6032500D02*
X35931610D01*
X35881630Y6082480D01*
Y6094480D01*
X35809830Y6166280D01*
X34233880D01*
G01X34276740Y6032500D02*
Y6123420D01*
X34233880Y6166280D01*
G01X34382630Y7937500D02*
Y7553880D01*
X34067750Y7239000D01*
G01X34038610Y7937500D02*
Y8051390D01*
X34010150Y8079850D01*
G01X35801260D02*
X34010150D01*
G01X34382630Y9842500D02*
Y9458880D01*
X34067750Y9144000D01*
G01X34064000Y10010140D02*
X34079880Y9994260D01*
Y9939330D01*
X34038610Y9898060D01*
Y9842500D01*
G01X34064000Y10010140D02*
X34066040Y10012180D01*
X35911740D01*
X35922040Y10001880D01*
G01X34212780Y10240020D02*
X34164810Y10287990D01*
Y11036660D01*
X33870860Y11330610D01*
X33811680D01*
G01X34754010Y11858620D02*
X34261150D01*
X34133400Y11986370D01*
Y12869000D01*
X34466880Y13202480D01*
X34635080D01*
X34691270Y13258670D01*
Y13426870D01*
G01X35085960Y12145140D02*
Y11802420D01*
X35019100Y11735560D01*
X34118200D01*
X34067400Y11786360D01*
Y11909440D01*
X33991220Y11985620D01*
X33825990D01*
G01X35453270Y13426870D02*
X35203480Y13177080D01*
X34767340D01*
X34716540Y13126280D01*
X34515430D01*
X34292160Y12903010D01*
Y12331700D01*
X34384240Y12239620D01*
X34754010D01*
G01X34945270Y13426870D02*
X34695480Y13177080D01*
X34477410D01*
X34158800Y12858470D01*
Y12119740D01*
X34292920Y11985620D01*
X34754010D01*
G01X35199270Y13426870D02*
X34974880Y13202480D01*
X34756810D01*
X34706010Y13151680D01*
X34504900D01*
X34212780Y12859560D01*
Y12224520D01*
X34324680Y12112620D01*
X34754010D01*
G01X33825990Y12747620D02*
X33703930D01*
G01X35085960Y11192580D02*
X35165340Y11113200D01*
Y10716300D01*
X35482860Y10398780D01*
X37467360D01*
X37626120Y10557540D01*
Y10954440D01*
X38049010Y11377330D01*
X38404220D01*
X38456890Y11430000D01*
G01X35168220Y12462660D02*
Y12394600D01*
X35145660Y12372040D01*
Y12326930D01*
X35244720Y12227870D01*
Y11589480D01*
G01X34947680Y12738870D02*
X34914660D01*
G01X34905910Y12747620D02*
X34754010D01*
G01X34914660Y12738870D02*
X34905910Y12747620D01*
G01X35085960Y12859560D02*
X35015600D01*
X34947680Y12791640D01*
Y12789010D01*
G01X34754010Y12620620D02*
X34865120D01*
X34877820Y12607920D01*
Y12597770D01*
X34890520Y12585070D01*
X34915920D01*
X34928620Y12597770D01*
Y12607920D01*
X34941320Y12620620D01*
X34966720D01*
X34979420Y12607920D01*
Y12597770D01*
X34992120Y12585070D01*
X35017520D01*
X35030220Y12597770D01*
Y12607920D01*
X35042920Y12620620D01*
X35068320D01*
X35081020Y12607920D01*
Y12597770D01*
X35093720Y12585070D01*
X35119120D01*
X35131820Y12597770D01*
Y12607920D01*
X35144520Y12620620D01*
X35167420D01*
X35168220Y12621420D01*
G01D02*
Y12689480D01*
X35165340Y12692360D01*
Y12780180D01*
X35244720Y12859560D01*
X35482860D01*
X35641620Y12700800D01*
X35721000D01*
X35800380Y12621420D01*
X36356040D01*
X36673560Y12303900D01*
X38102400D01*
X38179380Y12226920D01*
G01X34754010Y12493620D02*
X34871900D01*
X34884600Y12480920D01*
Y12475360D01*
X34897300Y12462660D01*
X34922700D01*
X34935400Y12475360D01*
Y12480920D01*
X34948100Y12493620D01*
X34973500D01*
X34986200Y12480920D01*
Y12475360D01*
X34998900Y12462660D01*
X35024300D01*
X35037000Y12475360D01*
Y12480920D01*
X35049700Y12493620D01*
X35075100D01*
X35087800Y12480920D01*
Y12475360D01*
X35100500Y12462660D01*
X35125900D01*
X35138600Y12475360D01*
Y12480920D01*
X35151300Y12493620D01*
X35155520D01*
X35168220Y12480920D01*
Y12462660D01*
G01X35943610Y6032500D02*
Y6203410D01*
X35959140Y6218940D01*
Y6271020D01*
G01X35943610Y7937500D02*
X35931610D01*
X35881630Y7987480D01*
Y7999480D01*
X35801260Y8079850D01*
G01X37848610Y8033090D02*
X37801850Y8079850D01*
X35801260D01*
G01X35922040Y10001880D02*
X35943610Y9980310D01*
Y9842500D01*
G01X35922040Y10001880D02*
X35931680Y10011520D01*
X37600220D01*
X37707260Y9904480D01*
Y9892480D01*
X37757240Y9842500D01*
X37769240D01*
G01X35721000Y11033820D02*
X36171880Y11484700D01*
X38179380D01*
G01Y11510100D02*
X36117900D01*
X35721000Y11113200D01*
X35641620D01*
G01X36525760Y2222500D02*
Y2077010D01*
X35972750Y1524000D01*
G01X36181740Y2222500D02*
Y2604000D01*
G01X36367010Y4127500D02*
Y3823260D01*
X35972750Y3429000D01*
G01X37927990Y4127500D02*
X37915990D01*
X37866010Y4177480D01*
Y4189480D01*
X37784880Y4270610D01*
Y4273820D01*
X37772180Y4286520D01*
X35959140D01*
G01X36022990Y4127500D02*
Y4222670D01*
X35959140Y4286520D01*
G01X36287630Y6032500D02*
Y5648880D01*
X35972750Y5334000D01*
G01X36287630Y7937500D02*
Y7553880D01*
X35972750Y7239000D01*
G01X36287630Y9842500D02*
Y9458880D01*
X35972750Y9144000D01*
G01X36591300Y12938940D02*
Y13126890D01*
X36421780Y13296410D01*
X36339730D01*
G01Y13106410D02*
X36373230D01*
X36438300Y13041340D01*
Y12938940D01*
G01D02*
X36197280D01*
X36038520Y12780180D01*
G01X36339730Y13296410D02*
Y13398910D01*
X36435420Y13494600D01*
X36514800D01*
X36539740Y13469660D01*
X37497140D01*
G01X35961270Y13426870D02*
Y13281600D01*
X36041460Y13201410D01*
X36143750D01*
G01X37387980Y10875060D02*
Y11033820D01*
X37784160Y11430000D01*
X38128560D01*
X38132460Y11433900D01*
X38179380D01*
G01X37229220Y10875060D02*
Y11033820D01*
X37654700Y11459300D01*
X38179380D01*
G01X38272010Y4127500D02*
Y2870760D01*
X37877750Y2476500D01*
G01X37927990Y4127500D02*
Y4747150D01*
G01X38192630Y7937500D02*
Y6601380D01*
X37877750Y6286500D01*
G01X37848610Y7937500D02*
Y8033090D01*
G01D02*
X37864260Y8048740D01*
Y8255520D01*
G01X38113260Y9842500D02*
Y9379510D01*
X37877750Y9144000D01*
G01X38492820Y11430000D02*
X37769240Y10706420D01*
Y9842500D01*
G01X37864260Y10319400D02*
X37943640D01*
X38023020Y10398780D01*
X38340540D01*
X38658060Y10716300D01*
Y11113200D01*
G01X38102400Y12141420D02*
X38179040D01*
X38179380Y12141760D01*
G01X38215320Y12700800D02*
X38023020D01*
X37943640Y12780180D01*
G01X38173730Y13335000D02*
Y13386560D01*
X38174730Y13387560D01*
Y13445280D01*
X38150350Y13469660D01*
X37650140D01*
G01X37868730Y13635990D02*
X37582640D01*
X37497140Y13550490D01*
Y13469660D01*
G01X38959070Y12620620D02*
Y12677110D01*
X38828300Y12807880D01*
X38510780D01*
X38315090Y13003570D01*
Y13123520D01*
X38343730Y13152160D01*
Y13200000D01*
G01X38931370Y12620620D02*
Y12665630D01*
X38816820Y12780180D01*
X38499300D01*
X38287390Y12992090D01*
Y13123520D01*
X38258750Y13152160D01*
Y13200000D01*
G01X38704360Y12620620D02*
Y12641800D01*
X38645360Y12700800D01*
G01D02*
X38340540D01*
G01X38343730Y13335000D02*
Y13284980D01*
X38258750Y13200000D01*
G54D25*
X30704200Y13472460D03*
X30958200Y13040460D03*
X31212200Y13472460D03*
G54D16*
X1094360Y12710290D03*
X1555210Y12112740D03*
X2080250Y12449920D03*
X3364230Y12112740D03*
X2901620Y12710290D03*
X4018460Y12449920D03*
X4904360Y12710290D03*
X5366640Y12112740D03*
X5839470Y12385590D03*
X7192290Y12112740D03*
X6729980Y12710290D03*
X7665090Y12385590D03*
X8818950Y12710290D03*
X9281230Y12112740D03*
X9935790Y12308510D03*
X11690220Y12112740D03*
X11227940Y12710290D03*
X12163060Y12385580D03*
X13861330Y12112740D03*
X13399050Y12710290D03*
X14315680Y12472580D03*
X15297400Y12710290D03*
X15759680Y12134320D03*
X16203040Y12472580D03*
X16967990Y12710290D03*
X17430270Y12138090D03*
X17867230Y12462660D03*
X19249010Y12136140D03*
X18786730Y12710290D03*
X19778720Y12462660D03*
X20514810Y12710290D03*
X20977090Y12112740D03*
X21439330Y12462660D03*
X22200070Y12710290D03*
X22662350Y12132200D03*
X23214930Y12462660D03*
X23749250Y12710290D03*
X24211530Y12136420D03*
X24684370Y12462660D03*
X25439950Y12710290D03*
X25902230Y12135130D03*
X26375070Y12385580D03*
X26433540Y13018320D03*
X26798970Y12508160D03*
X27147960Y9446220D03*
X27442030Y12134060D03*
X27227340Y13018320D03*
X28418040Y10240020D03*
X27974820Y12383280D03*
X28894320Y11033820D03*
X29099130Y12137380D03*
X28636850Y12710290D03*
X29291220Y11065560D03*
X29571970Y12385590D03*
X30720060Y11430720D03*
X30402540Y11202890D03*
X30300560Y11063710D03*
X30306350Y10911330D03*
X30479040Y12856680D03*
X30704200Y13683180D03*
X32942700Y10795680D03*
X33736500Y9763740D03*
X33230620Y10300240D03*
X33498360Y11351340D03*
X33101460Y12145140D03*
X33548070Y12747620D03*
X34212780Y10240020D03*
X34371540D03*
X34026940Y10456400D03*
X34371540Y10636920D03*
X33863520Y10169530D03*
X33811680Y11330610D03*
X33928670Y10937390D03*
X34133400Y11351340D03*
X34307290Y11108870D03*
X35085960Y11192580D03*
X35244720Y11589480D03*
X35085960Y12145140D03*
Y12859560D03*
X35959140Y6271020D03*
X35721000Y11033820D03*
X35641620Y11113200D03*
X36181740Y2604000D03*
X36038520Y12780180D03*
X37467360Y10240020D03*
X37387980Y10875060D03*
X37229220D03*
X37308600Y12859560D03*
X37927990Y4747150D03*
X37864260Y8255520D03*
Y10319400D03*
X38102400Y12141420D03*
X37943640Y12780180D03*
X38658060Y11113200D03*
X39051850Y10685660D03*
X39183750Y10785360D03*
X39293100Y11510100D03*
X39054960Y12938940D03*
G54D34*
X38173730Y13335000D03*
X38088740D03*
X38003730D03*
X38088740Y13200000D03*
X38173730D03*
X38003730D03*
X38513740Y13335000D03*
X38428750D03*
X38343730D03*
X38258750D03*
X38598750D03*
X38258750Y13200000D03*
X38343730D03*
X38428750D03*
X38513740D03*
X38598750D03*
G54D44*
G01X38179380Y11913360D02*
X38321240D01*
X38455670Y12047790D01*
X38476870D01*
X38508360Y12079280D01*
X38708210D01*
X38720400Y12091470D01*
Y12147920D01*
X38749360Y12176880D01*
G01X38456890Y11430000D02*
X38482290Y11455400D01*
X38494170D01*
X38704360Y11665590D01*
Y11710680D01*
G01X38179380Y12226920D02*
X38229420Y12176880D01*
X38485790D01*
X38495250Y12167420D01*
Y12145990D01*
X38529360Y12111880D01*
G01X38179380Y11484700D02*
X38189910D01*
X38212310Y11507100D01*
X38341800D01*
X38509930Y11675230D01*
X38531340D01*
X38541110Y11685000D01*
Y11706410D01*
X38543660Y11708960D01*
Y11721560D01*
X38562580Y11740480D01*
X38637960D01*
X38671860Y11774380D01*
G01X38606860D02*
X38573160D01*
X38540660Y11741880D01*
Y11710210D01*
X38538110Y11707660D01*
Y11686250D01*
X38530090Y11678230D01*
X38508680D01*
X38340550Y11510100D01*
X38179380D01*
G01Y11433900D02*
X38189910D01*
X38196580Y11440570D01*
Y11461630D01*
X38236050Y11501100D01*
X38344300D01*
X38350300Y11507100D01*
X38521150D01*
X38670980Y11656930D01*
Y11728650D01*
X38674320Y11731990D01*
X38683250D01*
X38706310Y11755050D01*
Y11873830D01*
X38749360Y11916880D01*
G01X38179380Y11459300D02*
X38189910D01*
X38234710Y11504100D01*
X38343050D01*
X38349050Y11510100D01*
X38519900D01*
X38667980Y11658180D01*
Y11729900D01*
X38673070Y11734990D01*
X38682000D01*
X38703310Y11756300D01*
Y12021800D01*
X38728390Y12046880D01*
X38749360D01*
G01X38179380Y12141760D02*
X38182760Y12145140D01*
X38399900D01*
X38465660Y12079380D01*
G01X38814360Y11819380D02*
X38904930D01*
X38932040Y11846490D01*
Y11861930D01*
X38953010Y11882900D01*
Y12014680D01*
X38955010Y12016680D01*
X38957820D01*
X38963330Y12022190D01*
Y12031170D01*
X38957820Y12036680D01*
X38955010D01*
X38953010Y12038680D01*
Y12042680D01*
X38955010Y12044680D01*
X38957820D01*
X38963330Y12050190D01*
Y12059170D01*
X38957820Y12064680D01*
X38955010D01*
X38953010Y12066680D01*
Y12070680D01*
X38955010Y12072680D01*
X38957820D01*
X38963330Y12078190D01*
Y12087170D01*
X38957820Y12092680D01*
X38955010D01*
X38953010Y12094680D01*
Y12098680D01*
X38955010Y12100680D01*
X38957820D01*
X38963330Y12106190D01*
Y12115170D01*
X38957820Y12120680D01*
X38955010D01*
X38953010Y12122680D01*
Y12126680D01*
X38955010Y12128680D01*
X38957820D01*
X38963330Y12134190D01*
Y12143170D01*
X38957820Y12148680D01*
X38955010D01*
X38953010Y12150680D01*
Y12154680D01*
X38955010Y12156680D01*
X38957820D01*
X38963330Y12162190D01*
Y12171170D01*
X38957820Y12176680D01*
X38955010D01*
X38953010Y12178680D01*
Y12182680D01*
X38955010Y12184680D01*
X38957820D01*
X38963330Y12190190D01*
Y12199170D01*
X38957820Y12204680D01*
X38955010D01*
X38953010Y12206680D01*
Y12210680D01*
X38955010Y12212680D01*
X38957820D01*
X38963330Y12218190D01*
Y12227170D01*
X38957820Y12232680D01*
X38955010D01*
X38953010Y12234680D01*
Y12238680D01*
X38955010Y12240680D01*
X38957820D01*
X38963330Y12246190D01*
Y12255170D01*
X38957820Y12260680D01*
X38955010D01*
X38953010Y12262680D01*
Y12266680D01*
X38955010Y12268680D01*
X38957820D01*
X38963330Y12274190D01*
Y12283170D01*
X38957820Y12288680D01*
X38955010D01*
X38953010Y12290680D01*
Y12294680D01*
X38955010Y12296680D01*
X38957820D01*
X38963330Y12302190D01*
Y12311170D01*
X38957820Y12316680D01*
X38955010D01*
X38953010Y12318680D01*
Y12322680D01*
X38955010Y12324680D01*
X38957820D01*
X38963330Y12330190D01*
Y12339170D01*
X38957820Y12344680D01*
X38955010D01*
X38953010Y12346680D01*
Y12350680D01*
X38955010Y12352680D01*
X38957820D01*
X38963330Y12358190D01*
Y12367170D01*
X38957820Y12372680D01*
X38955010D01*
X38953010Y12374680D01*
Y12378680D01*
X38955010Y12380680D01*
X38957820D01*
X38963330Y12386190D01*
Y12395170D01*
X38957820Y12400680D01*
X38955010D01*
X38953010Y12402680D01*
Y12406680D01*
X38955010Y12408680D01*
X38957820D01*
X38963330Y12414190D01*
Y12423170D01*
X38957820Y12428680D01*
X38955010D01*
X38953010Y12430680D01*
Y12434680D01*
X38955010Y12436680D01*
X38957820D01*
X38963330Y12442190D01*
Y12451170D01*
X38957820Y12456680D01*
X38955010D01*
X38953010Y12458680D01*
Y12462680D01*
X38955010Y12464680D01*
X38957820D01*
X38963330Y12470190D01*
Y12479170D01*
X38957820Y12484680D01*
X38955010D01*
X38953010Y12486680D01*
Y12490680D01*
X38955010Y12492680D01*
X38957820D01*
X38963330Y12498190D01*
Y12507170D01*
X38957820Y12512680D01*
X38955010D01*
X38953010Y12514680D01*
Y12518680D01*
X38955010Y12520680D01*
X38957820D01*
X38963330Y12526190D01*
Y12535170D01*
X38957820Y12540680D01*
X38955010D01*
X38953010Y12542680D01*
Y12611890D01*
X38959070Y12617950D01*
Y12620620D01*
G01X38914110Y11992700D02*
X38879000D01*
X38870940Y11984640D01*
X38849620D01*
X38814360Y11949380D01*
G01Y11884380D02*
X38910260D01*
X38926710Y11867930D01*
X38929550D01*
X38947010Y11885390D01*
Y12017170D01*
X38952520Y12022680D01*
X38955330D01*
X38957330Y12024680D01*
Y12028680D01*
X38955330Y12030680D01*
X38952520D01*
X38947010Y12036190D01*
Y12045170D01*
X38952520Y12050680D01*
X38955330D01*
X38957330Y12052680D01*
Y12056680D01*
X38955330Y12058680D01*
X38952520D01*
X38947010Y12064190D01*
Y12073170D01*
X38952520Y12078680D01*
X38955330D01*
X38957330Y12080680D01*
Y12084680D01*
X38955330Y12086680D01*
X38952520D01*
X38947010Y12092190D01*
Y12101170D01*
X38952520Y12106680D01*
X38955330D01*
X38957330Y12108680D01*
Y12112680D01*
X38955330Y12114680D01*
X38952520D01*
X38947010Y12120190D01*
Y12129170D01*
X38952520Y12134680D01*
X38955330D01*
X38957330Y12136680D01*
Y12140680D01*
X38955330Y12142680D01*
X38952520D01*
X38947010Y12148190D01*
Y12157170D01*
X38952520Y12162680D01*
X38955330D01*
X38957330Y12164680D01*
Y12168680D01*
X38955330Y12170680D01*
X38952520D01*
X38947010Y12176190D01*
Y12185170D01*
X38952520Y12190680D01*
X38955330D01*
X38957330Y12192680D01*
Y12196680D01*
X38955330Y12198680D01*
X38952520D01*
X38947010Y12204190D01*
Y12213170D01*
X38952520Y12218680D01*
X38955330D01*
X38957330Y12220680D01*
Y12224680D01*
X38955330Y12226680D01*
X38952520D01*
X38947010Y12232190D01*
Y12241170D01*
X38952520Y12246680D01*
X38955330D01*
X38957330Y12248680D01*
Y12252680D01*
X38955330Y12254680D01*
X38952520D01*
X38947010Y12260190D01*
Y12269170D01*
X38952520Y12274680D01*
X38955330D01*
X38957330Y12276680D01*
Y12280680D01*
X38955330Y12282680D01*
X38952520D01*
X38947010Y12288190D01*
Y12297170D01*
X38952520Y12302680D01*
X38955330D01*
X38957330Y12304680D01*
Y12308680D01*
X38955330Y12310680D01*
X38952520D01*
X38947010Y12316190D01*
Y12325170D01*
X38952520Y12330680D01*
X38955330D01*
X38957330Y12332680D01*
Y12336680D01*
X38955330Y12338680D01*
X38952520D01*
X38947010Y12344190D01*
Y12353170D01*
X38952520Y12358680D01*
X38955330D01*
X38957330Y12360680D01*
Y12364680D01*
X38955330Y12366680D01*
X38952520D01*
X38947010Y12372190D01*
Y12381170D01*
X38952520Y12386680D01*
X38955330D01*
X38957330Y12388680D01*
Y12392680D01*
X38955330Y12394680D01*
X38952520D01*
X38947010Y12400190D01*
Y12409170D01*
X38952520Y12414680D01*
X38955330D01*
X38957330Y12416680D01*
Y12420680D01*
X38955330Y12422680D01*
X38952520D01*
X38947010Y12428190D01*
Y12437170D01*
X38952520Y12442680D01*
X38955330D01*
X38957330Y12444680D01*
Y12448680D01*
X38955330Y12450680D01*
X38952520D01*
X38947010Y12456190D01*
Y12465170D01*
X38952520Y12470680D01*
X38955330D01*
X38957330Y12472680D01*
Y12476680D01*
X38955330Y12478680D01*
X38952520D01*
X38947010Y12484190D01*
Y12493170D01*
X38952520Y12498680D01*
X38955330D01*
X38957330Y12500680D01*
Y12504680D01*
X38955330Y12506680D01*
X38952520D01*
X38947010Y12512190D01*
Y12521170D01*
X38952520Y12526680D01*
X38955330D01*
X38957330Y12528680D01*
Y12532680D01*
X38955330Y12534680D01*
X38952520D01*
X38947010Y12540190D01*
Y12605100D01*
X38945010Y12607100D01*
X38942220D01*
X38931370Y12617950D01*
Y12620620D01*
G01X38889360Y12448080D02*
X38896200Y12441240D01*
Y12191250D01*
X38865060Y12160110D01*
G01X38814360Y12339380D02*
Y12408080D01*
X38794360Y12428080D01*
G01X38749360Y12306880D02*
X38781860D01*
X38814360Y12339380D01*
G01X38865060Y12160110D02*
X38849330Y12144380D01*
X38814360D01*
G01X38865060Y12160110D02*
Y12128050D01*
X38859240Y12122230D01*
X38857210D01*
X38814360Y12079380D01*
G01D02*
X38839060D01*
X38851410Y12067030D01*
Y12066230D01*
X38854770Y12062870D01*
Y12026450D01*
X38842700Y12014380D01*
X38814360D01*
G01X38749360Y12241880D02*
X38724660D01*
X38715660Y12250880D01*
Y12267560D01*
X38722030Y12273930D01*
Y12279550D01*
X38749360Y12306880D01*
G54D17*
X1967810Y12449920D03*
X2017950D03*
X3956160D03*
X3906020D03*
X5777170Y12385590D03*
X5727030D03*
X7602790D03*
X7552650D03*
X9873490Y12308510D03*
X9823350D03*
X12100760Y12385580D03*
X12050620D03*
X14253380Y12472580D03*
X14203240D03*
X16140740D03*
X16090600D03*
X17804930Y12462660D03*
X17754790D03*
X19716420D03*
X19666280D03*
X21377030D03*
X21326890D03*
X23102490D03*
X23152630D03*
X24622070D03*
X24571930D03*
X26312770Y12385580D03*
X26262630D03*
X27912520Y12383280D03*
X27862380D03*
X29509670Y12385590D03*
X29459530D03*
G54D35*
X38889360Y11710680D03*
X38704360D03*
X38639360D03*
X38574360D03*
X38889360Y12448080D03*
X38574360D03*
X38639360D03*
X38704360D03*
X39089360Y11710680D03*
X38989360D03*
Y12448080D03*
X39089360D03*
G54D26*
X31651270Y10276890D03*
Y13376890D03*
X39151260Y10276890D03*
Y13376890D03*
G54D45*
G01X38749360Y11851880D02*
Y11784130D01*
X38748260D01*
X38739650Y11775520D01*
Y11685840D01*
X38744150Y11681340D01*
Y11681330D01*
X38492820Y11430000D01*
G01X38814360Y12274380D02*
X38844290D01*
X38852140Y12266530D01*
Y12212460D01*
X38849060Y12209380D01*
X38814360D01*
G54D27*
X32151270Y13426870D03*
X32405270D03*
X32659270D03*
X32913270D03*
X33167270D03*
X33421270D03*
X33675270D03*
X33929270D03*
X34183270D03*
X34437270D03*
X34691270D03*
X34945270D03*
X35199270D03*
X35453270D03*
X35707270D03*
X35961270D03*
G54D18*
X27654250Y13493750D03*
X27908250D03*
X28162250D03*
X28416250D03*
G54D36*
X38671860Y11851880D03*
Y11916880D03*
Y11981880D03*
Y12046880D03*
Y12111880D03*
Y12176880D03*
Y12241880D03*
Y12306880D03*
X38606860Y11851880D03*
Y11916880D03*
Y11981880D03*
Y12046880D03*
Y12111880D03*
Y12176880D03*
Y12241880D03*
Y12306880D03*
X38529360Y11851880D03*
Y11916880D03*
Y11981880D03*
Y12046880D03*
Y12111880D03*
Y12176880D03*
Y12241880D03*
Y12306880D03*
X38814360Y12339380D03*
X38749360Y12306880D03*
X38814360Y12274380D03*
X38749360Y12241880D03*
X38814360Y12209380D03*
X38749360Y12176880D03*
X38814360Y12144380D03*
X38749360Y12111880D03*
X38814360Y12079380D03*
X38749360Y12046880D03*
X38814360Y12014380D03*
X38749360Y11981880D03*
X38814360Y11949380D03*
X38749360Y11916880D03*
X38814360Y11884380D03*
X38749360Y11851880D03*
X38814360Y11819380D03*
X38671860Y11774380D03*
X38606860D03*
Y12384380D03*
X38671860D03*
G54D37*
X38465660Y11819380D03*
Y11884380D03*
Y11949380D03*
Y12014380D03*
Y12079380D03*
Y12144380D03*
Y12209380D03*
Y12274380D03*
Y12339380D03*
X39203060Y12329380D03*
Y12229380D03*
Y12129380D03*
Y12029380D03*
Y11929380D03*
Y11829380D03*
G54D28*
X33825990Y11858620D03*
Y11985620D03*
Y12112620D03*
Y12239620D03*
Y12366620D03*
Y12493620D03*
Y12620620D03*
Y12747620D03*
X34754010Y11858620D03*
Y12366620D03*
Y12239620D03*
Y12112620D03*
Y11985620D03*
Y12747620D03*
Y12620620D03*
Y12493620D03*
G54D19*
X28656180Y10827420D03*
X29132460Y10636920D03*
X28494250Y11036990D03*
X29688120Y10064440D03*
X38914110Y11992700D03*
G54D29*
X34947680Y12789010D03*
Y12738870D03*
G54D38*
X38794360Y11730680D03*
Y12428080D03*
G54D39*
X38485660Y11730680D03*
Y12428080D03*
X39183060Y11730680D03*
Y12428080D03*
M02*
